G04 MADE WITH FRITZING*
G04 WWW.FRITZING.ORG*
G04 DOUBLE SIDED*
G04 HOLES PLATED*
G04 CONTOUR ON CENTER OF CONTOUR VECTOR*
%ASAXBY*%
%FSLAX23Y23*%
%MOIN*%
%OFA0B0*%
%SFA1.0B1.0*%
%ADD10R,0.001000X0.001000*%
%LNSILK1*%
G90*
G70*
G54D10*
X140Y2104D02*
X144Y2104D01*
X146Y2104D02*
X146Y2104D01*
X2662Y2104D02*
X2667Y2104D01*
X134Y2103D02*
X139Y2103D01*
X145Y2103D02*
X2661Y2103D01*
X2668Y2103D02*
X2672Y2103D01*
X130Y2102D02*
X133Y2102D01*
X2673Y2102D02*
X2676Y2102D01*
X128Y2101D02*
X130Y2101D01*
X2676Y2101D02*
X2678Y2101D01*
X126Y2100D02*
X127Y2100D01*
X2679Y2100D02*
X2680Y2100D01*
X124Y2099D02*
X125Y2099D01*
X2681Y2099D02*
X2682Y2099D01*
X123Y2098D02*
X123Y2098D01*
X2683Y2098D02*
X2683Y2098D01*
X121Y2097D02*
X122Y2097D01*
X2684Y2097D02*
X2685Y2097D01*
X120Y2096D02*
X120Y2096D01*
X2686Y2096D02*
X2686Y2096D01*
X119Y2095D02*
X119Y2095D01*
X2687Y2095D02*
X2687Y2095D01*
X118Y2094D02*
X118Y2094D01*
X2688Y2094D02*
X2688Y2094D01*
X117Y2093D02*
X117Y2093D01*
X2689Y2093D02*
X2689Y2093D01*
X116Y2092D02*
X116Y2092D01*
X2690Y2092D02*
X2690Y2092D01*
X115Y2091D02*
X115Y2091D01*
X2691Y2091D02*
X2691Y2091D01*
X114Y2090D02*
X114Y2090D01*
X2692Y2090D02*
X2692Y2090D01*
X113Y2089D02*
X114Y2089D01*
X2693Y2089D02*
X2693Y2089D01*
X113Y2088D02*
X113Y2088D01*
X2693Y2088D02*
X2693Y2088D01*
X112Y2087D02*
X112Y2087D01*
X2694Y2087D02*
X2694Y2087D01*
X111Y2086D02*
X112Y2086D01*
X2694Y2086D02*
X2695Y2086D01*
X111Y2085D02*
X111Y2085D01*
X2695Y2085D02*
X2695Y2085D01*
X110Y2084D02*
X110Y2084D01*
X2696Y2084D02*
X2696Y2084D01*
X110Y2083D02*
X110Y2083D01*
X2696Y2083D02*
X2696Y2083D01*
X109Y2082D02*
X110Y2082D01*
X2697Y2082D02*
X2697Y2082D01*
X109Y2081D02*
X109Y2081D01*
X2697Y2081D02*
X2697Y2081D01*
X109Y2080D02*
X109Y2080D01*
X2697Y2080D02*
X2697Y2080D01*
X108Y2079D02*
X108Y2079D01*
X2698Y2079D02*
X2698Y2079D01*
X108Y2078D02*
X108Y2078D01*
X2698Y2078D02*
X2698Y2078D01*
X108Y2077D02*
X108Y2077D01*
X2698Y2077D02*
X2698Y2077D01*
X108Y2076D02*
X108Y2076D01*
X2698Y2076D02*
X2698Y2076D01*
X107Y2075D02*
X107Y2075D01*
X2699Y2075D02*
X2699Y2075D01*
X107Y2074D02*
X107Y2074D01*
X2699Y2074D02*
X2699Y2074D01*
X107Y2073D02*
X107Y2073D01*
X2699Y2073D02*
X2699Y2073D01*
X107Y2072D02*
X107Y2072D01*
X2699Y2072D02*
X2699Y2072D01*
X107Y2071D02*
X107Y2071D01*
X2699Y2071D02*
X2699Y2071D01*
X107Y2070D02*
X107Y2070D01*
X2699Y2070D02*
X2699Y2070D01*
X107Y2069D02*
X107Y2069D01*
X2699Y2069D02*
X2699Y2069D01*
X107Y2068D02*
X107Y2068D01*
X2699Y2068D02*
X2699Y2068D01*
X107Y2067D02*
X107Y2067D01*
X2699Y2067D02*
X2699Y2067D01*
X107Y2066D02*
X107Y2066D01*
X2699Y2066D02*
X2699Y2066D01*
X107Y2065D02*
X107Y2065D01*
X2699Y2065D02*
X2699Y2065D01*
X107Y2064D02*
X107Y2064D01*
X2699Y2064D02*
X2699Y2064D01*
X107Y2063D02*
X107Y2063D01*
X2699Y2063D02*
X2699Y2063D01*
X107Y2062D02*
X107Y2062D01*
X2699Y2062D02*
X2699Y2062D01*
X107Y2061D02*
X107Y2061D01*
X2699Y2061D02*
X2699Y2061D01*
X107Y2060D02*
X107Y2060D01*
X2699Y2060D02*
X2699Y2060D01*
X107Y2059D02*
X107Y2059D01*
X2699Y2059D02*
X2699Y2059D01*
X107Y2058D02*
X107Y2058D01*
X2699Y2058D02*
X2699Y2058D01*
X107Y2057D02*
X107Y2057D01*
X2699Y2057D02*
X2699Y2057D01*
X107Y2056D02*
X107Y2056D01*
X2699Y2056D02*
X2699Y2056D01*
X107Y2055D02*
X107Y2055D01*
X2699Y2055D02*
X2699Y2055D01*
X107Y2054D02*
X107Y2054D01*
X2699Y2054D02*
X2699Y2054D01*
X107Y2053D02*
X107Y2053D01*
X2699Y2053D02*
X2699Y2053D01*
X107Y2052D02*
X107Y2052D01*
X2699Y2052D02*
X2699Y2052D01*
X107Y2051D02*
X107Y2051D01*
X2699Y2051D02*
X2699Y2051D01*
X107Y2050D02*
X107Y2050D01*
X2699Y2050D02*
X2699Y2050D01*
X107Y2049D02*
X107Y2049D01*
X2699Y2049D02*
X2699Y2049D01*
X107Y2048D02*
X107Y2048D01*
X2699Y2048D02*
X2699Y2048D01*
X107Y2047D02*
X107Y2047D01*
X2699Y2047D02*
X2699Y2047D01*
X107Y2046D02*
X107Y2046D01*
X2699Y2046D02*
X2699Y2046D01*
X107Y2045D02*
X107Y2045D01*
X2699Y2045D02*
X2699Y2045D01*
X107Y2044D02*
X107Y2044D01*
X2699Y2044D02*
X2699Y2044D01*
X107Y2043D02*
X107Y2043D01*
X2699Y2043D02*
X2699Y2043D01*
X107Y2042D02*
X107Y2042D01*
X2699Y2042D02*
X2699Y2042D01*
X107Y2041D02*
X107Y2041D01*
X2699Y2041D02*
X2699Y2041D01*
X107Y2040D02*
X107Y2040D01*
X2699Y2040D02*
X2699Y2040D01*
X107Y2039D02*
X107Y2039D01*
X2699Y2039D02*
X2699Y2039D01*
X107Y2038D02*
X107Y2038D01*
X2699Y2038D02*
X2699Y2038D01*
X107Y2037D02*
X107Y2037D01*
X2699Y2037D02*
X2699Y2037D01*
X107Y2036D02*
X107Y2036D01*
X2699Y2036D02*
X2699Y2036D01*
X107Y2035D02*
X107Y2035D01*
X2699Y2035D02*
X2699Y2035D01*
X107Y2034D02*
X107Y2034D01*
X2699Y2034D02*
X2699Y2034D01*
X107Y2033D02*
X107Y2033D01*
X2699Y2033D02*
X2699Y2033D01*
X107Y2032D02*
X107Y2032D01*
X2699Y2032D02*
X2699Y2032D01*
X107Y2031D02*
X107Y2031D01*
X2699Y2031D02*
X2699Y2031D01*
X107Y2030D02*
X107Y2030D01*
X2699Y2030D02*
X2699Y2030D01*
X107Y2029D02*
X107Y2029D01*
X2699Y2029D02*
X2699Y2029D01*
X107Y2028D02*
X107Y2028D01*
X2699Y2028D02*
X2699Y2028D01*
X107Y2027D02*
X107Y2027D01*
X2699Y2027D02*
X2699Y2027D01*
X107Y2026D02*
X107Y2026D01*
X2699Y2026D02*
X2699Y2026D01*
X107Y2025D02*
X107Y2025D01*
X2699Y2025D02*
X2699Y2025D01*
X107Y2024D02*
X107Y2024D01*
X2699Y2024D02*
X2699Y2024D01*
X107Y2023D02*
X107Y2023D01*
X2699Y2023D02*
X2699Y2023D01*
X107Y2022D02*
X107Y2022D01*
X2699Y2022D02*
X2699Y2022D01*
X107Y2021D02*
X107Y2021D01*
X2699Y2021D02*
X2699Y2021D01*
X107Y2020D02*
X107Y2020D01*
X2699Y2020D02*
X2699Y2020D01*
X107Y2019D02*
X107Y2019D01*
X2699Y2019D02*
X2699Y2019D01*
X107Y2018D02*
X107Y2018D01*
X2699Y2018D02*
X2699Y2018D01*
X107Y2017D02*
X107Y2017D01*
X2699Y2017D02*
X2699Y2017D01*
X107Y2016D02*
X107Y2016D01*
X2699Y2016D02*
X2699Y2016D01*
X107Y2015D02*
X107Y2015D01*
X2699Y2015D02*
X2699Y2015D01*
X107Y2014D02*
X107Y2014D01*
X2699Y2014D02*
X2699Y2014D01*
X107Y2013D02*
X107Y2013D01*
X2699Y2013D02*
X2699Y2013D01*
X107Y2012D02*
X107Y2012D01*
X2699Y2012D02*
X2699Y2012D01*
X107Y2011D02*
X107Y2011D01*
X2699Y2011D02*
X2699Y2011D01*
X107Y2010D02*
X107Y2010D01*
X2699Y2010D02*
X2699Y2010D01*
X107Y2009D02*
X107Y2009D01*
X2699Y2009D02*
X2699Y2009D01*
X107Y2008D02*
X107Y2008D01*
X2699Y2008D02*
X2699Y2008D01*
X107Y2007D02*
X107Y2007D01*
X2699Y2007D02*
X2699Y2007D01*
X107Y2006D02*
X107Y2006D01*
X2699Y2006D02*
X2699Y2006D01*
X107Y2005D02*
X107Y2005D01*
X2699Y2005D02*
X2699Y2005D01*
X107Y2004D02*
X107Y2004D01*
X2699Y2004D02*
X2699Y2004D01*
X106Y2003D02*
X106Y2003D01*
X2699Y2003D02*
X2699Y2003D01*
X105Y2002D02*
X105Y2002D01*
X2699Y2002D02*
X2699Y2002D01*
X104Y2001D02*
X104Y2001D01*
X2699Y2001D02*
X2699Y2001D01*
X103Y2000D02*
X103Y2000D01*
X2699Y2000D02*
X2699Y2000D01*
X102Y1999D02*
X102Y1999D01*
X2699Y1999D02*
X2699Y1999D01*
X101Y1998D02*
X101Y1998D01*
X2699Y1998D02*
X2699Y1998D01*
X100Y1997D02*
X100Y1997D01*
X2699Y1997D02*
X2699Y1997D01*
X99Y1996D02*
X99Y1996D01*
X2699Y1996D02*
X2699Y1996D01*
X98Y1995D02*
X98Y1995D01*
X2699Y1995D02*
X2699Y1995D01*
X97Y1994D02*
X97Y1994D01*
X2699Y1994D02*
X2699Y1994D01*
X96Y1993D02*
X96Y1993D01*
X2699Y1993D02*
X2699Y1993D01*
X95Y1992D02*
X95Y1992D01*
X2699Y1992D02*
X2699Y1992D01*
X94Y1991D02*
X94Y1991D01*
X2699Y1991D02*
X2699Y1991D01*
X93Y1990D02*
X93Y1990D01*
X2699Y1990D02*
X2699Y1990D01*
X92Y1989D02*
X92Y1989D01*
X2699Y1989D02*
X2699Y1989D01*
X91Y1988D02*
X91Y1988D01*
X2699Y1988D02*
X2699Y1988D01*
X90Y1987D02*
X90Y1987D01*
X2699Y1987D02*
X2699Y1987D01*
X89Y1986D02*
X89Y1986D01*
X2699Y1986D02*
X2699Y1986D01*
X88Y1985D02*
X88Y1985D01*
X2699Y1985D02*
X2699Y1985D01*
X87Y1984D02*
X87Y1984D01*
X2699Y1984D02*
X2699Y1984D01*
X86Y1983D02*
X86Y1983D01*
X2699Y1983D02*
X2699Y1983D01*
X85Y1982D02*
X85Y1982D01*
X2699Y1982D02*
X2699Y1982D01*
X84Y1981D02*
X84Y1981D01*
X2699Y1981D02*
X2699Y1981D01*
X83Y1980D02*
X83Y1980D01*
X2699Y1980D02*
X2699Y1980D01*
X82Y1979D02*
X82Y1979D01*
X2699Y1979D02*
X2699Y1979D01*
X81Y1978D02*
X81Y1978D01*
X2699Y1978D02*
X2699Y1978D01*
X80Y1977D02*
X80Y1977D01*
X2699Y1977D02*
X2699Y1977D01*
X79Y1976D02*
X79Y1976D01*
X2699Y1976D02*
X2699Y1976D01*
X78Y1975D02*
X78Y1975D01*
X2699Y1975D02*
X2699Y1975D01*
X77Y1974D02*
X77Y1974D01*
X2699Y1974D02*
X2699Y1974D01*
X76Y1973D02*
X76Y1973D01*
X2699Y1973D02*
X2699Y1973D01*
X75Y1972D02*
X75Y1972D01*
X2699Y1972D02*
X2699Y1972D01*
X74Y1971D02*
X74Y1971D01*
X2699Y1971D02*
X2699Y1971D01*
X73Y1970D02*
X73Y1970D01*
X2699Y1970D02*
X2699Y1970D01*
X72Y1969D02*
X72Y1969D01*
X2699Y1969D02*
X2699Y1969D01*
X71Y1968D02*
X71Y1968D01*
X2699Y1968D02*
X2699Y1968D01*
X70Y1967D02*
X70Y1967D01*
X2699Y1967D02*
X2699Y1967D01*
X69Y1966D02*
X69Y1966D01*
X2699Y1966D02*
X2699Y1966D01*
X68Y1965D02*
X68Y1965D01*
X2699Y1965D02*
X2699Y1965D01*
X67Y1964D02*
X67Y1964D01*
X2699Y1964D02*
X2699Y1964D01*
X66Y1963D02*
X66Y1963D01*
X2699Y1963D02*
X2699Y1963D01*
X65Y1962D02*
X65Y1962D01*
X2699Y1962D02*
X2699Y1962D01*
X64Y1961D02*
X64Y1961D01*
X2699Y1961D02*
X2699Y1961D01*
X63Y1960D02*
X63Y1960D01*
X2699Y1960D02*
X2699Y1960D01*
X62Y1959D02*
X62Y1959D01*
X2699Y1959D02*
X2699Y1959D01*
X61Y1958D02*
X61Y1958D01*
X2699Y1958D02*
X2699Y1958D01*
X60Y1957D02*
X60Y1957D01*
X2699Y1957D02*
X2699Y1957D01*
X59Y1956D02*
X59Y1956D01*
X2699Y1956D02*
X2699Y1956D01*
X58Y1955D02*
X58Y1955D01*
X2699Y1955D02*
X2699Y1955D01*
X57Y1954D02*
X57Y1954D01*
X2699Y1954D02*
X2699Y1954D01*
X56Y1953D02*
X56Y1953D01*
X2699Y1953D02*
X2699Y1953D01*
X55Y1952D02*
X55Y1952D01*
X2699Y1952D02*
X2699Y1952D01*
X54Y1951D02*
X54Y1951D01*
X2699Y1951D02*
X2699Y1951D01*
X53Y1950D02*
X53Y1950D01*
X2699Y1950D02*
X2699Y1950D01*
X52Y1949D02*
X52Y1949D01*
X2699Y1949D02*
X2699Y1949D01*
X51Y1948D02*
X51Y1948D01*
X2699Y1948D02*
X2699Y1948D01*
X50Y1947D02*
X50Y1947D01*
X2699Y1947D02*
X2699Y1947D01*
X49Y1946D02*
X49Y1946D01*
X2699Y1946D02*
X2699Y1946D01*
X48Y1945D02*
X48Y1945D01*
X2699Y1945D02*
X2699Y1945D01*
X47Y1944D02*
X47Y1944D01*
X2699Y1944D02*
X2699Y1944D01*
X46Y1943D02*
X46Y1943D01*
X2699Y1943D02*
X2699Y1943D01*
X45Y1942D02*
X45Y1942D01*
X2699Y1942D02*
X2699Y1942D01*
X44Y1941D02*
X44Y1941D01*
X2699Y1941D02*
X2699Y1941D01*
X43Y1940D02*
X43Y1940D01*
X2699Y1940D02*
X2699Y1940D01*
X42Y1939D02*
X42Y1939D01*
X2699Y1939D02*
X2699Y1939D01*
X41Y1938D02*
X41Y1938D01*
X2699Y1938D02*
X2699Y1938D01*
X40Y1937D02*
X40Y1937D01*
X2699Y1937D02*
X2699Y1937D01*
X39Y1936D02*
X39Y1936D01*
X2699Y1936D02*
X2699Y1936D01*
X38Y1935D02*
X38Y1935D01*
X2699Y1935D02*
X2699Y1935D01*
X37Y1934D02*
X37Y1934D01*
X2699Y1934D02*
X2699Y1934D01*
X36Y1933D02*
X36Y1933D01*
X2699Y1933D02*
X2699Y1933D01*
X35Y1932D02*
X35Y1932D01*
X2699Y1932D02*
X2699Y1932D01*
X34Y1931D02*
X34Y1931D01*
X2699Y1931D02*
X2699Y1931D01*
X33Y1930D02*
X33Y1930D01*
X2699Y1930D02*
X2699Y1930D01*
X32Y1929D02*
X32Y1929D01*
X2699Y1929D02*
X2699Y1929D01*
X31Y1928D02*
X31Y1928D01*
X2699Y1928D02*
X2699Y1928D01*
X30Y1927D02*
X30Y1927D01*
X2699Y1927D02*
X2699Y1927D01*
X29Y1926D02*
X29Y1926D01*
X2699Y1926D02*
X2699Y1926D01*
X28Y1925D02*
X28Y1925D01*
X2699Y1925D02*
X2699Y1925D01*
X27Y1924D02*
X27Y1924D01*
X2699Y1924D02*
X2699Y1924D01*
X26Y1923D02*
X26Y1923D01*
X2699Y1923D02*
X2699Y1923D01*
X25Y1922D02*
X25Y1922D01*
X2699Y1922D02*
X2699Y1922D01*
X24Y1921D02*
X24Y1921D01*
X2699Y1921D02*
X2699Y1921D01*
X23Y1920D02*
X23Y1920D01*
X2699Y1920D02*
X2699Y1920D01*
X22Y1919D02*
X22Y1919D01*
X2699Y1919D02*
X2699Y1919D01*
X21Y1918D02*
X21Y1918D01*
X2699Y1918D02*
X2699Y1918D01*
X20Y1917D02*
X20Y1917D01*
X2699Y1917D02*
X2699Y1917D01*
X19Y1916D02*
X19Y1916D01*
X2699Y1916D02*
X2699Y1916D01*
X18Y1915D02*
X18Y1915D01*
X2699Y1915D02*
X2699Y1915D01*
X17Y1914D02*
X17Y1914D01*
X2699Y1914D02*
X2699Y1914D01*
X16Y1913D02*
X16Y1913D01*
X2699Y1913D02*
X2699Y1913D01*
X15Y1912D02*
X15Y1912D01*
X2699Y1912D02*
X2699Y1912D01*
X14Y1911D02*
X14Y1911D01*
X2699Y1911D02*
X2699Y1911D01*
X13Y1910D02*
X13Y1910D01*
X2699Y1910D02*
X2699Y1910D01*
X12Y1909D02*
X12Y1909D01*
X2699Y1909D02*
X2699Y1909D01*
X11Y1908D02*
X11Y1908D01*
X2699Y1908D02*
X2699Y1908D01*
X10Y1907D02*
X10Y1907D01*
X2699Y1907D02*
X2699Y1907D01*
X9Y1906D02*
X9Y1906D01*
X2699Y1906D02*
X2699Y1906D01*
X8Y1905D02*
X8Y1905D01*
X2699Y1905D02*
X2699Y1905D01*
X7Y1904D02*
X7Y1904D01*
X2699Y1904D02*
X2699Y1904D01*
X7Y1903D02*
X7Y1903D01*
X2699Y1903D02*
X2699Y1903D01*
X7Y1902D02*
X7Y1902D01*
X2699Y1902D02*
X2699Y1902D01*
X7Y1901D02*
X7Y1901D01*
X2699Y1901D02*
X2699Y1901D01*
X7Y1900D02*
X7Y1900D01*
X2699Y1900D02*
X2699Y1900D01*
X7Y1899D02*
X7Y1899D01*
X2699Y1899D02*
X2699Y1899D01*
X7Y1898D02*
X7Y1898D01*
X2699Y1898D02*
X2699Y1898D01*
X7Y1897D02*
X7Y1897D01*
X2699Y1897D02*
X2699Y1897D01*
X7Y1896D02*
X7Y1896D01*
X2699Y1896D02*
X2699Y1896D01*
X7Y1895D02*
X7Y1895D01*
X2699Y1895D02*
X2699Y1895D01*
X7Y1894D02*
X7Y1894D01*
X2699Y1894D02*
X2699Y1894D01*
X7Y1893D02*
X7Y1893D01*
X2699Y1893D02*
X2699Y1893D01*
X7Y1892D02*
X7Y1892D01*
X2699Y1892D02*
X2699Y1892D01*
X7Y1891D02*
X7Y1891D01*
X2699Y1891D02*
X2699Y1891D01*
X7Y1890D02*
X7Y1890D01*
X2699Y1890D02*
X2699Y1890D01*
X7Y1889D02*
X7Y1889D01*
X2699Y1889D02*
X2699Y1889D01*
X7Y1888D02*
X7Y1888D01*
X2699Y1888D02*
X2699Y1888D01*
X7Y1887D02*
X7Y1887D01*
X2699Y1887D02*
X2699Y1887D01*
X7Y1886D02*
X7Y1886D01*
X2699Y1886D02*
X2699Y1886D01*
X7Y1885D02*
X7Y1885D01*
X2699Y1885D02*
X2699Y1885D01*
X7Y1884D02*
X7Y1884D01*
X2699Y1884D02*
X2699Y1884D01*
X7Y1883D02*
X7Y1883D01*
X2699Y1883D02*
X2699Y1883D01*
X7Y1882D02*
X7Y1882D01*
X2699Y1882D02*
X2699Y1882D01*
X7Y1881D02*
X7Y1881D01*
X2699Y1881D02*
X2699Y1881D01*
X7Y1880D02*
X7Y1880D01*
X2699Y1880D02*
X2699Y1880D01*
X7Y1879D02*
X7Y1879D01*
X2699Y1879D02*
X2699Y1879D01*
X7Y1878D02*
X7Y1878D01*
X2699Y1878D02*
X2699Y1878D01*
X7Y1877D02*
X7Y1877D01*
X2699Y1877D02*
X2699Y1877D01*
X7Y1876D02*
X7Y1876D01*
X2699Y1876D02*
X2699Y1876D01*
X7Y1875D02*
X7Y1875D01*
X2699Y1875D02*
X2699Y1875D01*
X7Y1874D02*
X7Y1874D01*
X2699Y1874D02*
X2699Y1874D01*
X7Y1873D02*
X7Y1873D01*
X2699Y1873D02*
X2699Y1873D01*
X7Y1872D02*
X7Y1872D01*
X2699Y1872D02*
X2699Y1872D01*
X7Y1871D02*
X7Y1871D01*
X2699Y1871D02*
X2699Y1871D01*
X7Y1870D02*
X7Y1870D01*
X2699Y1870D02*
X2699Y1870D01*
X7Y1869D02*
X7Y1869D01*
X2699Y1869D02*
X2699Y1869D01*
X7Y1868D02*
X7Y1868D01*
X2699Y1868D02*
X2699Y1868D01*
X7Y1867D02*
X7Y1867D01*
X2699Y1867D02*
X2699Y1867D01*
X7Y1866D02*
X7Y1866D01*
X2699Y1866D02*
X2699Y1866D01*
X7Y1865D02*
X7Y1865D01*
X2699Y1865D02*
X2699Y1865D01*
X7Y1864D02*
X7Y1864D01*
X2699Y1864D02*
X2699Y1864D01*
X7Y1863D02*
X7Y1863D01*
X2699Y1863D02*
X2699Y1863D01*
X7Y1862D02*
X7Y1862D01*
X2699Y1862D02*
X2699Y1862D01*
X7Y1861D02*
X7Y1861D01*
X2699Y1861D02*
X2699Y1861D01*
X7Y1860D02*
X7Y1860D01*
X2699Y1860D02*
X2699Y1860D01*
X7Y1859D02*
X7Y1859D01*
X2699Y1859D02*
X2699Y1859D01*
X7Y1858D02*
X7Y1858D01*
X2699Y1858D02*
X2699Y1858D01*
X7Y1857D02*
X7Y1857D01*
X2699Y1857D02*
X2699Y1857D01*
X7Y1856D02*
X7Y1856D01*
X2699Y1856D02*
X2699Y1856D01*
X7Y1855D02*
X7Y1855D01*
X2699Y1855D02*
X2699Y1855D01*
X7Y1854D02*
X7Y1854D01*
X2699Y1854D02*
X2699Y1854D01*
X7Y1853D02*
X7Y1853D01*
X2699Y1853D02*
X2699Y1853D01*
X7Y1852D02*
X7Y1852D01*
X2699Y1852D02*
X2699Y1852D01*
X7Y1851D02*
X7Y1851D01*
X2699Y1851D02*
X2699Y1851D01*
X7Y1850D02*
X7Y1850D01*
X2699Y1850D02*
X2699Y1850D01*
X7Y1849D02*
X7Y1849D01*
X2699Y1849D02*
X2699Y1849D01*
X7Y1848D02*
X7Y1848D01*
X2699Y1848D02*
X2699Y1848D01*
X7Y1847D02*
X7Y1847D01*
X2699Y1847D02*
X2699Y1847D01*
X7Y1846D02*
X7Y1846D01*
X2699Y1846D02*
X2699Y1846D01*
X7Y1845D02*
X7Y1845D01*
X2699Y1845D02*
X2699Y1845D01*
X7Y1844D02*
X7Y1844D01*
X2699Y1844D02*
X2699Y1844D01*
X7Y1843D02*
X7Y1843D01*
X2699Y1843D02*
X2699Y1843D01*
X7Y1842D02*
X7Y1842D01*
X2699Y1842D02*
X2699Y1842D01*
X7Y1841D02*
X7Y1841D01*
X2699Y1841D02*
X2699Y1841D01*
X7Y1840D02*
X7Y1840D01*
X2699Y1840D02*
X2699Y1840D01*
X7Y1839D02*
X7Y1839D01*
X2699Y1839D02*
X2699Y1839D01*
X7Y1838D02*
X7Y1838D01*
X2699Y1838D02*
X2699Y1838D01*
X7Y1837D02*
X7Y1837D01*
X2699Y1837D02*
X2699Y1837D01*
X7Y1836D02*
X7Y1836D01*
X2699Y1836D02*
X2699Y1836D01*
X7Y1835D02*
X7Y1835D01*
X2699Y1835D02*
X2699Y1835D01*
X7Y1834D02*
X7Y1834D01*
X2699Y1834D02*
X2699Y1834D01*
X7Y1833D02*
X7Y1833D01*
X2699Y1833D02*
X2699Y1833D01*
X7Y1832D02*
X7Y1832D01*
X2699Y1832D02*
X2699Y1832D01*
X7Y1831D02*
X7Y1831D01*
X2699Y1831D02*
X2699Y1831D01*
X7Y1830D02*
X7Y1830D01*
X2699Y1830D02*
X2699Y1830D01*
X7Y1829D02*
X7Y1829D01*
X2699Y1829D02*
X2699Y1829D01*
X7Y1828D02*
X7Y1828D01*
X2699Y1828D02*
X2699Y1828D01*
X7Y1827D02*
X7Y1827D01*
X2699Y1827D02*
X2699Y1827D01*
X7Y1826D02*
X7Y1826D01*
X2699Y1826D02*
X2699Y1826D01*
X7Y1825D02*
X7Y1825D01*
X2699Y1825D02*
X2699Y1825D01*
X7Y1824D02*
X7Y1824D01*
X2699Y1824D02*
X2699Y1824D01*
X7Y1823D02*
X7Y1823D01*
X2699Y1823D02*
X2699Y1823D01*
X7Y1822D02*
X7Y1822D01*
X2699Y1822D02*
X2699Y1822D01*
X7Y1821D02*
X7Y1821D01*
X2699Y1821D02*
X2699Y1821D01*
X7Y1820D02*
X7Y1820D01*
X2699Y1820D02*
X2699Y1820D01*
X7Y1819D02*
X7Y1819D01*
X2699Y1819D02*
X2699Y1819D01*
X7Y1818D02*
X7Y1818D01*
X2699Y1818D02*
X2699Y1818D01*
X7Y1817D02*
X7Y1817D01*
X2699Y1817D02*
X2699Y1817D01*
X7Y1816D02*
X7Y1816D01*
X2699Y1816D02*
X2699Y1816D01*
X7Y1815D02*
X7Y1815D01*
X2699Y1815D02*
X2699Y1815D01*
X7Y1814D02*
X7Y1814D01*
X2699Y1814D02*
X2699Y1814D01*
X7Y1813D02*
X7Y1813D01*
X2699Y1813D02*
X2699Y1813D01*
X7Y1812D02*
X7Y1812D01*
X2699Y1812D02*
X2699Y1812D01*
X7Y1811D02*
X7Y1811D01*
X2699Y1811D02*
X2699Y1811D01*
X7Y1810D02*
X7Y1810D01*
X2699Y1810D02*
X2699Y1810D01*
X7Y1809D02*
X7Y1809D01*
X2699Y1809D02*
X2699Y1809D01*
X7Y1808D02*
X7Y1808D01*
X2699Y1808D02*
X2699Y1808D01*
X7Y1807D02*
X7Y1807D01*
X2699Y1807D02*
X2699Y1807D01*
X7Y1806D02*
X7Y1806D01*
X2699Y1806D02*
X2699Y1806D01*
X7Y1805D02*
X7Y1805D01*
X2699Y1805D02*
X2699Y1805D01*
X7Y1804D02*
X7Y1804D01*
X2699Y1804D02*
X2699Y1804D01*
X7Y1803D02*
X7Y1803D01*
X2699Y1803D02*
X2699Y1803D01*
X7Y1802D02*
X7Y1802D01*
X2699Y1802D02*
X2699Y1802D01*
X7Y1801D02*
X7Y1801D01*
X2699Y1801D02*
X2699Y1801D01*
X7Y1800D02*
X7Y1800D01*
X2699Y1800D02*
X2699Y1800D01*
X7Y1799D02*
X7Y1799D01*
X2699Y1799D02*
X2699Y1799D01*
X7Y1798D02*
X7Y1798D01*
X2699Y1798D02*
X2699Y1798D01*
X7Y1797D02*
X7Y1797D01*
X2699Y1797D02*
X2699Y1797D01*
X7Y1796D02*
X7Y1796D01*
X2699Y1796D02*
X2699Y1796D01*
X7Y1795D02*
X7Y1795D01*
X2699Y1795D02*
X2699Y1795D01*
X7Y1794D02*
X7Y1794D01*
X2699Y1794D02*
X2699Y1794D01*
X7Y1793D02*
X7Y1793D01*
X2699Y1793D02*
X2699Y1793D01*
X7Y1792D02*
X7Y1792D01*
X2699Y1792D02*
X2699Y1792D01*
X7Y1791D02*
X7Y1791D01*
X2699Y1791D02*
X2699Y1791D01*
X7Y1790D02*
X7Y1790D01*
X2699Y1790D02*
X2699Y1790D01*
X7Y1789D02*
X7Y1789D01*
X2699Y1789D02*
X2699Y1789D01*
X7Y1788D02*
X7Y1788D01*
X2699Y1788D02*
X2699Y1788D01*
X7Y1787D02*
X7Y1787D01*
X2699Y1787D02*
X2699Y1787D01*
X7Y1786D02*
X7Y1786D01*
X2699Y1786D02*
X2699Y1786D01*
X7Y1785D02*
X7Y1785D01*
X2699Y1785D02*
X2699Y1785D01*
X7Y1784D02*
X7Y1784D01*
X2699Y1784D02*
X2699Y1784D01*
X7Y1783D02*
X7Y1783D01*
X2699Y1783D02*
X2699Y1783D01*
X7Y1782D02*
X7Y1782D01*
X2699Y1782D02*
X2699Y1782D01*
X7Y1781D02*
X7Y1781D01*
X2699Y1781D02*
X2699Y1781D01*
X7Y1780D02*
X7Y1780D01*
X2699Y1780D02*
X2699Y1780D01*
X7Y1779D02*
X7Y1779D01*
X2699Y1779D02*
X2699Y1779D01*
X7Y1778D02*
X7Y1778D01*
X2699Y1778D02*
X2699Y1778D01*
X7Y1777D02*
X7Y1777D01*
X2699Y1777D02*
X2699Y1777D01*
X7Y1776D02*
X7Y1776D01*
X2699Y1776D02*
X2699Y1776D01*
X7Y1775D02*
X7Y1775D01*
X2699Y1775D02*
X2699Y1775D01*
X7Y1774D02*
X7Y1774D01*
X2699Y1774D02*
X2699Y1774D01*
X7Y1773D02*
X7Y1773D01*
X2699Y1773D02*
X2699Y1773D01*
X7Y1772D02*
X7Y1772D01*
X2699Y1772D02*
X2699Y1772D01*
X7Y1771D02*
X7Y1771D01*
X2699Y1771D02*
X2699Y1771D01*
X7Y1770D02*
X7Y1770D01*
X2699Y1770D02*
X2699Y1770D01*
X7Y1769D02*
X7Y1769D01*
X2699Y1769D02*
X2699Y1769D01*
X7Y1768D02*
X7Y1768D01*
X2699Y1768D02*
X2699Y1768D01*
X7Y1767D02*
X7Y1767D01*
X2699Y1767D02*
X2699Y1767D01*
X7Y1766D02*
X7Y1766D01*
X2699Y1766D02*
X2699Y1766D01*
X7Y1765D02*
X7Y1765D01*
X2699Y1765D02*
X2699Y1765D01*
X7Y1764D02*
X7Y1764D01*
X2699Y1764D02*
X2699Y1764D01*
X7Y1763D02*
X7Y1763D01*
X2699Y1763D02*
X2699Y1763D01*
X7Y1762D02*
X7Y1762D01*
X2699Y1762D02*
X2699Y1762D01*
X7Y1761D02*
X7Y1761D01*
X2699Y1761D02*
X2699Y1761D01*
X7Y1760D02*
X7Y1760D01*
X2699Y1760D02*
X2699Y1760D01*
X7Y1759D02*
X7Y1759D01*
X2699Y1759D02*
X2699Y1759D01*
X7Y1758D02*
X7Y1758D01*
X2699Y1758D02*
X2699Y1758D01*
X7Y1757D02*
X7Y1757D01*
X2699Y1757D02*
X2699Y1757D01*
X7Y1756D02*
X7Y1756D01*
X2699Y1756D02*
X2699Y1756D01*
X7Y1755D02*
X7Y1755D01*
X2699Y1755D02*
X2699Y1755D01*
X7Y1754D02*
X7Y1754D01*
X2699Y1754D02*
X2699Y1754D01*
X7Y1753D02*
X7Y1753D01*
X2699Y1753D02*
X2699Y1753D01*
X7Y1752D02*
X7Y1752D01*
X2699Y1752D02*
X2699Y1752D01*
X7Y1751D02*
X7Y1751D01*
X2699Y1751D02*
X2699Y1751D01*
X7Y1750D02*
X7Y1750D01*
X2699Y1750D02*
X2699Y1750D01*
X7Y1749D02*
X7Y1749D01*
X2699Y1749D02*
X2699Y1749D01*
X7Y1748D02*
X7Y1748D01*
X2699Y1748D02*
X2699Y1748D01*
X7Y1747D02*
X7Y1747D01*
X2699Y1747D02*
X2699Y1747D01*
X7Y1746D02*
X7Y1746D01*
X2699Y1746D02*
X2699Y1746D01*
X7Y1745D02*
X7Y1745D01*
X2699Y1745D02*
X2699Y1745D01*
X7Y1744D02*
X7Y1744D01*
X2699Y1744D02*
X2699Y1744D01*
X7Y1743D02*
X7Y1743D01*
X2699Y1743D02*
X2699Y1743D01*
X7Y1742D02*
X7Y1742D01*
X2699Y1742D02*
X2699Y1742D01*
X7Y1741D02*
X7Y1741D01*
X2699Y1741D02*
X2699Y1741D01*
X7Y1740D02*
X7Y1740D01*
X2699Y1740D02*
X2699Y1740D01*
X7Y1739D02*
X7Y1739D01*
X2699Y1739D02*
X2699Y1739D01*
X7Y1738D02*
X7Y1738D01*
X2699Y1738D02*
X2699Y1738D01*
X7Y1737D02*
X7Y1737D01*
X2699Y1737D02*
X2699Y1737D01*
X7Y1736D02*
X7Y1736D01*
X2699Y1736D02*
X2699Y1736D01*
X7Y1735D02*
X7Y1735D01*
X2699Y1735D02*
X2699Y1735D01*
X7Y1734D02*
X7Y1734D01*
X2699Y1734D02*
X2699Y1734D01*
X7Y1733D02*
X7Y1733D01*
X2699Y1733D02*
X2699Y1733D01*
X7Y1732D02*
X7Y1732D01*
X2699Y1732D02*
X2699Y1732D01*
X7Y1731D02*
X7Y1731D01*
X2699Y1731D02*
X2699Y1731D01*
X7Y1730D02*
X7Y1730D01*
X2699Y1730D02*
X2699Y1730D01*
X7Y1729D02*
X7Y1729D01*
X2699Y1729D02*
X2699Y1729D01*
X7Y1728D02*
X7Y1728D01*
X2699Y1728D02*
X2699Y1728D01*
X7Y1727D02*
X7Y1727D01*
X2699Y1727D02*
X2699Y1727D01*
X7Y1726D02*
X7Y1726D01*
X2699Y1726D02*
X2699Y1726D01*
X7Y1725D02*
X7Y1725D01*
X2699Y1725D02*
X2699Y1725D01*
X7Y1724D02*
X7Y1724D01*
X2699Y1724D02*
X2699Y1724D01*
X7Y1723D02*
X7Y1723D01*
X2699Y1723D02*
X2699Y1723D01*
X7Y1722D02*
X7Y1722D01*
X2699Y1722D02*
X2699Y1722D01*
X7Y1721D02*
X7Y1721D01*
X2699Y1721D02*
X2699Y1721D01*
X7Y1720D02*
X7Y1720D01*
X2699Y1720D02*
X2699Y1720D01*
X7Y1719D02*
X7Y1719D01*
X2699Y1719D02*
X2699Y1719D01*
X7Y1718D02*
X7Y1718D01*
X2699Y1718D02*
X2699Y1718D01*
X7Y1717D02*
X7Y1717D01*
X2699Y1717D02*
X2699Y1717D01*
X7Y1716D02*
X7Y1716D01*
X2699Y1716D02*
X2699Y1716D01*
X7Y1715D02*
X7Y1715D01*
X2699Y1715D02*
X2699Y1715D01*
X7Y1714D02*
X7Y1714D01*
X2699Y1714D02*
X2699Y1714D01*
X7Y1713D02*
X7Y1713D01*
X2699Y1713D02*
X2699Y1713D01*
X7Y1712D02*
X7Y1712D01*
X2699Y1712D02*
X2699Y1712D01*
X7Y1711D02*
X7Y1711D01*
X2699Y1711D02*
X2699Y1711D01*
X7Y1710D02*
X7Y1710D01*
X2699Y1710D02*
X2699Y1710D01*
X7Y1709D02*
X7Y1709D01*
X2699Y1709D02*
X2699Y1709D01*
X7Y1708D02*
X7Y1708D01*
X2699Y1708D02*
X2699Y1708D01*
X7Y1707D02*
X7Y1707D01*
X2699Y1707D02*
X2699Y1707D01*
X7Y1706D02*
X7Y1706D01*
X2699Y1706D02*
X2699Y1706D01*
X7Y1705D02*
X7Y1705D01*
X2699Y1705D02*
X2699Y1705D01*
X7Y1704D02*
X7Y1704D01*
X2699Y1704D02*
X2699Y1704D01*
X7Y1703D02*
X7Y1703D01*
X2699Y1703D02*
X2699Y1703D01*
X7Y1702D02*
X7Y1702D01*
X2699Y1702D02*
X2699Y1702D01*
X7Y1701D02*
X7Y1701D01*
X2699Y1701D02*
X2699Y1701D01*
X7Y1700D02*
X7Y1700D01*
X2699Y1700D02*
X2699Y1700D01*
X7Y1699D02*
X7Y1699D01*
X2699Y1699D02*
X2699Y1699D01*
X7Y1698D02*
X7Y1698D01*
X2699Y1698D02*
X2699Y1698D01*
X7Y1697D02*
X7Y1697D01*
X2699Y1697D02*
X2699Y1697D01*
X7Y1696D02*
X7Y1696D01*
X2699Y1696D02*
X2699Y1696D01*
X7Y1695D02*
X7Y1695D01*
X2699Y1695D02*
X2699Y1695D01*
X7Y1694D02*
X7Y1694D01*
X2699Y1694D02*
X2699Y1694D01*
X7Y1693D02*
X7Y1693D01*
X2699Y1693D02*
X2699Y1693D01*
X7Y1692D02*
X7Y1692D01*
X2699Y1692D02*
X2699Y1692D01*
X7Y1691D02*
X7Y1691D01*
X2699Y1691D02*
X2699Y1691D01*
X7Y1690D02*
X7Y1690D01*
X2699Y1690D02*
X2699Y1690D01*
X7Y1689D02*
X7Y1689D01*
X2699Y1689D02*
X2699Y1689D01*
X7Y1688D02*
X7Y1688D01*
X2699Y1688D02*
X2699Y1688D01*
X7Y1687D02*
X7Y1687D01*
X2699Y1687D02*
X2699Y1687D01*
X7Y1686D02*
X7Y1686D01*
X2699Y1686D02*
X2699Y1686D01*
X7Y1685D02*
X7Y1685D01*
X2699Y1685D02*
X2699Y1685D01*
X7Y1684D02*
X7Y1684D01*
X2699Y1684D02*
X2699Y1684D01*
X7Y1683D02*
X7Y1683D01*
X2699Y1683D02*
X2699Y1683D01*
X7Y1682D02*
X7Y1682D01*
X2699Y1682D02*
X2699Y1682D01*
X7Y1681D02*
X7Y1681D01*
X2699Y1681D02*
X2699Y1681D01*
X7Y1680D02*
X7Y1680D01*
X2699Y1680D02*
X2699Y1680D01*
X7Y1679D02*
X7Y1679D01*
X2699Y1679D02*
X2699Y1679D01*
X7Y1678D02*
X7Y1678D01*
X2699Y1678D02*
X2699Y1678D01*
X7Y1677D02*
X7Y1677D01*
X2699Y1677D02*
X2699Y1677D01*
X7Y1676D02*
X7Y1676D01*
X2699Y1676D02*
X2699Y1676D01*
X7Y1675D02*
X7Y1675D01*
X2699Y1675D02*
X2699Y1675D01*
X7Y1674D02*
X7Y1674D01*
X2699Y1674D02*
X2699Y1674D01*
X7Y1673D02*
X7Y1673D01*
X2699Y1673D02*
X2699Y1673D01*
X7Y1672D02*
X7Y1672D01*
X2699Y1672D02*
X2699Y1672D01*
X7Y1671D02*
X7Y1671D01*
X2699Y1671D02*
X2699Y1671D01*
X7Y1670D02*
X7Y1670D01*
X2699Y1670D02*
X2699Y1670D01*
X7Y1669D02*
X7Y1669D01*
X2699Y1669D02*
X2699Y1669D01*
X7Y1668D02*
X7Y1668D01*
X2699Y1668D02*
X2699Y1668D01*
X7Y1667D02*
X7Y1667D01*
X2699Y1667D02*
X2699Y1667D01*
X7Y1666D02*
X7Y1666D01*
X2699Y1666D02*
X2699Y1666D01*
X7Y1665D02*
X7Y1665D01*
X2699Y1665D02*
X2699Y1665D01*
X7Y1664D02*
X7Y1664D01*
X2699Y1664D02*
X2699Y1664D01*
X7Y1663D02*
X7Y1663D01*
X2699Y1663D02*
X2699Y1663D01*
X7Y1662D02*
X7Y1662D01*
X2699Y1662D02*
X2699Y1662D01*
X7Y1661D02*
X7Y1661D01*
X2699Y1661D02*
X2699Y1661D01*
X7Y1660D02*
X7Y1660D01*
X2699Y1660D02*
X2699Y1660D01*
X7Y1659D02*
X7Y1659D01*
X2699Y1659D02*
X2699Y1659D01*
X7Y1658D02*
X7Y1658D01*
X2699Y1658D02*
X2699Y1658D01*
X7Y1657D02*
X7Y1657D01*
X2699Y1657D02*
X2699Y1657D01*
X7Y1656D02*
X7Y1656D01*
X2699Y1656D02*
X2699Y1656D01*
X7Y1655D02*
X7Y1655D01*
X2699Y1655D02*
X2699Y1655D01*
X7Y1654D02*
X7Y1654D01*
X2699Y1654D02*
X2699Y1654D01*
X7Y1653D02*
X7Y1653D01*
X2699Y1653D02*
X2699Y1653D01*
X7Y1652D02*
X7Y1652D01*
X2699Y1652D02*
X2699Y1652D01*
X7Y1651D02*
X7Y1651D01*
X2699Y1651D02*
X2699Y1651D01*
X7Y1650D02*
X7Y1650D01*
X2699Y1650D02*
X2699Y1650D01*
X7Y1649D02*
X7Y1649D01*
X2699Y1649D02*
X2699Y1649D01*
X7Y1648D02*
X7Y1648D01*
X2699Y1648D02*
X2699Y1648D01*
X7Y1647D02*
X7Y1647D01*
X2699Y1647D02*
X2699Y1647D01*
X7Y1646D02*
X7Y1646D01*
X2699Y1646D02*
X2699Y1646D01*
X7Y1645D02*
X7Y1645D01*
X2699Y1645D02*
X2699Y1645D01*
X7Y1644D02*
X7Y1644D01*
X2699Y1644D02*
X2699Y1644D01*
X7Y1643D02*
X7Y1643D01*
X2699Y1643D02*
X2699Y1643D01*
X7Y1642D02*
X7Y1642D01*
X2699Y1642D02*
X2699Y1642D01*
X7Y1641D02*
X7Y1641D01*
X2699Y1641D02*
X2699Y1641D01*
X7Y1640D02*
X7Y1640D01*
X2699Y1640D02*
X2699Y1640D01*
X7Y1639D02*
X7Y1639D01*
X2699Y1639D02*
X2699Y1639D01*
X7Y1638D02*
X7Y1638D01*
X2699Y1638D02*
X2699Y1638D01*
X7Y1637D02*
X7Y1637D01*
X2699Y1637D02*
X2699Y1637D01*
X7Y1636D02*
X7Y1636D01*
X2699Y1636D02*
X2699Y1636D01*
X7Y1635D02*
X7Y1635D01*
X2699Y1635D02*
X2699Y1635D01*
X7Y1634D02*
X7Y1634D01*
X2699Y1634D02*
X2699Y1634D01*
X7Y1633D02*
X7Y1633D01*
X2699Y1633D02*
X2699Y1633D01*
X7Y1632D02*
X7Y1632D01*
X2699Y1632D02*
X2699Y1632D01*
X7Y1631D02*
X7Y1631D01*
X2699Y1631D02*
X2699Y1631D01*
X7Y1630D02*
X7Y1630D01*
X2699Y1630D02*
X2699Y1630D01*
X7Y1629D02*
X7Y1629D01*
X2699Y1629D02*
X2699Y1629D01*
X7Y1628D02*
X7Y1628D01*
X2699Y1628D02*
X2699Y1628D01*
X7Y1627D02*
X7Y1627D01*
X2699Y1627D02*
X2699Y1627D01*
X7Y1626D02*
X7Y1626D01*
X2699Y1626D02*
X2699Y1626D01*
X7Y1625D02*
X7Y1625D01*
X2699Y1625D02*
X2699Y1625D01*
X7Y1624D02*
X7Y1624D01*
X2699Y1624D02*
X2699Y1624D01*
X7Y1623D02*
X7Y1623D01*
X2699Y1623D02*
X2699Y1623D01*
X7Y1622D02*
X7Y1622D01*
X2699Y1622D02*
X2699Y1622D01*
X7Y1621D02*
X7Y1621D01*
X2699Y1621D02*
X2699Y1621D01*
X7Y1620D02*
X7Y1620D01*
X2699Y1620D02*
X2699Y1620D01*
X7Y1619D02*
X7Y1619D01*
X2699Y1619D02*
X2699Y1619D01*
X7Y1618D02*
X7Y1618D01*
X2699Y1618D02*
X2699Y1618D01*
X7Y1617D02*
X7Y1617D01*
X2699Y1617D02*
X2699Y1617D01*
X7Y1616D02*
X7Y1616D01*
X2699Y1616D02*
X2699Y1616D01*
X7Y1615D02*
X7Y1615D01*
X2699Y1615D02*
X2699Y1615D01*
X7Y1614D02*
X7Y1614D01*
X2699Y1614D02*
X2699Y1614D01*
X7Y1613D02*
X7Y1613D01*
X2699Y1613D02*
X2699Y1613D01*
X7Y1612D02*
X7Y1612D01*
X2699Y1612D02*
X2699Y1612D01*
X7Y1611D02*
X7Y1611D01*
X2699Y1611D02*
X2699Y1611D01*
X7Y1610D02*
X7Y1610D01*
X2699Y1610D02*
X2699Y1610D01*
X7Y1609D02*
X7Y1609D01*
X2699Y1609D02*
X2699Y1609D01*
X7Y1608D02*
X7Y1608D01*
X2699Y1608D02*
X2699Y1608D01*
X7Y1607D02*
X7Y1607D01*
X2699Y1607D02*
X2699Y1607D01*
X7Y1606D02*
X7Y1606D01*
X2699Y1606D02*
X2699Y1606D01*
X7Y1605D02*
X7Y1605D01*
X2699Y1605D02*
X2699Y1605D01*
X7Y1604D02*
X7Y1604D01*
X2699Y1604D02*
X2699Y1604D01*
X7Y1603D02*
X7Y1603D01*
X2699Y1603D02*
X2699Y1603D01*
X7Y1602D02*
X7Y1602D01*
X2699Y1602D02*
X2699Y1602D01*
X7Y1601D02*
X7Y1601D01*
X2699Y1601D02*
X2699Y1601D01*
X7Y1600D02*
X7Y1600D01*
X2699Y1600D02*
X2699Y1600D01*
X7Y1599D02*
X7Y1599D01*
X2699Y1599D02*
X2699Y1599D01*
X7Y1598D02*
X7Y1598D01*
X2699Y1598D02*
X2699Y1598D01*
X7Y1597D02*
X7Y1597D01*
X2699Y1597D02*
X2699Y1597D01*
X7Y1596D02*
X7Y1596D01*
X2699Y1596D02*
X2699Y1596D01*
X7Y1595D02*
X7Y1595D01*
X2699Y1595D02*
X2699Y1595D01*
X7Y1594D02*
X7Y1594D01*
X2699Y1594D02*
X2699Y1594D01*
X7Y1593D02*
X7Y1593D01*
X2699Y1593D02*
X2699Y1593D01*
X7Y1592D02*
X7Y1592D01*
X2699Y1592D02*
X2699Y1592D01*
X7Y1591D02*
X7Y1591D01*
X2699Y1591D02*
X2699Y1591D01*
X7Y1590D02*
X7Y1590D01*
X2699Y1590D02*
X2699Y1590D01*
X7Y1589D02*
X7Y1589D01*
X2699Y1589D02*
X2699Y1589D01*
X7Y1588D02*
X7Y1588D01*
X2699Y1588D02*
X2699Y1588D01*
X7Y1587D02*
X7Y1587D01*
X2699Y1587D02*
X2699Y1587D01*
X7Y1586D02*
X7Y1586D01*
X2699Y1586D02*
X2699Y1586D01*
X7Y1585D02*
X7Y1585D01*
X2699Y1585D02*
X2699Y1585D01*
X7Y1584D02*
X7Y1584D01*
X2699Y1584D02*
X2699Y1584D01*
X7Y1583D02*
X7Y1583D01*
X2699Y1583D02*
X2699Y1583D01*
X7Y1582D02*
X7Y1582D01*
X2699Y1582D02*
X2699Y1582D01*
X7Y1581D02*
X7Y1581D01*
X2699Y1581D02*
X2699Y1581D01*
X7Y1580D02*
X7Y1580D01*
X2699Y1580D02*
X2699Y1580D01*
X7Y1579D02*
X7Y1579D01*
X2699Y1579D02*
X2699Y1579D01*
X7Y1578D02*
X7Y1578D01*
X2699Y1578D02*
X2699Y1578D01*
X7Y1577D02*
X7Y1577D01*
X2699Y1577D02*
X2699Y1577D01*
X7Y1576D02*
X7Y1576D01*
X2699Y1576D02*
X2699Y1576D01*
X7Y1575D02*
X7Y1575D01*
X2699Y1575D02*
X2699Y1575D01*
X7Y1574D02*
X7Y1574D01*
X2699Y1574D02*
X2699Y1574D01*
X7Y1573D02*
X7Y1573D01*
X2699Y1573D02*
X2699Y1573D01*
X7Y1572D02*
X7Y1572D01*
X2699Y1572D02*
X2699Y1572D01*
X7Y1571D02*
X7Y1571D01*
X2699Y1571D02*
X2699Y1571D01*
X7Y1570D02*
X7Y1570D01*
X2699Y1570D02*
X2699Y1570D01*
X7Y1569D02*
X7Y1569D01*
X2699Y1569D02*
X2699Y1569D01*
X7Y1568D02*
X7Y1568D01*
X2699Y1568D02*
X2699Y1568D01*
X7Y1567D02*
X7Y1567D01*
X2699Y1567D02*
X2699Y1567D01*
X7Y1566D02*
X7Y1566D01*
X2699Y1566D02*
X2699Y1566D01*
X7Y1565D02*
X7Y1565D01*
X2699Y1565D02*
X2699Y1565D01*
X7Y1564D02*
X7Y1564D01*
X2699Y1564D02*
X2699Y1564D01*
X7Y1563D02*
X7Y1563D01*
X2699Y1563D02*
X2699Y1563D01*
X7Y1562D02*
X7Y1562D01*
X2699Y1562D02*
X2699Y1562D01*
X7Y1561D02*
X7Y1561D01*
X2699Y1561D02*
X2699Y1561D01*
X7Y1560D02*
X7Y1560D01*
X2699Y1560D02*
X2699Y1560D01*
X7Y1559D02*
X7Y1559D01*
X2699Y1559D02*
X2699Y1559D01*
X7Y1558D02*
X7Y1558D01*
X2699Y1558D02*
X2699Y1558D01*
X7Y1557D02*
X7Y1557D01*
X2699Y1557D02*
X2699Y1557D01*
X7Y1556D02*
X7Y1556D01*
X2699Y1556D02*
X2699Y1556D01*
X7Y1555D02*
X7Y1555D01*
X2699Y1555D02*
X2699Y1555D01*
X7Y1554D02*
X7Y1554D01*
X2699Y1554D02*
X2699Y1554D01*
X7Y1553D02*
X7Y1553D01*
X2699Y1553D02*
X2699Y1553D01*
X7Y1552D02*
X7Y1552D01*
X2699Y1552D02*
X2699Y1552D01*
X7Y1551D02*
X7Y1551D01*
X2699Y1551D02*
X2699Y1551D01*
X7Y1550D02*
X7Y1550D01*
X2699Y1550D02*
X2699Y1550D01*
X7Y1549D02*
X7Y1549D01*
X2699Y1549D02*
X2699Y1549D01*
X7Y1548D02*
X7Y1548D01*
X2699Y1548D02*
X2699Y1548D01*
X7Y1547D02*
X7Y1547D01*
X2699Y1547D02*
X2699Y1547D01*
X7Y1546D02*
X7Y1546D01*
X2699Y1546D02*
X2699Y1546D01*
X7Y1545D02*
X7Y1545D01*
X2699Y1545D02*
X2699Y1545D01*
X7Y1544D02*
X7Y1544D01*
X2699Y1544D02*
X2699Y1544D01*
X7Y1543D02*
X7Y1543D01*
X2699Y1543D02*
X2699Y1543D01*
X7Y1542D02*
X7Y1542D01*
X2699Y1542D02*
X2699Y1542D01*
X7Y1541D02*
X7Y1541D01*
X2699Y1541D02*
X2699Y1541D01*
X7Y1540D02*
X7Y1540D01*
X2699Y1540D02*
X2699Y1540D01*
X7Y1539D02*
X7Y1539D01*
X2699Y1539D02*
X2699Y1539D01*
X7Y1538D02*
X7Y1538D01*
X2699Y1538D02*
X2699Y1538D01*
X7Y1537D02*
X7Y1537D01*
X2699Y1537D02*
X2699Y1537D01*
X7Y1536D02*
X7Y1536D01*
X2699Y1536D02*
X2699Y1536D01*
X7Y1535D02*
X7Y1535D01*
X2699Y1535D02*
X2699Y1535D01*
X7Y1534D02*
X7Y1534D01*
X2699Y1534D02*
X2699Y1534D01*
X7Y1533D02*
X7Y1533D01*
X2699Y1533D02*
X2699Y1533D01*
X7Y1532D02*
X7Y1532D01*
X2699Y1532D02*
X2699Y1532D01*
X7Y1531D02*
X7Y1531D01*
X2699Y1531D02*
X2699Y1531D01*
X7Y1530D02*
X7Y1530D01*
X2699Y1530D02*
X2699Y1530D01*
X7Y1529D02*
X7Y1529D01*
X2699Y1529D02*
X2699Y1529D01*
X7Y1528D02*
X7Y1528D01*
X2699Y1528D02*
X2699Y1528D01*
X7Y1527D02*
X7Y1527D01*
X2699Y1527D02*
X2699Y1527D01*
X7Y1526D02*
X7Y1526D01*
X2699Y1526D02*
X2699Y1526D01*
X7Y1525D02*
X7Y1525D01*
X2699Y1525D02*
X2699Y1525D01*
X7Y1524D02*
X7Y1524D01*
X2699Y1524D02*
X2699Y1524D01*
X7Y1523D02*
X7Y1523D01*
X2699Y1523D02*
X2699Y1523D01*
X7Y1522D02*
X7Y1522D01*
X2699Y1522D02*
X2699Y1522D01*
X7Y1521D02*
X7Y1521D01*
X2699Y1521D02*
X2699Y1521D01*
X7Y1520D02*
X7Y1520D01*
X2699Y1520D02*
X2699Y1520D01*
X7Y1519D02*
X7Y1519D01*
X2699Y1519D02*
X2699Y1519D01*
X7Y1518D02*
X7Y1518D01*
X2699Y1518D02*
X2699Y1518D01*
X7Y1517D02*
X7Y1517D01*
X2699Y1517D02*
X2699Y1517D01*
X7Y1516D02*
X7Y1516D01*
X2699Y1516D02*
X2699Y1516D01*
X7Y1515D02*
X7Y1515D01*
X2699Y1515D02*
X2699Y1515D01*
X7Y1514D02*
X7Y1514D01*
X2699Y1514D02*
X2699Y1514D01*
X7Y1513D02*
X7Y1513D01*
X2699Y1513D02*
X2699Y1513D01*
X7Y1512D02*
X7Y1512D01*
X2699Y1512D02*
X2699Y1512D01*
X7Y1511D02*
X7Y1511D01*
X2699Y1511D02*
X2699Y1511D01*
X7Y1510D02*
X7Y1510D01*
X2699Y1510D02*
X2699Y1510D01*
X7Y1509D02*
X7Y1509D01*
X2699Y1509D02*
X2699Y1509D01*
X7Y1508D02*
X7Y1508D01*
X2699Y1508D02*
X2699Y1508D01*
X7Y1507D02*
X7Y1507D01*
X2699Y1507D02*
X2699Y1507D01*
X7Y1506D02*
X7Y1506D01*
X2699Y1506D02*
X2699Y1506D01*
X7Y1505D02*
X7Y1505D01*
X2699Y1505D02*
X2699Y1505D01*
X7Y1504D02*
X7Y1504D01*
X2699Y1504D02*
X2699Y1504D01*
X7Y1503D02*
X7Y1503D01*
X2699Y1503D02*
X2699Y1503D01*
X7Y1502D02*
X7Y1502D01*
X2699Y1502D02*
X2699Y1502D01*
X7Y1501D02*
X7Y1501D01*
X2699Y1501D02*
X2699Y1501D01*
X7Y1500D02*
X7Y1500D01*
X2699Y1500D02*
X2699Y1500D01*
X7Y1499D02*
X7Y1499D01*
X2699Y1499D02*
X2699Y1499D01*
X7Y1498D02*
X7Y1498D01*
X2699Y1498D02*
X2699Y1498D01*
X7Y1497D02*
X7Y1497D01*
X2699Y1497D02*
X2699Y1497D01*
X7Y1496D02*
X7Y1496D01*
X2699Y1496D02*
X2699Y1496D01*
X7Y1495D02*
X7Y1495D01*
X2699Y1495D02*
X2699Y1495D01*
X7Y1494D02*
X7Y1494D01*
X2699Y1494D02*
X2699Y1494D01*
X7Y1493D02*
X7Y1493D01*
X2699Y1493D02*
X2699Y1493D01*
X7Y1492D02*
X7Y1492D01*
X2699Y1492D02*
X2699Y1492D01*
X7Y1491D02*
X7Y1491D01*
X2699Y1491D02*
X2699Y1491D01*
X7Y1490D02*
X7Y1490D01*
X2699Y1490D02*
X2699Y1490D01*
X7Y1489D02*
X7Y1489D01*
X2699Y1489D02*
X2699Y1489D01*
X7Y1488D02*
X7Y1488D01*
X2699Y1488D02*
X2699Y1488D01*
X7Y1487D02*
X7Y1487D01*
X2699Y1487D02*
X2699Y1487D01*
X7Y1486D02*
X7Y1486D01*
X2699Y1486D02*
X2699Y1486D01*
X7Y1485D02*
X7Y1485D01*
X2699Y1485D02*
X2699Y1485D01*
X7Y1484D02*
X7Y1484D01*
X2699Y1484D02*
X2699Y1484D01*
X7Y1483D02*
X7Y1483D01*
X2699Y1483D02*
X2699Y1483D01*
X7Y1482D02*
X7Y1482D01*
X2699Y1482D02*
X2699Y1482D01*
X7Y1481D02*
X7Y1481D01*
X2699Y1481D02*
X2699Y1481D01*
X7Y1480D02*
X7Y1480D01*
X2699Y1480D02*
X2699Y1480D01*
X7Y1479D02*
X7Y1479D01*
X2699Y1479D02*
X2699Y1479D01*
X7Y1478D02*
X7Y1478D01*
X2699Y1478D02*
X2699Y1478D01*
X7Y1477D02*
X7Y1477D01*
X2699Y1477D02*
X2699Y1477D01*
X7Y1476D02*
X7Y1476D01*
X2699Y1476D02*
X2699Y1476D01*
X7Y1475D02*
X7Y1475D01*
X2699Y1475D02*
X2699Y1475D01*
X7Y1474D02*
X7Y1474D01*
X2699Y1474D02*
X2699Y1474D01*
X7Y1473D02*
X7Y1473D01*
X2699Y1473D02*
X2699Y1473D01*
X7Y1472D02*
X7Y1472D01*
X2699Y1472D02*
X2699Y1472D01*
X7Y1471D02*
X7Y1471D01*
X2699Y1471D02*
X2699Y1471D01*
X7Y1470D02*
X7Y1470D01*
X2699Y1470D02*
X2699Y1470D01*
X7Y1469D02*
X7Y1469D01*
X2699Y1469D02*
X2699Y1469D01*
X7Y1468D02*
X7Y1468D01*
X2699Y1468D02*
X2699Y1468D01*
X7Y1467D02*
X7Y1467D01*
X2699Y1467D02*
X2699Y1467D01*
X7Y1466D02*
X7Y1466D01*
X2699Y1466D02*
X2699Y1466D01*
X7Y1465D02*
X7Y1465D01*
X2699Y1465D02*
X2699Y1465D01*
X7Y1464D02*
X7Y1464D01*
X2699Y1464D02*
X2699Y1464D01*
X7Y1463D02*
X7Y1463D01*
X2699Y1463D02*
X2699Y1463D01*
X7Y1462D02*
X7Y1462D01*
X2699Y1462D02*
X2699Y1462D01*
X7Y1461D02*
X7Y1461D01*
X2699Y1461D02*
X2699Y1461D01*
X7Y1460D02*
X7Y1460D01*
X2699Y1460D02*
X2699Y1460D01*
X7Y1459D02*
X7Y1459D01*
X2699Y1459D02*
X2699Y1459D01*
X7Y1458D02*
X7Y1458D01*
X2699Y1458D02*
X2699Y1458D01*
X7Y1457D02*
X7Y1457D01*
X2699Y1457D02*
X2699Y1457D01*
X7Y1456D02*
X7Y1456D01*
X2699Y1456D02*
X2699Y1456D01*
X7Y1455D02*
X7Y1455D01*
X2699Y1455D02*
X2699Y1455D01*
X7Y1454D02*
X7Y1454D01*
X2699Y1454D02*
X2699Y1454D01*
X7Y1453D02*
X7Y1453D01*
X2699Y1453D02*
X2699Y1453D01*
X7Y1452D02*
X7Y1452D01*
X2699Y1452D02*
X2699Y1452D01*
X7Y1451D02*
X7Y1451D01*
X2699Y1451D02*
X2699Y1451D01*
X7Y1450D02*
X7Y1450D01*
X2699Y1450D02*
X2699Y1450D01*
X7Y1449D02*
X7Y1449D01*
X2699Y1449D02*
X2699Y1449D01*
X7Y1448D02*
X7Y1448D01*
X2699Y1448D02*
X2699Y1448D01*
X7Y1447D02*
X7Y1447D01*
X2699Y1447D02*
X2699Y1447D01*
X7Y1446D02*
X7Y1446D01*
X2699Y1446D02*
X2699Y1446D01*
X7Y1445D02*
X7Y1445D01*
X2699Y1445D02*
X2699Y1445D01*
X7Y1444D02*
X7Y1444D01*
X2699Y1444D02*
X2699Y1444D01*
X7Y1443D02*
X7Y1443D01*
X2699Y1443D02*
X2699Y1443D01*
X7Y1442D02*
X7Y1442D01*
X2699Y1442D02*
X2699Y1442D01*
X7Y1441D02*
X7Y1441D01*
X2699Y1441D02*
X2699Y1441D01*
X7Y1440D02*
X7Y1440D01*
X2699Y1440D02*
X2699Y1440D01*
X7Y1439D02*
X7Y1439D01*
X2699Y1439D02*
X2699Y1439D01*
X7Y1438D02*
X7Y1438D01*
X2699Y1438D02*
X2699Y1438D01*
X7Y1437D02*
X7Y1437D01*
X2699Y1437D02*
X2699Y1437D01*
X7Y1436D02*
X7Y1436D01*
X2699Y1436D02*
X2699Y1436D01*
X7Y1435D02*
X7Y1435D01*
X2699Y1435D02*
X2699Y1435D01*
X7Y1434D02*
X7Y1434D01*
X2699Y1434D02*
X2699Y1434D01*
X7Y1433D02*
X7Y1433D01*
X2699Y1433D02*
X2699Y1433D01*
X7Y1432D02*
X7Y1432D01*
X2699Y1432D02*
X2699Y1432D01*
X7Y1431D02*
X7Y1431D01*
X2699Y1431D02*
X2699Y1431D01*
X7Y1430D02*
X7Y1430D01*
X2699Y1430D02*
X2699Y1430D01*
X7Y1429D02*
X7Y1429D01*
X2699Y1429D02*
X2699Y1429D01*
X7Y1428D02*
X7Y1428D01*
X2699Y1428D02*
X2699Y1428D01*
X7Y1427D02*
X7Y1427D01*
X2699Y1427D02*
X2699Y1427D01*
X7Y1426D02*
X7Y1426D01*
X2699Y1426D02*
X2699Y1426D01*
X7Y1425D02*
X7Y1425D01*
X2699Y1425D02*
X2699Y1425D01*
X7Y1424D02*
X7Y1424D01*
X2699Y1424D02*
X2699Y1424D01*
X7Y1423D02*
X7Y1423D01*
X2699Y1423D02*
X2699Y1423D01*
X7Y1422D02*
X7Y1422D01*
X2699Y1422D02*
X2699Y1422D01*
X7Y1421D02*
X7Y1421D01*
X2699Y1421D02*
X2699Y1421D01*
X7Y1420D02*
X7Y1420D01*
X2699Y1420D02*
X2699Y1420D01*
X7Y1419D02*
X7Y1419D01*
X2699Y1419D02*
X2699Y1419D01*
X7Y1418D02*
X7Y1418D01*
X2699Y1418D02*
X2699Y1418D01*
X7Y1417D02*
X7Y1417D01*
X2699Y1417D02*
X2699Y1417D01*
X7Y1416D02*
X7Y1416D01*
X2699Y1416D02*
X2699Y1416D01*
X7Y1415D02*
X7Y1415D01*
X2699Y1415D02*
X2699Y1415D01*
X7Y1414D02*
X7Y1414D01*
X2699Y1414D02*
X2699Y1414D01*
X7Y1413D02*
X7Y1413D01*
X2699Y1413D02*
X2699Y1413D01*
X7Y1412D02*
X7Y1412D01*
X2699Y1412D02*
X2699Y1412D01*
X7Y1411D02*
X7Y1411D01*
X2699Y1411D02*
X2699Y1411D01*
X7Y1410D02*
X7Y1410D01*
X2699Y1410D02*
X2699Y1410D01*
X7Y1409D02*
X7Y1409D01*
X2699Y1409D02*
X2699Y1409D01*
X7Y1408D02*
X7Y1408D01*
X2699Y1408D02*
X2699Y1408D01*
X7Y1407D02*
X7Y1407D01*
X2699Y1407D02*
X2699Y1407D01*
X7Y1406D02*
X7Y1406D01*
X2699Y1406D02*
X2699Y1406D01*
X7Y1405D02*
X7Y1405D01*
X2699Y1405D02*
X2699Y1405D01*
X7Y1404D02*
X7Y1404D01*
X2699Y1404D02*
X2699Y1404D01*
X7Y1403D02*
X7Y1403D01*
X2699Y1403D02*
X2699Y1403D01*
X7Y1402D02*
X7Y1402D01*
X2699Y1402D02*
X2699Y1402D01*
X7Y1401D02*
X7Y1401D01*
X2699Y1401D02*
X2699Y1401D01*
X7Y1400D02*
X7Y1400D01*
X2699Y1400D02*
X2699Y1400D01*
X7Y1399D02*
X7Y1399D01*
X2699Y1399D02*
X2699Y1399D01*
X7Y1398D02*
X7Y1398D01*
X2699Y1398D02*
X2699Y1398D01*
X7Y1397D02*
X7Y1397D01*
X2699Y1397D02*
X2699Y1397D01*
X7Y1396D02*
X7Y1396D01*
X2699Y1396D02*
X2699Y1396D01*
X7Y1395D02*
X7Y1395D01*
X2699Y1395D02*
X2699Y1395D01*
X7Y1394D02*
X7Y1394D01*
X2699Y1394D02*
X2699Y1394D01*
X7Y1393D02*
X7Y1393D01*
X2699Y1393D02*
X2699Y1393D01*
X7Y1392D02*
X7Y1392D01*
X2699Y1392D02*
X2699Y1392D01*
X7Y1391D02*
X7Y1391D01*
X2699Y1391D02*
X2699Y1391D01*
X7Y1390D02*
X7Y1390D01*
X2699Y1390D02*
X2699Y1390D01*
X7Y1389D02*
X7Y1389D01*
X2699Y1389D02*
X2699Y1389D01*
X7Y1388D02*
X7Y1388D01*
X2699Y1388D02*
X2699Y1388D01*
X7Y1387D02*
X7Y1387D01*
X2699Y1387D02*
X2699Y1387D01*
X7Y1386D02*
X7Y1386D01*
X2699Y1386D02*
X2699Y1386D01*
X7Y1385D02*
X7Y1385D01*
X2699Y1385D02*
X2699Y1385D01*
X7Y1384D02*
X7Y1384D01*
X2699Y1384D02*
X2699Y1384D01*
X7Y1383D02*
X7Y1383D01*
X2699Y1383D02*
X2699Y1383D01*
X7Y1382D02*
X7Y1382D01*
X2699Y1382D02*
X2699Y1382D01*
X7Y1381D02*
X7Y1381D01*
X2699Y1381D02*
X2699Y1381D01*
X7Y1380D02*
X7Y1380D01*
X2699Y1380D02*
X2699Y1380D01*
X7Y1379D02*
X7Y1379D01*
X2699Y1379D02*
X2699Y1379D01*
X7Y1378D02*
X7Y1378D01*
X2699Y1378D02*
X2699Y1378D01*
X7Y1377D02*
X7Y1377D01*
X2699Y1377D02*
X2699Y1377D01*
X7Y1376D02*
X7Y1376D01*
X2699Y1376D02*
X2699Y1376D01*
X7Y1375D02*
X7Y1375D01*
X2699Y1375D02*
X2699Y1375D01*
X7Y1374D02*
X7Y1374D01*
X2699Y1374D02*
X2699Y1374D01*
X7Y1373D02*
X7Y1373D01*
X2699Y1373D02*
X2699Y1373D01*
X7Y1372D02*
X7Y1372D01*
X2699Y1372D02*
X2699Y1372D01*
X7Y1371D02*
X7Y1371D01*
X2699Y1371D02*
X2699Y1371D01*
X7Y1370D02*
X7Y1370D01*
X2699Y1370D02*
X2699Y1370D01*
X7Y1369D02*
X7Y1369D01*
X2699Y1369D02*
X2699Y1369D01*
X7Y1368D02*
X7Y1368D01*
X2699Y1368D02*
X2699Y1368D01*
X7Y1367D02*
X7Y1367D01*
X2699Y1367D02*
X2699Y1367D01*
X7Y1366D02*
X7Y1366D01*
X2699Y1366D02*
X2699Y1366D01*
X7Y1365D02*
X7Y1365D01*
X2699Y1365D02*
X2699Y1365D01*
X7Y1364D02*
X7Y1364D01*
X2699Y1364D02*
X2699Y1364D01*
X7Y1363D02*
X7Y1363D01*
X2699Y1363D02*
X2699Y1363D01*
X7Y1362D02*
X7Y1362D01*
X2699Y1362D02*
X2699Y1362D01*
X7Y1361D02*
X7Y1361D01*
X2699Y1361D02*
X2699Y1361D01*
X7Y1360D02*
X7Y1360D01*
X2699Y1360D02*
X2699Y1360D01*
X7Y1359D02*
X7Y1359D01*
X2699Y1359D02*
X2699Y1359D01*
X7Y1358D02*
X7Y1358D01*
X2699Y1358D02*
X2699Y1358D01*
X7Y1357D02*
X7Y1357D01*
X2699Y1357D02*
X2699Y1357D01*
X7Y1356D02*
X7Y1356D01*
X2699Y1356D02*
X2699Y1356D01*
X7Y1355D02*
X7Y1355D01*
X2699Y1355D02*
X2699Y1355D01*
X7Y1354D02*
X7Y1354D01*
X2699Y1354D02*
X2699Y1354D01*
X7Y1353D02*
X7Y1353D01*
X2699Y1353D02*
X2699Y1353D01*
X7Y1352D02*
X7Y1352D01*
X2699Y1352D02*
X2699Y1352D01*
X7Y1351D02*
X7Y1351D01*
X2699Y1351D02*
X2699Y1351D01*
X7Y1350D02*
X7Y1350D01*
X2699Y1350D02*
X2699Y1350D01*
X7Y1349D02*
X7Y1349D01*
X2699Y1349D02*
X2699Y1349D01*
X7Y1348D02*
X7Y1348D01*
X2699Y1348D02*
X2699Y1348D01*
X7Y1347D02*
X7Y1347D01*
X2699Y1347D02*
X2699Y1347D01*
X7Y1346D02*
X7Y1346D01*
X2699Y1346D02*
X2699Y1346D01*
X7Y1345D02*
X7Y1345D01*
X2699Y1345D02*
X2699Y1345D01*
X7Y1344D02*
X7Y1344D01*
X2699Y1344D02*
X2699Y1344D01*
X7Y1343D02*
X7Y1343D01*
X2699Y1343D02*
X2699Y1343D01*
X7Y1342D02*
X7Y1342D01*
X2699Y1342D02*
X2699Y1342D01*
X7Y1341D02*
X7Y1341D01*
X2699Y1341D02*
X2699Y1341D01*
X7Y1340D02*
X7Y1340D01*
X2699Y1340D02*
X2699Y1340D01*
X7Y1339D02*
X7Y1339D01*
X2699Y1339D02*
X2699Y1339D01*
X7Y1338D02*
X7Y1338D01*
X2699Y1338D02*
X2699Y1338D01*
X7Y1337D02*
X7Y1337D01*
X2699Y1337D02*
X2699Y1337D01*
X7Y1336D02*
X7Y1336D01*
X2699Y1336D02*
X2699Y1336D01*
X7Y1335D02*
X7Y1335D01*
X2699Y1335D02*
X2699Y1335D01*
X7Y1334D02*
X7Y1334D01*
X2699Y1334D02*
X2699Y1334D01*
X7Y1333D02*
X7Y1333D01*
X2699Y1333D02*
X2699Y1333D01*
X7Y1332D02*
X7Y1332D01*
X2699Y1332D02*
X2699Y1332D01*
X7Y1331D02*
X7Y1331D01*
X2699Y1331D02*
X2699Y1331D01*
X7Y1330D02*
X7Y1330D01*
X2699Y1330D02*
X2699Y1330D01*
X7Y1329D02*
X7Y1329D01*
X2699Y1329D02*
X2699Y1329D01*
X7Y1328D02*
X7Y1328D01*
X2699Y1328D02*
X2699Y1328D01*
X7Y1327D02*
X7Y1327D01*
X2699Y1327D02*
X2699Y1327D01*
X7Y1326D02*
X7Y1326D01*
X2699Y1326D02*
X2699Y1326D01*
X7Y1325D02*
X7Y1325D01*
X2699Y1325D02*
X2699Y1325D01*
X7Y1324D02*
X7Y1324D01*
X2699Y1324D02*
X2699Y1324D01*
X7Y1323D02*
X7Y1323D01*
X2699Y1323D02*
X2699Y1323D01*
X7Y1322D02*
X7Y1322D01*
X2699Y1322D02*
X2699Y1322D01*
X7Y1321D02*
X7Y1321D01*
X2699Y1321D02*
X2699Y1321D01*
X7Y1320D02*
X7Y1320D01*
X2699Y1320D02*
X2699Y1320D01*
X7Y1319D02*
X7Y1319D01*
X2699Y1319D02*
X2699Y1319D01*
X7Y1318D02*
X7Y1318D01*
X2699Y1318D02*
X2699Y1318D01*
X7Y1317D02*
X7Y1317D01*
X2699Y1317D02*
X2699Y1317D01*
X7Y1316D02*
X7Y1316D01*
X2699Y1316D02*
X2699Y1316D01*
X7Y1315D02*
X7Y1315D01*
X2699Y1315D02*
X2699Y1315D01*
X7Y1314D02*
X7Y1314D01*
X2699Y1314D02*
X2699Y1314D01*
X7Y1313D02*
X7Y1313D01*
X2699Y1313D02*
X2699Y1313D01*
X7Y1312D02*
X7Y1312D01*
X2699Y1312D02*
X2699Y1312D01*
X7Y1311D02*
X7Y1311D01*
X2699Y1311D02*
X2699Y1311D01*
X7Y1310D02*
X7Y1310D01*
X2699Y1310D02*
X2699Y1310D01*
X7Y1309D02*
X7Y1309D01*
X2699Y1309D02*
X2699Y1309D01*
X7Y1308D02*
X7Y1308D01*
X2699Y1308D02*
X2699Y1308D01*
X7Y1307D02*
X7Y1307D01*
X2699Y1307D02*
X2699Y1307D01*
X7Y1306D02*
X7Y1306D01*
X2699Y1306D02*
X2699Y1306D01*
X7Y1305D02*
X7Y1305D01*
X2699Y1305D02*
X2699Y1305D01*
X7Y1304D02*
X7Y1304D01*
X2699Y1304D02*
X2699Y1304D01*
X7Y1303D02*
X7Y1303D01*
X2699Y1303D02*
X2699Y1303D01*
X7Y1302D02*
X7Y1302D01*
X2699Y1302D02*
X2699Y1302D01*
X7Y1301D02*
X7Y1301D01*
X2699Y1301D02*
X2699Y1301D01*
X7Y1300D02*
X7Y1300D01*
X2699Y1300D02*
X2699Y1300D01*
X7Y1299D02*
X7Y1299D01*
X2699Y1299D02*
X2699Y1299D01*
X7Y1298D02*
X7Y1298D01*
X2699Y1298D02*
X2699Y1298D01*
X7Y1297D02*
X7Y1297D01*
X2699Y1297D02*
X2699Y1297D01*
X7Y1296D02*
X7Y1296D01*
X2699Y1296D02*
X2699Y1296D01*
X7Y1295D02*
X7Y1295D01*
X2699Y1295D02*
X2699Y1295D01*
X7Y1294D02*
X7Y1294D01*
X2699Y1294D02*
X2699Y1294D01*
X7Y1293D02*
X7Y1293D01*
X2699Y1293D02*
X2699Y1293D01*
X7Y1292D02*
X7Y1292D01*
X2699Y1292D02*
X2699Y1292D01*
X7Y1291D02*
X7Y1291D01*
X2699Y1291D02*
X2699Y1291D01*
X7Y1290D02*
X7Y1290D01*
X2699Y1290D02*
X2699Y1290D01*
X7Y1289D02*
X7Y1289D01*
X2699Y1289D02*
X2699Y1289D01*
X7Y1288D02*
X7Y1288D01*
X2699Y1288D02*
X2699Y1288D01*
X7Y1287D02*
X7Y1287D01*
X2699Y1287D02*
X2699Y1287D01*
X7Y1286D02*
X7Y1286D01*
X2699Y1286D02*
X2699Y1286D01*
X7Y1285D02*
X7Y1285D01*
X2699Y1285D02*
X2699Y1285D01*
X7Y1284D02*
X7Y1284D01*
X2699Y1284D02*
X2699Y1284D01*
X7Y1283D02*
X7Y1283D01*
X2699Y1283D02*
X2699Y1283D01*
X7Y1282D02*
X7Y1282D01*
X2699Y1282D02*
X2699Y1282D01*
X7Y1281D02*
X7Y1281D01*
X2699Y1281D02*
X2699Y1281D01*
X7Y1280D02*
X7Y1280D01*
X2699Y1280D02*
X2699Y1280D01*
X7Y1279D02*
X7Y1279D01*
X2699Y1279D02*
X2699Y1279D01*
X7Y1278D02*
X7Y1278D01*
X2699Y1278D02*
X2699Y1278D01*
X7Y1277D02*
X7Y1277D01*
X2699Y1277D02*
X2699Y1277D01*
X7Y1276D02*
X7Y1276D01*
X2699Y1276D02*
X2699Y1276D01*
X7Y1275D02*
X7Y1275D01*
X2699Y1275D02*
X2699Y1275D01*
X7Y1274D02*
X7Y1274D01*
X2699Y1274D02*
X2699Y1274D01*
X7Y1273D02*
X7Y1273D01*
X2699Y1273D02*
X2699Y1273D01*
X7Y1272D02*
X7Y1272D01*
X2699Y1272D02*
X2699Y1272D01*
X7Y1271D02*
X7Y1271D01*
X2699Y1271D02*
X2699Y1271D01*
X7Y1270D02*
X7Y1270D01*
X2699Y1270D02*
X2699Y1270D01*
X7Y1269D02*
X7Y1269D01*
X2699Y1269D02*
X2699Y1269D01*
X7Y1268D02*
X7Y1268D01*
X2699Y1268D02*
X2699Y1268D01*
X7Y1267D02*
X7Y1267D01*
X2699Y1267D02*
X2699Y1267D01*
X7Y1266D02*
X7Y1266D01*
X2699Y1266D02*
X2699Y1266D01*
X7Y1265D02*
X7Y1265D01*
X2699Y1265D02*
X2699Y1265D01*
X7Y1264D02*
X7Y1264D01*
X2699Y1264D02*
X2699Y1264D01*
X7Y1263D02*
X7Y1263D01*
X2699Y1263D02*
X2699Y1263D01*
X7Y1262D02*
X7Y1262D01*
X2699Y1262D02*
X2699Y1262D01*
X7Y1261D02*
X7Y1261D01*
X2699Y1261D02*
X2699Y1261D01*
X7Y1260D02*
X7Y1260D01*
X2699Y1260D02*
X2699Y1260D01*
X7Y1259D02*
X7Y1259D01*
X2699Y1259D02*
X2699Y1259D01*
X7Y1258D02*
X7Y1258D01*
X2699Y1258D02*
X2699Y1258D01*
X7Y1257D02*
X7Y1257D01*
X2699Y1257D02*
X2699Y1257D01*
X7Y1256D02*
X7Y1256D01*
X2699Y1256D02*
X2699Y1256D01*
X7Y1255D02*
X7Y1255D01*
X2699Y1255D02*
X2699Y1255D01*
X7Y1254D02*
X7Y1254D01*
X2699Y1254D02*
X2699Y1254D01*
X7Y1253D02*
X7Y1253D01*
X2699Y1253D02*
X2699Y1253D01*
X7Y1252D02*
X7Y1252D01*
X2699Y1252D02*
X2699Y1252D01*
X7Y1251D02*
X7Y1251D01*
X2699Y1251D02*
X2699Y1251D01*
X7Y1250D02*
X7Y1250D01*
X2699Y1250D02*
X2699Y1250D01*
X7Y1249D02*
X7Y1249D01*
X2699Y1249D02*
X2699Y1249D01*
X7Y1248D02*
X7Y1248D01*
X2699Y1248D02*
X2699Y1248D01*
X7Y1247D02*
X7Y1247D01*
X2699Y1247D02*
X2699Y1247D01*
X7Y1246D02*
X7Y1246D01*
X2699Y1246D02*
X2699Y1246D01*
X7Y1245D02*
X7Y1245D01*
X2699Y1245D02*
X2699Y1245D01*
X7Y1244D02*
X7Y1244D01*
X2699Y1244D02*
X2699Y1244D01*
X7Y1243D02*
X7Y1243D01*
X2699Y1243D02*
X2699Y1243D01*
X7Y1242D02*
X7Y1242D01*
X2699Y1242D02*
X2699Y1242D01*
X7Y1241D02*
X7Y1241D01*
X2699Y1241D02*
X2699Y1241D01*
X7Y1240D02*
X7Y1240D01*
X2699Y1240D02*
X2699Y1240D01*
X7Y1239D02*
X7Y1239D01*
X2699Y1239D02*
X2699Y1239D01*
X7Y1238D02*
X7Y1238D01*
X2699Y1238D02*
X2699Y1238D01*
X7Y1237D02*
X7Y1237D01*
X2699Y1237D02*
X2699Y1237D01*
X7Y1236D02*
X7Y1236D01*
X2699Y1236D02*
X2699Y1236D01*
X7Y1235D02*
X7Y1235D01*
X2699Y1235D02*
X2699Y1235D01*
X7Y1234D02*
X7Y1234D01*
X2699Y1234D02*
X2699Y1234D01*
X7Y1233D02*
X7Y1233D01*
X2699Y1233D02*
X2699Y1233D01*
X7Y1232D02*
X7Y1232D01*
X2699Y1232D02*
X2699Y1232D01*
X7Y1231D02*
X7Y1231D01*
X2699Y1231D02*
X2699Y1231D01*
X7Y1230D02*
X7Y1230D01*
X2699Y1230D02*
X2699Y1230D01*
X7Y1229D02*
X7Y1229D01*
X2699Y1229D02*
X2699Y1229D01*
X7Y1228D02*
X7Y1228D01*
X2699Y1228D02*
X2699Y1228D01*
X7Y1227D02*
X7Y1227D01*
X2699Y1227D02*
X2699Y1227D01*
X7Y1226D02*
X7Y1226D01*
X2699Y1226D02*
X2699Y1226D01*
X7Y1225D02*
X7Y1225D01*
X2699Y1225D02*
X2699Y1225D01*
X7Y1224D02*
X7Y1224D01*
X2699Y1224D02*
X2699Y1224D01*
X7Y1223D02*
X7Y1223D01*
X2699Y1223D02*
X2699Y1223D01*
X7Y1222D02*
X7Y1222D01*
X2699Y1222D02*
X2699Y1222D01*
X7Y1221D02*
X7Y1221D01*
X2699Y1221D02*
X2699Y1221D01*
X7Y1220D02*
X7Y1220D01*
X2699Y1220D02*
X2699Y1220D01*
X7Y1219D02*
X7Y1219D01*
X2699Y1219D02*
X2699Y1219D01*
X7Y1218D02*
X7Y1218D01*
X2699Y1218D02*
X2699Y1218D01*
X7Y1217D02*
X7Y1217D01*
X2699Y1217D02*
X2699Y1217D01*
X7Y1216D02*
X7Y1216D01*
X2699Y1216D02*
X2699Y1216D01*
X7Y1215D02*
X7Y1215D01*
X2699Y1215D02*
X2699Y1215D01*
X7Y1214D02*
X7Y1214D01*
X2699Y1214D02*
X2699Y1214D01*
X7Y1213D02*
X7Y1213D01*
X2699Y1213D02*
X2699Y1213D01*
X7Y1212D02*
X7Y1212D01*
X2699Y1212D02*
X2699Y1212D01*
X7Y1211D02*
X7Y1211D01*
X2699Y1211D02*
X2699Y1211D01*
X7Y1210D02*
X7Y1210D01*
X2699Y1210D02*
X2699Y1210D01*
X7Y1209D02*
X7Y1209D01*
X2699Y1209D02*
X2699Y1209D01*
X7Y1208D02*
X7Y1208D01*
X2699Y1208D02*
X2699Y1208D01*
X7Y1207D02*
X7Y1207D01*
X2699Y1207D02*
X2699Y1207D01*
X7Y1206D02*
X7Y1206D01*
X2699Y1206D02*
X2699Y1206D01*
X7Y1205D02*
X7Y1205D01*
X2699Y1205D02*
X2699Y1205D01*
X7Y1204D02*
X7Y1204D01*
X2699Y1204D02*
X2699Y1204D01*
X7Y1203D02*
X7Y1203D01*
X2699Y1203D02*
X2699Y1203D01*
X7Y1202D02*
X7Y1202D01*
X2699Y1202D02*
X2699Y1202D01*
X7Y1201D02*
X7Y1201D01*
X2699Y1201D02*
X2699Y1201D01*
X7Y1200D02*
X7Y1200D01*
X2699Y1200D02*
X2699Y1200D01*
X7Y1199D02*
X7Y1199D01*
X2699Y1199D02*
X2699Y1199D01*
X7Y1198D02*
X7Y1198D01*
X2699Y1198D02*
X2699Y1198D01*
X7Y1197D02*
X7Y1197D01*
X2699Y1197D02*
X2699Y1197D01*
X7Y1196D02*
X7Y1196D01*
X2699Y1196D02*
X2699Y1196D01*
X7Y1195D02*
X7Y1195D01*
X2699Y1195D02*
X2699Y1195D01*
X7Y1194D02*
X7Y1194D01*
X2699Y1194D02*
X2699Y1194D01*
X7Y1193D02*
X7Y1193D01*
X2699Y1193D02*
X2699Y1193D01*
X7Y1192D02*
X7Y1192D01*
X2699Y1192D02*
X2699Y1192D01*
X7Y1191D02*
X7Y1191D01*
X2699Y1191D02*
X2699Y1191D01*
X7Y1190D02*
X7Y1190D01*
X2699Y1190D02*
X2699Y1190D01*
X7Y1189D02*
X7Y1189D01*
X2699Y1189D02*
X2699Y1189D01*
X7Y1188D02*
X7Y1188D01*
X2699Y1188D02*
X2699Y1188D01*
X7Y1187D02*
X7Y1187D01*
X2699Y1187D02*
X2699Y1187D01*
X7Y1186D02*
X7Y1186D01*
X2699Y1186D02*
X2699Y1186D01*
X7Y1185D02*
X7Y1185D01*
X2699Y1185D02*
X2699Y1185D01*
X7Y1184D02*
X7Y1184D01*
X2699Y1184D02*
X2699Y1184D01*
X7Y1183D02*
X7Y1183D01*
X2699Y1183D02*
X2699Y1183D01*
X7Y1182D02*
X7Y1182D01*
X2699Y1182D02*
X2699Y1182D01*
X7Y1181D02*
X7Y1181D01*
X2699Y1181D02*
X2699Y1181D01*
X7Y1180D02*
X7Y1180D01*
X2699Y1180D02*
X2699Y1180D01*
X7Y1179D02*
X7Y1179D01*
X2699Y1179D02*
X2699Y1179D01*
X7Y1178D02*
X7Y1178D01*
X2699Y1178D02*
X2699Y1178D01*
X7Y1177D02*
X7Y1177D01*
X2699Y1177D02*
X2699Y1177D01*
X7Y1176D02*
X7Y1176D01*
X2699Y1176D02*
X2699Y1176D01*
X7Y1175D02*
X7Y1175D01*
X2699Y1175D02*
X2699Y1175D01*
X7Y1174D02*
X7Y1174D01*
X2699Y1174D02*
X2699Y1174D01*
X7Y1173D02*
X7Y1173D01*
X2699Y1173D02*
X2699Y1173D01*
X7Y1172D02*
X7Y1172D01*
X2699Y1172D02*
X2699Y1172D01*
X7Y1171D02*
X7Y1171D01*
X2699Y1171D02*
X2699Y1171D01*
X7Y1170D02*
X7Y1170D01*
X2699Y1170D02*
X2699Y1170D01*
X7Y1169D02*
X7Y1169D01*
X2699Y1169D02*
X2699Y1169D01*
X7Y1168D02*
X7Y1168D01*
X2699Y1168D02*
X2699Y1168D01*
X7Y1167D02*
X7Y1167D01*
X2699Y1167D02*
X2699Y1167D01*
X7Y1166D02*
X7Y1166D01*
X2699Y1166D02*
X2699Y1166D01*
X7Y1165D02*
X7Y1165D01*
X2699Y1165D02*
X2699Y1165D01*
X7Y1164D02*
X7Y1164D01*
X2699Y1164D02*
X2699Y1164D01*
X7Y1163D02*
X7Y1163D01*
X2699Y1163D02*
X2699Y1163D01*
X7Y1162D02*
X7Y1162D01*
X2699Y1162D02*
X2699Y1162D01*
X7Y1161D02*
X7Y1161D01*
X2699Y1161D02*
X2699Y1161D01*
X7Y1160D02*
X7Y1160D01*
X2699Y1160D02*
X2699Y1160D01*
X7Y1159D02*
X7Y1159D01*
X2699Y1159D02*
X2699Y1159D01*
X7Y1158D02*
X7Y1158D01*
X2699Y1158D02*
X2699Y1158D01*
X7Y1157D02*
X7Y1157D01*
X2699Y1157D02*
X2699Y1157D01*
X7Y1156D02*
X7Y1156D01*
X2699Y1156D02*
X2699Y1156D01*
X7Y1155D02*
X7Y1155D01*
X2699Y1155D02*
X2699Y1155D01*
X7Y1154D02*
X7Y1154D01*
X2699Y1154D02*
X2699Y1154D01*
X7Y1153D02*
X7Y1153D01*
X2699Y1153D02*
X2699Y1153D01*
X7Y1152D02*
X7Y1152D01*
X2699Y1152D02*
X2699Y1152D01*
X7Y1151D02*
X7Y1151D01*
X2699Y1151D02*
X2699Y1151D01*
X7Y1150D02*
X7Y1150D01*
X2699Y1150D02*
X2699Y1150D01*
X7Y1149D02*
X7Y1149D01*
X2699Y1149D02*
X2699Y1149D01*
X7Y1148D02*
X7Y1148D01*
X2699Y1148D02*
X2699Y1148D01*
X7Y1147D02*
X7Y1147D01*
X2699Y1147D02*
X2699Y1147D01*
X7Y1146D02*
X7Y1146D01*
X2699Y1146D02*
X2699Y1146D01*
X7Y1145D02*
X7Y1145D01*
X2699Y1145D02*
X2699Y1145D01*
X7Y1144D02*
X7Y1144D01*
X2699Y1144D02*
X2699Y1144D01*
X7Y1143D02*
X7Y1143D01*
X2699Y1143D02*
X2699Y1143D01*
X7Y1142D02*
X7Y1142D01*
X2699Y1142D02*
X2699Y1142D01*
X7Y1141D02*
X7Y1141D01*
X2699Y1141D02*
X2699Y1141D01*
X7Y1140D02*
X7Y1140D01*
X2699Y1140D02*
X2699Y1140D01*
X7Y1139D02*
X7Y1139D01*
X2699Y1139D02*
X2699Y1139D01*
X7Y1138D02*
X7Y1138D01*
X2699Y1138D02*
X2699Y1138D01*
X7Y1137D02*
X7Y1137D01*
X2699Y1137D02*
X2699Y1137D01*
X7Y1136D02*
X7Y1136D01*
X2699Y1136D02*
X2699Y1136D01*
X7Y1135D02*
X7Y1135D01*
X2699Y1135D02*
X2699Y1135D01*
X7Y1134D02*
X7Y1134D01*
X2699Y1134D02*
X2699Y1134D01*
X7Y1133D02*
X7Y1133D01*
X2699Y1133D02*
X2699Y1133D01*
X7Y1132D02*
X7Y1132D01*
X2699Y1132D02*
X2699Y1132D01*
X7Y1131D02*
X7Y1131D01*
X2699Y1131D02*
X2699Y1131D01*
X7Y1130D02*
X7Y1130D01*
X2699Y1130D02*
X2699Y1130D01*
X7Y1129D02*
X7Y1129D01*
X2699Y1129D02*
X2699Y1129D01*
X7Y1128D02*
X7Y1128D01*
X2699Y1128D02*
X2699Y1128D01*
X7Y1127D02*
X7Y1127D01*
X2699Y1127D02*
X2699Y1127D01*
X7Y1126D02*
X7Y1126D01*
X2699Y1126D02*
X2699Y1126D01*
X7Y1125D02*
X7Y1125D01*
X2699Y1125D02*
X2699Y1125D01*
X7Y1124D02*
X7Y1124D01*
X2699Y1124D02*
X2699Y1124D01*
X7Y1123D02*
X7Y1123D01*
X2699Y1123D02*
X2699Y1123D01*
X7Y1122D02*
X7Y1122D01*
X2699Y1122D02*
X2699Y1122D01*
X7Y1121D02*
X7Y1121D01*
X2699Y1121D02*
X2699Y1121D01*
X7Y1120D02*
X7Y1120D01*
X2699Y1120D02*
X2699Y1120D01*
X7Y1119D02*
X7Y1119D01*
X2699Y1119D02*
X2699Y1119D01*
X7Y1118D02*
X7Y1118D01*
X2699Y1118D02*
X2699Y1118D01*
X7Y1117D02*
X7Y1117D01*
X2699Y1117D02*
X2699Y1117D01*
X7Y1116D02*
X7Y1116D01*
X2699Y1116D02*
X2699Y1116D01*
X7Y1115D02*
X7Y1115D01*
X2699Y1115D02*
X2699Y1115D01*
X7Y1114D02*
X7Y1114D01*
X2699Y1114D02*
X2699Y1114D01*
X7Y1113D02*
X7Y1113D01*
X2699Y1113D02*
X2699Y1113D01*
X7Y1112D02*
X7Y1112D01*
X2699Y1112D02*
X2699Y1112D01*
X7Y1111D02*
X7Y1111D01*
X2699Y1111D02*
X2699Y1111D01*
X7Y1110D02*
X7Y1110D01*
X2699Y1110D02*
X2699Y1110D01*
X7Y1109D02*
X7Y1109D01*
X2699Y1109D02*
X2699Y1109D01*
X7Y1108D02*
X7Y1108D01*
X2699Y1108D02*
X2699Y1108D01*
X7Y1107D02*
X7Y1107D01*
X2699Y1107D02*
X2699Y1107D01*
X7Y1106D02*
X7Y1106D01*
X2699Y1106D02*
X2699Y1106D01*
X7Y1105D02*
X7Y1105D01*
X2699Y1105D02*
X2699Y1105D01*
X7Y1104D02*
X7Y1104D01*
X2699Y1104D02*
X2699Y1104D01*
X7Y1103D02*
X7Y1103D01*
X2699Y1103D02*
X2699Y1103D01*
X7Y1102D02*
X7Y1102D01*
X2699Y1102D02*
X2699Y1102D01*
X7Y1101D02*
X7Y1101D01*
X2699Y1101D02*
X2699Y1101D01*
X7Y1100D02*
X7Y1100D01*
X2699Y1100D02*
X2699Y1100D01*
X7Y1099D02*
X7Y1099D01*
X2699Y1099D02*
X2699Y1099D01*
X7Y1098D02*
X7Y1098D01*
X2699Y1098D02*
X2699Y1098D01*
X7Y1097D02*
X7Y1097D01*
X2699Y1097D02*
X2699Y1097D01*
X7Y1096D02*
X7Y1096D01*
X2699Y1096D02*
X2699Y1096D01*
X7Y1095D02*
X7Y1095D01*
X2699Y1095D02*
X2699Y1095D01*
X7Y1094D02*
X7Y1094D01*
X2699Y1094D02*
X2699Y1094D01*
X7Y1093D02*
X7Y1093D01*
X2699Y1093D02*
X2699Y1093D01*
X7Y1092D02*
X7Y1092D01*
X2699Y1092D02*
X2699Y1092D01*
X7Y1091D02*
X7Y1091D01*
X2699Y1091D02*
X2699Y1091D01*
X7Y1090D02*
X7Y1090D01*
X2699Y1090D02*
X2699Y1090D01*
X7Y1089D02*
X7Y1089D01*
X2699Y1089D02*
X2699Y1089D01*
X7Y1088D02*
X7Y1088D01*
X2699Y1088D02*
X2699Y1088D01*
X7Y1087D02*
X7Y1087D01*
X2699Y1087D02*
X2699Y1087D01*
X7Y1086D02*
X7Y1086D01*
X2699Y1086D02*
X2699Y1086D01*
X7Y1085D02*
X7Y1085D01*
X2699Y1085D02*
X2699Y1085D01*
X7Y1084D02*
X7Y1084D01*
X2699Y1084D02*
X2699Y1084D01*
X7Y1083D02*
X7Y1083D01*
X2699Y1083D02*
X2699Y1083D01*
X7Y1082D02*
X7Y1082D01*
X2699Y1082D02*
X2699Y1082D01*
X7Y1081D02*
X7Y1081D01*
X2699Y1081D02*
X2699Y1081D01*
X7Y1080D02*
X7Y1080D01*
X2699Y1080D02*
X2699Y1080D01*
X7Y1079D02*
X7Y1079D01*
X2699Y1079D02*
X2699Y1079D01*
X7Y1078D02*
X7Y1078D01*
X2699Y1078D02*
X2699Y1078D01*
X7Y1077D02*
X7Y1077D01*
X2699Y1077D02*
X2699Y1077D01*
X7Y1076D02*
X7Y1076D01*
X2699Y1076D02*
X2699Y1076D01*
X7Y1075D02*
X7Y1075D01*
X2699Y1075D02*
X2699Y1075D01*
X7Y1074D02*
X7Y1074D01*
X2699Y1074D02*
X2699Y1074D01*
X7Y1073D02*
X7Y1073D01*
X2699Y1073D02*
X2699Y1073D01*
X7Y1072D02*
X7Y1072D01*
X2699Y1072D02*
X2699Y1072D01*
X7Y1071D02*
X7Y1071D01*
X2699Y1071D02*
X2699Y1071D01*
X7Y1070D02*
X7Y1070D01*
X2699Y1070D02*
X2699Y1070D01*
X7Y1069D02*
X7Y1069D01*
X2699Y1069D02*
X2699Y1069D01*
X7Y1068D02*
X7Y1068D01*
X2699Y1068D02*
X2699Y1068D01*
X7Y1067D02*
X7Y1067D01*
X2699Y1067D02*
X2699Y1067D01*
X7Y1066D02*
X7Y1066D01*
X2699Y1066D02*
X2699Y1066D01*
X7Y1065D02*
X7Y1065D01*
X2699Y1065D02*
X2699Y1065D01*
X7Y1064D02*
X7Y1064D01*
X2699Y1064D02*
X2699Y1064D01*
X7Y1063D02*
X7Y1063D01*
X2699Y1063D02*
X2699Y1063D01*
X7Y1062D02*
X7Y1062D01*
X2699Y1062D02*
X2699Y1062D01*
X7Y1061D02*
X7Y1061D01*
X2699Y1061D02*
X2699Y1061D01*
X7Y1060D02*
X7Y1060D01*
X2699Y1060D02*
X2699Y1060D01*
X7Y1059D02*
X7Y1059D01*
X2699Y1059D02*
X2699Y1059D01*
X7Y1058D02*
X7Y1058D01*
X2699Y1058D02*
X2699Y1058D01*
X7Y1057D02*
X7Y1057D01*
X2699Y1057D02*
X2699Y1057D01*
X7Y1056D02*
X7Y1056D01*
X2699Y1056D02*
X2699Y1056D01*
X7Y1055D02*
X7Y1055D01*
X2699Y1055D02*
X2699Y1055D01*
X7Y1054D02*
X7Y1054D01*
X2699Y1054D02*
X2699Y1054D01*
X7Y1053D02*
X7Y1053D01*
X2699Y1053D02*
X2699Y1053D01*
X7Y1052D02*
X7Y1052D01*
X2699Y1052D02*
X2699Y1052D01*
X7Y1051D02*
X7Y1051D01*
X2699Y1051D02*
X2699Y1051D01*
X7Y1050D02*
X7Y1050D01*
X2699Y1050D02*
X2699Y1050D01*
X7Y1049D02*
X7Y1049D01*
X2699Y1049D02*
X2699Y1049D01*
X7Y1048D02*
X7Y1048D01*
X2699Y1048D02*
X2699Y1048D01*
X7Y1047D02*
X7Y1047D01*
X2699Y1047D02*
X2699Y1047D01*
X7Y1046D02*
X7Y1046D01*
X2699Y1046D02*
X2699Y1046D01*
X7Y1045D02*
X7Y1045D01*
X2699Y1045D02*
X2699Y1045D01*
X7Y1044D02*
X7Y1044D01*
X2699Y1044D02*
X2699Y1044D01*
X7Y1043D02*
X7Y1043D01*
X2699Y1043D02*
X2699Y1043D01*
X7Y1042D02*
X7Y1042D01*
X2699Y1042D02*
X2699Y1042D01*
X7Y1041D02*
X7Y1041D01*
X2699Y1041D02*
X2699Y1041D01*
X7Y1040D02*
X7Y1040D01*
X2699Y1040D02*
X2699Y1040D01*
X7Y1039D02*
X7Y1039D01*
X2699Y1039D02*
X2699Y1039D01*
X7Y1038D02*
X7Y1038D01*
X2699Y1038D02*
X2699Y1038D01*
X7Y1037D02*
X7Y1037D01*
X2699Y1037D02*
X2699Y1037D01*
X7Y1036D02*
X7Y1036D01*
X2699Y1036D02*
X2699Y1036D01*
X7Y1035D02*
X7Y1035D01*
X2699Y1035D02*
X2699Y1035D01*
X7Y1034D02*
X7Y1034D01*
X2699Y1034D02*
X2699Y1034D01*
X7Y1033D02*
X7Y1033D01*
X2699Y1033D02*
X2699Y1033D01*
X7Y1032D02*
X7Y1032D01*
X2699Y1032D02*
X2699Y1032D01*
X7Y1031D02*
X7Y1031D01*
X2699Y1031D02*
X2699Y1031D01*
X7Y1030D02*
X7Y1030D01*
X2699Y1030D02*
X2699Y1030D01*
X7Y1029D02*
X7Y1029D01*
X2699Y1029D02*
X2699Y1029D01*
X7Y1028D02*
X7Y1028D01*
X2699Y1028D02*
X2699Y1028D01*
X7Y1027D02*
X7Y1027D01*
X2699Y1027D02*
X2699Y1027D01*
X7Y1026D02*
X7Y1026D01*
X2699Y1026D02*
X2699Y1026D01*
X7Y1025D02*
X7Y1025D01*
X2699Y1025D02*
X2699Y1025D01*
X7Y1024D02*
X7Y1024D01*
X2699Y1024D02*
X2699Y1024D01*
X7Y1023D02*
X7Y1023D01*
X2699Y1023D02*
X2699Y1023D01*
X7Y1022D02*
X7Y1022D01*
X2699Y1022D02*
X2699Y1022D01*
X7Y1021D02*
X7Y1021D01*
X2699Y1021D02*
X2699Y1021D01*
X7Y1020D02*
X7Y1020D01*
X2699Y1020D02*
X2699Y1020D01*
X7Y1019D02*
X7Y1019D01*
X2699Y1019D02*
X2699Y1019D01*
X7Y1018D02*
X7Y1018D01*
X2699Y1018D02*
X2699Y1018D01*
X7Y1017D02*
X7Y1017D01*
X2699Y1017D02*
X2699Y1017D01*
X7Y1016D02*
X7Y1016D01*
X2699Y1016D02*
X2699Y1016D01*
X7Y1015D02*
X7Y1015D01*
X2699Y1015D02*
X2699Y1015D01*
X7Y1014D02*
X7Y1014D01*
X2699Y1014D02*
X2699Y1014D01*
X7Y1013D02*
X7Y1013D01*
X2699Y1013D02*
X2699Y1013D01*
X7Y1012D02*
X7Y1012D01*
X2699Y1012D02*
X2699Y1012D01*
X7Y1011D02*
X7Y1011D01*
X2699Y1011D02*
X2699Y1011D01*
X7Y1010D02*
X7Y1010D01*
X2699Y1010D02*
X2699Y1010D01*
X7Y1009D02*
X7Y1009D01*
X2699Y1009D02*
X2699Y1009D01*
X7Y1008D02*
X7Y1008D01*
X2699Y1008D02*
X2699Y1008D01*
X7Y1007D02*
X7Y1007D01*
X2699Y1007D02*
X2699Y1007D01*
X7Y1006D02*
X7Y1006D01*
X2699Y1006D02*
X2699Y1006D01*
X7Y1005D02*
X7Y1005D01*
X2699Y1005D02*
X2699Y1005D01*
X7Y1004D02*
X7Y1004D01*
X2699Y1004D02*
X2699Y1004D01*
X7Y1003D02*
X7Y1003D01*
X2699Y1003D02*
X2699Y1003D01*
X7Y1002D02*
X7Y1002D01*
X2699Y1002D02*
X2699Y1002D01*
X7Y1001D02*
X7Y1001D01*
X2699Y1001D02*
X2699Y1001D01*
X7Y1000D02*
X7Y1000D01*
X2699Y1000D02*
X2699Y1000D01*
X7Y999D02*
X7Y999D01*
X2699Y999D02*
X2699Y999D01*
X7Y998D02*
X7Y998D01*
X2699Y998D02*
X2699Y998D01*
X7Y997D02*
X7Y997D01*
X2699Y997D02*
X2699Y997D01*
X7Y996D02*
X7Y996D01*
X2699Y996D02*
X2699Y996D01*
X7Y995D02*
X7Y995D01*
X2699Y995D02*
X2699Y995D01*
X7Y994D02*
X7Y994D01*
X2699Y994D02*
X2699Y994D01*
X7Y993D02*
X7Y993D01*
X2699Y993D02*
X2699Y993D01*
X7Y992D02*
X7Y992D01*
X2699Y992D02*
X2699Y992D01*
X7Y991D02*
X7Y991D01*
X2699Y991D02*
X2699Y991D01*
X7Y990D02*
X7Y990D01*
X2699Y990D02*
X2699Y990D01*
X7Y989D02*
X7Y989D01*
X2699Y989D02*
X2699Y989D01*
X7Y988D02*
X7Y988D01*
X2699Y988D02*
X2699Y988D01*
X7Y987D02*
X7Y987D01*
X2699Y987D02*
X2699Y987D01*
X7Y986D02*
X7Y986D01*
X2699Y986D02*
X2699Y986D01*
X7Y985D02*
X7Y985D01*
X2699Y985D02*
X2699Y985D01*
X7Y984D02*
X7Y984D01*
X2699Y984D02*
X2699Y984D01*
X7Y983D02*
X7Y983D01*
X2699Y983D02*
X2699Y983D01*
X7Y982D02*
X7Y982D01*
X2699Y982D02*
X2699Y982D01*
X7Y981D02*
X7Y981D01*
X2699Y981D02*
X2699Y981D01*
X7Y980D02*
X7Y980D01*
X2699Y980D02*
X2699Y980D01*
X7Y979D02*
X7Y979D01*
X2699Y979D02*
X2699Y979D01*
X7Y978D02*
X7Y978D01*
X2699Y978D02*
X2699Y978D01*
X7Y977D02*
X7Y977D01*
X2699Y977D02*
X2699Y977D01*
X7Y976D02*
X7Y976D01*
X2699Y976D02*
X2699Y976D01*
X7Y975D02*
X7Y975D01*
X2699Y975D02*
X2699Y975D01*
X7Y974D02*
X7Y974D01*
X2699Y974D02*
X2699Y974D01*
X7Y973D02*
X7Y973D01*
X2699Y973D02*
X2699Y973D01*
X7Y972D02*
X7Y972D01*
X2699Y972D02*
X2699Y972D01*
X7Y971D02*
X7Y971D01*
X2699Y971D02*
X2699Y971D01*
X7Y970D02*
X7Y970D01*
X2699Y970D02*
X2699Y970D01*
X7Y969D02*
X7Y969D01*
X2699Y969D02*
X2699Y969D01*
X7Y968D02*
X7Y968D01*
X2699Y968D02*
X2699Y968D01*
X7Y967D02*
X7Y967D01*
X2699Y967D02*
X2699Y967D01*
X7Y966D02*
X7Y966D01*
X2699Y966D02*
X2699Y966D01*
X7Y965D02*
X7Y965D01*
X2699Y965D02*
X2699Y965D01*
X7Y964D02*
X7Y964D01*
X2699Y964D02*
X2699Y964D01*
X7Y963D02*
X7Y963D01*
X2699Y963D02*
X2699Y963D01*
X7Y962D02*
X7Y962D01*
X2699Y962D02*
X2699Y962D01*
X7Y961D02*
X7Y961D01*
X2699Y961D02*
X2699Y961D01*
X7Y960D02*
X7Y960D01*
X2699Y960D02*
X2699Y960D01*
X7Y959D02*
X7Y959D01*
X2699Y959D02*
X2699Y959D01*
X7Y958D02*
X7Y958D01*
X2699Y958D02*
X2699Y958D01*
X7Y957D02*
X7Y957D01*
X2699Y957D02*
X2699Y957D01*
X7Y956D02*
X7Y956D01*
X2699Y956D02*
X2699Y956D01*
X7Y955D02*
X7Y955D01*
X2699Y955D02*
X2699Y955D01*
X7Y954D02*
X7Y954D01*
X2699Y954D02*
X2699Y954D01*
X7Y953D02*
X7Y953D01*
X2699Y953D02*
X2699Y953D01*
X7Y952D02*
X7Y952D01*
X2699Y952D02*
X2699Y952D01*
X7Y951D02*
X7Y951D01*
X2699Y951D02*
X2699Y951D01*
X7Y950D02*
X7Y950D01*
X2699Y950D02*
X2699Y950D01*
X7Y949D02*
X7Y949D01*
X2699Y949D02*
X2699Y949D01*
X7Y948D02*
X7Y948D01*
X2699Y948D02*
X2699Y948D01*
X7Y947D02*
X7Y947D01*
X2699Y947D02*
X2699Y947D01*
X7Y946D02*
X7Y946D01*
X2699Y946D02*
X2699Y946D01*
X7Y945D02*
X7Y945D01*
X2699Y945D02*
X2699Y945D01*
X7Y944D02*
X7Y944D01*
X2699Y944D02*
X2699Y944D01*
X7Y943D02*
X7Y943D01*
X2699Y943D02*
X2699Y943D01*
X7Y942D02*
X7Y942D01*
X2699Y942D02*
X2699Y942D01*
X7Y941D02*
X7Y941D01*
X2699Y941D02*
X2699Y941D01*
X7Y940D02*
X7Y940D01*
X2699Y940D02*
X2699Y940D01*
X7Y939D02*
X7Y939D01*
X2699Y939D02*
X2699Y939D01*
X7Y938D02*
X7Y938D01*
X2699Y938D02*
X2699Y938D01*
X7Y937D02*
X7Y937D01*
X2699Y937D02*
X2699Y937D01*
X7Y936D02*
X7Y936D01*
X2699Y936D02*
X2699Y936D01*
X7Y935D02*
X7Y935D01*
X2699Y935D02*
X2699Y935D01*
X7Y934D02*
X7Y934D01*
X2699Y934D02*
X2699Y934D01*
X7Y933D02*
X7Y933D01*
X2699Y933D02*
X2699Y933D01*
X7Y932D02*
X7Y932D01*
X2699Y932D02*
X2699Y932D01*
X7Y931D02*
X7Y931D01*
X2699Y931D02*
X2699Y931D01*
X7Y930D02*
X7Y930D01*
X2699Y930D02*
X2699Y930D01*
X7Y929D02*
X7Y929D01*
X2699Y929D02*
X2699Y929D01*
X7Y928D02*
X7Y928D01*
X2699Y928D02*
X2699Y928D01*
X7Y927D02*
X7Y927D01*
X2699Y927D02*
X2699Y927D01*
X7Y926D02*
X7Y926D01*
X2699Y926D02*
X2699Y926D01*
X7Y925D02*
X7Y925D01*
X2699Y925D02*
X2699Y925D01*
X7Y924D02*
X7Y924D01*
X2699Y924D02*
X2699Y924D01*
X7Y923D02*
X7Y923D01*
X2699Y923D02*
X2699Y923D01*
X7Y922D02*
X7Y922D01*
X2699Y922D02*
X2699Y922D01*
X7Y921D02*
X7Y921D01*
X2699Y921D02*
X2699Y921D01*
X7Y920D02*
X7Y920D01*
X2699Y920D02*
X2699Y920D01*
X7Y919D02*
X7Y919D01*
X2699Y919D02*
X2699Y919D01*
X7Y918D02*
X7Y918D01*
X2699Y918D02*
X2699Y918D01*
X7Y917D02*
X7Y917D01*
X2699Y917D02*
X2699Y917D01*
X7Y916D02*
X7Y916D01*
X2699Y916D02*
X2699Y916D01*
X7Y915D02*
X7Y915D01*
X2699Y915D02*
X2699Y915D01*
X7Y914D02*
X7Y914D01*
X2699Y914D02*
X2699Y914D01*
X7Y913D02*
X7Y913D01*
X2699Y913D02*
X2699Y913D01*
X7Y912D02*
X7Y912D01*
X2699Y912D02*
X2699Y912D01*
X7Y911D02*
X7Y911D01*
X2699Y911D02*
X2699Y911D01*
X7Y910D02*
X7Y910D01*
X2699Y910D02*
X2699Y910D01*
X7Y909D02*
X7Y909D01*
X2699Y909D02*
X2699Y909D01*
X7Y908D02*
X7Y908D01*
X2699Y908D02*
X2699Y908D01*
X7Y907D02*
X7Y907D01*
X2699Y907D02*
X2699Y907D01*
X7Y906D02*
X7Y906D01*
X2699Y906D02*
X2699Y906D01*
X7Y905D02*
X7Y905D01*
X2699Y905D02*
X2699Y905D01*
X7Y904D02*
X7Y904D01*
X2699Y904D02*
X2699Y904D01*
X7Y903D02*
X7Y903D01*
X2699Y903D02*
X2699Y903D01*
X7Y902D02*
X7Y902D01*
X2699Y902D02*
X2699Y902D01*
X7Y901D02*
X7Y901D01*
X2699Y901D02*
X2699Y901D01*
X7Y900D02*
X7Y900D01*
X2699Y900D02*
X2699Y900D01*
X7Y899D02*
X7Y899D01*
X2699Y899D02*
X2699Y899D01*
X7Y898D02*
X7Y898D01*
X2699Y898D02*
X2699Y898D01*
X7Y897D02*
X7Y897D01*
X2699Y897D02*
X2699Y897D01*
X7Y896D02*
X7Y896D01*
X2699Y896D02*
X2699Y896D01*
X7Y895D02*
X7Y895D01*
X2699Y895D02*
X2699Y895D01*
X7Y894D02*
X7Y894D01*
X2699Y894D02*
X2699Y894D01*
X7Y893D02*
X7Y893D01*
X2699Y893D02*
X2699Y893D01*
X7Y892D02*
X7Y892D01*
X2699Y892D02*
X2699Y892D01*
X7Y891D02*
X7Y891D01*
X2699Y891D02*
X2699Y891D01*
X7Y890D02*
X7Y890D01*
X2699Y890D02*
X2699Y890D01*
X7Y889D02*
X7Y889D01*
X2699Y889D02*
X2699Y889D01*
X7Y888D02*
X7Y888D01*
X2699Y888D02*
X2699Y888D01*
X7Y887D02*
X7Y887D01*
X2699Y887D02*
X2699Y887D01*
X7Y886D02*
X7Y886D01*
X2699Y886D02*
X2699Y886D01*
X7Y885D02*
X7Y885D01*
X2699Y885D02*
X2699Y885D01*
X7Y884D02*
X7Y884D01*
X2699Y884D02*
X2699Y884D01*
X7Y883D02*
X7Y883D01*
X2699Y883D02*
X2699Y883D01*
X7Y882D02*
X7Y882D01*
X2699Y882D02*
X2699Y882D01*
X7Y881D02*
X7Y881D01*
X2699Y881D02*
X2699Y881D01*
X7Y880D02*
X7Y880D01*
X2699Y880D02*
X2699Y880D01*
X7Y879D02*
X7Y879D01*
X2699Y879D02*
X2699Y879D01*
X7Y878D02*
X7Y878D01*
X2699Y878D02*
X2699Y878D01*
X7Y877D02*
X7Y877D01*
X2699Y877D02*
X2699Y877D01*
X7Y876D02*
X7Y876D01*
X2699Y876D02*
X2699Y876D01*
X7Y875D02*
X7Y875D01*
X2699Y875D02*
X2699Y875D01*
X7Y874D02*
X7Y874D01*
X2699Y874D02*
X2699Y874D01*
X7Y873D02*
X7Y873D01*
X2699Y873D02*
X2699Y873D01*
X7Y872D02*
X7Y872D01*
X2699Y872D02*
X2699Y872D01*
X7Y871D02*
X7Y871D01*
X2699Y871D02*
X2699Y871D01*
X7Y870D02*
X7Y870D01*
X2699Y870D02*
X2699Y870D01*
X7Y869D02*
X7Y869D01*
X2699Y869D02*
X2699Y869D01*
X7Y868D02*
X7Y868D01*
X2699Y868D02*
X2699Y868D01*
X7Y867D02*
X7Y867D01*
X2699Y867D02*
X2699Y867D01*
X7Y866D02*
X7Y866D01*
X2699Y866D02*
X2699Y866D01*
X7Y865D02*
X7Y865D01*
X2699Y865D02*
X2699Y865D01*
X7Y864D02*
X7Y864D01*
X2699Y864D02*
X2699Y864D01*
X7Y863D02*
X7Y863D01*
X2699Y863D02*
X2699Y863D01*
X7Y862D02*
X7Y862D01*
X2699Y862D02*
X2699Y862D01*
X7Y861D02*
X7Y861D01*
X2699Y861D02*
X2699Y861D01*
X7Y860D02*
X7Y860D01*
X2699Y860D02*
X2699Y860D01*
X7Y859D02*
X7Y859D01*
X2699Y859D02*
X2699Y859D01*
X7Y858D02*
X7Y858D01*
X2699Y858D02*
X2699Y858D01*
X7Y857D02*
X7Y857D01*
X2699Y857D02*
X2699Y857D01*
X7Y856D02*
X7Y856D01*
X2699Y856D02*
X2699Y856D01*
X7Y855D02*
X7Y855D01*
X2699Y855D02*
X2699Y855D01*
X7Y854D02*
X7Y854D01*
X2699Y854D02*
X2699Y854D01*
X7Y853D02*
X7Y853D01*
X2699Y853D02*
X2699Y853D01*
X7Y852D02*
X7Y852D01*
X2699Y852D02*
X2699Y852D01*
X7Y851D02*
X7Y851D01*
X2699Y851D02*
X2699Y851D01*
X7Y850D02*
X7Y850D01*
X2699Y850D02*
X2699Y850D01*
X7Y849D02*
X7Y849D01*
X2699Y849D02*
X2699Y849D01*
X7Y848D02*
X7Y848D01*
X2699Y848D02*
X2699Y848D01*
X7Y847D02*
X7Y847D01*
X2699Y847D02*
X2699Y847D01*
X7Y846D02*
X7Y846D01*
X2699Y846D02*
X2699Y846D01*
X7Y845D02*
X7Y845D01*
X2699Y845D02*
X2699Y845D01*
X7Y844D02*
X7Y844D01*
X2699Y844D02*
X2699Y844D01*
X7Y843D02*
X7Y843D01*
X2699Y843D02*
X2699Y843D01*
X7Y842D02*
X7Y842D01*
X2699Y842D02*
X2699Y842D01*
X7Y841D02*
X7Y841D01*
X2699Y841D02*
X2699Y841D01*
X7Y840D02*
X7Y840D01*
X2699Y840D02*
X2699Y840D01*
X7Y839D02*
X7Y839D01*
X2699Y839D02*
X2699Y839D01*
X7Y838D02*
X7Y838D01*
X2699Y838D02*
X2699Y838D01*
X7Y837D02*
X7Y837D01*
X2699Y837D02*
X2699Y837D01*
X7Y836D02*
X7Y836D01*
X2699Y836D02*
X2699Y836D01*
X7Y835D02*
X7Y835D01*
X2699Y835D02*
X2699Y835D01*
X7Y834D02*
X7Y834D01*
X2699Y834D02*
X2699Y834D01*
X7Y833D02*
X7Y833D01*
X2699Y833D02*
X2699Y833D01*
X7Y832D02*
X7Y832D01*
X2699Y832D02*
X2699Y832D01*
X7Y831D02*
X7Y831D01*
X2699Y831D02*
X2699Y831D01*
X7Y830D02*
X7Y830D01*
X2699Y830D02*
X2699Y830D01*
X7Y829D02*
X7Y829D01*
X2699Y829D02*
X2699Y829D01*
X7Y828D02*
X7Y828D01*
X2699Y828D02*
X2699Y828D01*
X7Y827D02*
X7Y827D01*
X2699Y827D02*
X2699Y827D01*
X7Y826D02*
X7Y826D01*
X2699Y826D02*
X2699Y826D01*
X7Y825D02*
X7Y825D01*
X2699Y825D02*
X2699Y825D01*
X7Y824D02*
X7Y824D01*
X2699Y824D02*
X2699Y824D01*
X7Y823D02*
X7Y823D01*
X2699Y823D02*
X2699Y823D01*
X7Y822D02*
X7Y822D01*
X2699Y822D02*
X2699Y822D01*
X7Y821D02*
X7Y821D01*
X2699Y821D02*
X2699Y821D01*
X7Y820D02*
X7Y820D01*
X2699Y820D02*
X2699Y820D01*
X7Y819D02*
X7Y819D01*
X2699Y819D02*
X2699Y819D01*
X7Y818D02*
X7Y818D01*
X2699Y818D02*
X2699Y818D01*
X7Y817D02*
X7Y817D01*
X2699Y817D02*
X2699Y817D01*
X7Y816D02*
X7Y816D01*
X2699Y816D02*
X2699Y816D01*
X7Y815D02*
X7Y815D01*
X2699Y815D02*
X2699Y815D01*
X7Y814D02*
X7Y814D01*
X2699Y814D02*
X2699Y814D01*
X7Y813D02*
X7Y813D01*
X2699Y813D02*
X2699Y813D01*
X7Y812D02*
X7Y812D01*
X2699Y812D02*
X2699Y812D01*
X7Y811D02*
X7Y811D01*
X2699Y811D02*
X2699Y811D01*
X7Y810D02*
X7Y810D01*
X2699Y810D02*
X2699Y810D01*
X7Y809D02*
X7Y809D01*
X2699Y809D02*
X2699Y809D01*
X7Y808D02*
X7Y808D01*
X2699Y808D02*
X2699Y808D01*
X7Y807D02*
X7Y807D01*
X2699Y807D02*
X2699Y807D01*
X7Y806D02*
X7Y806D01*
X2699Y806D02*
X2699Y806D01*
X7Y805D02*
X7Y805D01*
X2699Y805D02*
X2699Y805D01*
X7Y804D02*
X7Y804D01*
X2699Y804D02*
X2699Y804D01*
X7Y803D02*
X7Y803D01*
X2699Y803D02*
X2699Y803D01*
X7Y802D02*
X7Y802D01*
X2699Y802D02*
X2699Y802D01*
X7Y801D02*
X7Y801D01*
X2699Y801D02*
X2699Y801D01*
X7Y800D02*
X7Y800D01*
X2699Y800D02*
X2699Y800D01*
X7Y799D02*
X7Y799D01*
X2699Y799D02*
X2699Y799D01*
X7Y798D02*
X7Y798D01*
X2699Y798D02*
X2699Y798D01*
X7Y797D02*
X7Y797D01*
X2699Y797D02*
X2699Y797D01*
X7Y796D02*
X7Y796D01*
X2699Y796D02*
X2699Y796D01*
X7Y795D02*
X7Y795D01*
X2699Y795D02*
X2699Y795D01*
X7Y794D02*
X7Y794D01*
X2699Y794D02*
X2699Y794D01*
X7Y793D02*
X7Y793D01*
X2699Y793D02*
X2699Y793D01*
X7Y792D02*
X7Y792D01*
X2699Y792D02*
X2699Y792D01*
X7Y791D02*
X7Y791D01*
X2699Y791D02*
X2699Y791D01*
X7Y790D02*
X7Y790D01*
X2699Y790D02*
X2699Y790D01*
X7Y789D02*
X7Y789D01*
X2699Y789D02*
X2699Y789D01*
X7Y788D02*
X7Y788D01*
X2699Y788D02*
X2699Y788D01*
X7Y787D02*
X7Y787D01*
X2699Y787D02*
X2699Y787D01*
X7Y786D02*
X7Y786D01*
X2699Y786D02*
X2699Y786D01*
X7Y785D02*
X7Y785D01*
X2699Y785D02*
X2699Y785D01*
X7Y784D02*
X7Y784D01*
X2699Y784D02*
X2699Y784D01*
X7Y783D02*
X7Y783D01*
X2699Y783D02*
X2699Y783D01*
X7Y782D02*
X7Y782D01*
X2699Y782D02*
X2699Y782D01*
X7Y781D02*
X7Y781D01*
X2699Y781D02*
X2699Y781D01*
X7Y780D02*
X7Y780D01*
X2699Y780D02*
X2699Y780D01*
X7Y779D02*
X7Y779D01*
X2699Y779D02*
X2699Y779D01*
X7Y778D02*
X7Y778D01*
X2699Y778D02*
X2699Y778D01*
X7Y777D02*
X7Y777D01*
X2699Y777D02*
X2699Y777D01*
X7Y776D02*
X7Y776D01*
X2699Y776D02*
X2699Y776D01*
X7Y775D02*
X7Y775D01*
X2699Y775D02*
X2699Y775D01*
X7Y774D02*
X7Y774D01*
X2699Y774D02*
X2699Y774D01*
X7Y773D02*
X7Y773D01*
X2699Y773D02*
X2699Y773D01*
X7Y772D02*
X7Y772D01*
X2699Y772D02*
X2699Y772D01*
X7Y771D02*
X7Y771D01*
X2699Y771D02*
X2699Y771D01*
X7Y770D02*
X7Y770D01*
X2699Y770D02*
X2699Y770D01*
X7Y769D02*
X7Y769D01*
X2699Y769D02*
X2699Y769D01*
X7Y768D02*
X7Y768D01*
X2699Y768D02*
X2699Y768D01*
X7Y767D02*
X7Y767D01*
X2699Y767D02*
X2699Y767D01*
X7Y766D02*
X7Y766D01*
X2699Y766D02*
X2699Y766D01*
X7Y765D02*
X7Y765D01*
X2699Y765D02*
X2699Y765D01*
X7Y764D02*
X7Y764D01*
X2699Y764D02*
X2699Y764D01*
X7Y763D02*
X7Y763D01*
X2699Y763D02*
X2699Y763D01*
X7Y762D02*
X7Y762D01*
X2699Y762D02*
X2699Y762D01*
X7Y761D02*
X7Y761D01*
X2699Y761D02*
X2699Y761D01*
X7Y760D02*
X7Y760D01*
X2699Y760D02*
X2699Y760D01*
X7Y759D02*
X7Y759D01*
X2699Y759D02*
X2699Y759D01*
X7Y758D02*
X7Y758D01*
X2699Y758D02*
X2699Y758D01*
X7Y757D02*
X7Y757D01*
X2699Y757D02*
X2699Y757D01*
X7Y756D02*
X7Y756D01*
X2699Y756D02*
X2699Y756D01*
X7Y755D02*
X7Y755D01*
X2699Y755D02*
X2699Y755D01*
X7Y754D02*
X7Y754D01*
X2699Y754D02*
X2699Y754D01*
X7Y753D02*
X7Y753D01*
X2699Y753D02*
X2699Y753D01*
X7Y752D02*
X7Y752D01*
X2699Y752D02*
X2699Y752D01*
X7Y751D02*
X7Y751D01*
X2699Y751D02*
X2699Y751D01*
X7Y750D02*
X7Y750D01*
X2699Y750D02*
X2699Y750D01*
X7Y749D02*
X7Y749D01*
X2699Y749D02*
X2699Y749D01*
X7Y748D02*
X7Y748D01*
X2699Y748D02*
X2699Y748D01*
X7Y747D02*
X7Y747D01*
X2699Y747D02*
X2699Y747D01*
X7Y746D02*
X7Y746D01*
X2699Y746D02*
X2699Y746D01*
X7Y745D02*
X7Y745D01*
X2699Y745D02*
X2699Y745D01*
X7Y744D02*
X7Y744D01*
X2699Y744D02*
X2699Y744D01*
X7Y743D02*
X7Y743D01*
X2699Y743D02*
X2699Y743D01*
X7Y742D02*
X7Y742D01*
X2699Y742D02*
X2699Y742D01*
X7Y741D02*
X7Y741D01*
X2699Y741D02*
X2699Y741D01*
X7Y740D02*
X7Y740D01*
X2699Y740D02*
X2699Y740D01*
X7Y739D02*
X7Y739D01*
X2699Y739D02*
X2699Y739D01*
X7Y738D02*
X7Y738D01*
X2699Y738D02*
X2699Y738D01*
X7Y737D02*
X7Y737D01*
X2699Y737D02*
X2699Y737D01*
X7Y736D02*
X7Y736D01*
X2699Y736D02*
X2699Y736D01*
X7Y735D02*
X7Y735D01*
X2699Y735D02*
X2699Y735D01*
X7Y734D02*
X7Y734D01*
X2699Y734D02*
X2699Y734D01*
X7Y733D02*
X7Y733D01*
X2699Y733D02*
X2699Y733D01*
X7Y732D02*
X7Y732D01*
X2699Y732D02*
X2699Y732D01*
X7Y731D02*
X7Y731D01*
X2699Y731D02*
X2699Y731D01*
X7Y730D02*
X7Y730D01*
X2699Y730D02*
X2699Y730D01*
X7Y729D02*
X7Y729D01*
X2699Y729D02*
X2699Y729D01*
X7Y728D02*
X7Y728D01*
X2699Y728D02*
X2699Y728D01*
X7Y727D02*
X7Y727D01*
X2699Y727D02*
X2699Y727D01*
X7Y726D02*
X7Y726D01*
X2699Y726D02*
X2699Y726D01*
X7Y725D02*
X7Y725D01*
X2699Y725D02*
X2699Y725D01*
X7Y724D02*
X7Y724D01*
X2699Y724D02*
X2699Y724D01*
X7Y723D02*
X7Y723D01*
X2699Y723D02*
X2699Y723D01*
X7Y722D02*
X7Y722D01*
X2699Y722D02*
X2699Y722D01*
X7Y721D02*
X7Y721D01*
X2699Y721D02*
X2699Y721D01*
X7Y720D02*
X7Y720D01*
X2699Y720D02*
X2699Y720D01*
X7Y719D02*
X7Y719D01*
X2699Y719D02*
X2699Y719D01*
X7Y718D02*
X7Y718D01*
X2699Y718D02*
X2699Y718D01*
X7Y717D02*
X7Y717D01*
X2699Y717D02*
X2699Y717D01*
X7Y716D02*
X7Y716D01*
X2699Y716D02*
X2699Y716D01*
X7Y715D02*
X7Y715D01*
X2699Y715D02*
X2699Y715D01*
X7Y714D02*
X7Y714D01*
X2699Y714D02*
X2699Y714D01*
X7Y713D02*
X7Y713D01*
X2699Y713D02*
X2699Y713D01*
X7Y712D02*
X7Y712D01*
X2699Y712D02*
X2699Y712D01*
X7Y711D02*
X7Y711D01*
X2699Y711D02*
X2699Y711D01*
X7Y710D02*
X7Y710D01*
X2699Y710D02*
X2699Y710D01*
X7Y709D02*
X7Y709D01*
X2699Y709D02*
X2699Y709D01*
X7Y708D02*
X7Y708D01*
X2699Y708D02*
X2699Y708D01*
X7Y707D02*
X7Y707D01*
X2699Y707D02*
X2699Y707D01*
X7Y706D02*
X7Y706D01*
X2699Y706D02*
X2699Y706D01*
X7Y705D02*
X7Y705D01*
X2699Y705D02*
X2699Y705D01*
X7Y704D02*
X7Y704D01*
X2699Y704D02*
X2699Y704D01*
X7Y703D02*
X7Y703D01*
X2699Y703D02*
X2699Y703D01*
X7Y702D02*
X7Y702D01*
X2699Y702D02*
X2699Y702D01*
X7Y701D02*
X7Y701D01*
X2699Y701D02*
X2699Y701D01*
X7Y700D02*
X7Y700D01*
X2699Y700D02*
X2699Y700D01*
X7Y699D02*
X7Y699D01*
X2699Y699D02*
X2699Y699D01*
X7Y698D02*
X7Y698D01*
X2699Y698D02*
X2699Y698D01*
X7Y697D02*
X7Y697D01*
X2699Y697D02*
X2699Y697D01*
X7Y696D02*
X7Y696D01*
X2699Y696D02*
X2699Y696D01*
X7Y695D02*
X7Y695D01*
X2699Y695D02*
X2699Y695D01*
X7Y694D02*
X7Y694D01*
X2699Y694D02*
X2699Y694D01*
X7Y693D02*
X7Y693D01*
X2699Y693D02*
X2699Y693D01*
X7Y692D02*
X7Y692D01*
X2699Y692D02*
X2699Y692D01*
X7Y691D02*
X7Y691D01*
X2699Y691D02*
X2699Y691D01*
X7Y690D02*
X7Y690D01*
X2699Y690D02*
X2699Y690D01*
X7Y689D02*
X7Y689D01*
X2699Y689D02*
X2699Y689D01*
X7Y688D02*
X7Y688D01*
X2699Y688D02*
X2699Y688D01*
X7Y687D02*
X7Y687D01*
X2699Y687D02*
X2699Y687D01*
X7Y686D02*
X7Y686D01*
X2699Y686D02*
X2699Y686D01*
X7Y685D02*
X7Y685D01*
X2699Y685D02*
X2699Y685D01*
X7Y684D02*
X7Y684D01*
X2699Y684D02*
X2699Y684D01*
X7Y683D02*
X7Y683D01*
X2699Y683D02*
X2699Y683D01*
X7Y682D02*
X7Y682D01*
X2699Y682D02*
X2699Y682D01*
X7Y681D02*
X7Y681D01*
X2699Y681D02*
X2699Y681D01*
X7Y680D02*
X7Y680D01*
X2699Y680D02*
X2699Y680D01*
X7Y679D02*
X7Y679D01*
X2699Y679D02*
X2699Y679D01*
X7Y678D02*
X7Y678D01*
X2699Y678D02*
X2699Y678D01*
X7Y677D02*
X7Y677D01*
X2699Y677D02*
X2699Y677D01*
X7Y676D02*
X7Y676D01*
X2699Y676D02*
X2699Y676D01*
X7Y675D02*
X7Y675D01*
X2699Y675D02*
X2699Y675D01*
X7Y674D02*
X7Y674D01*
X2699Y674D02*
X2699Y674D01*
X7Y673D02*
X7Y673D01*
X2699Y673D02*
X2699Y673D01*
X7Y672D02*
X7Y672D01*
X2699Y672D02*
X2699Y672D01*
X7Y671D02*
X7Y671D01*
X2699Y671D02*
X2699Y671D01*
X7Y670D02*
X7Y670D01*
X2699Y670D02*
X2699Y670D01*
X7Y669D02*
X7Y669D01*
X2699Y669D02*
X2699Y669D01*
X7Y668D02*
X7Y668D01*
X2699Y668D02*
X2699Y668D01*
X7Y667D02*
X7Y667D01*
X2699Y667D02*
X2699Y667D01*
X7Y666D02*
X7Y666D01*
X2699Y666D02*
X2699Y666D01*
X7Y665D02*
X7Y665D01*
X2699Y665D02*
X2699Y665D01*
X7Y664D02*
X7Y664D01*
X2699Y664D02*
X2699Y664D01*
X7Y663D02*
X7Y663D01*
X2699Y663D02*
X2699Y663D01*
X7Y662D02*
X7Y662D01*
X2699Y662D02*
X2699Y662D01*
X7Y661D02*
X7Y661D01*
X2699Y661D02*
X2699Y661D01*
X7Y660D02*
X7Y660D01*
X2699Y660D02*
X2699Y660D01*
X7Y659D02*
X7Y659D01*
X2699Y659D02*
X2699Y659D01*
X7Y658D02*
X7Y658D01*
X2699Y658D02*
X2699Y658D01*
X7Y657D02*
X7Y657D01*
X2699Y657D02*
X2699Y657D01*
X7Y656D02*
X7Y656D01*
X2699Y656D02*
X2699Y656D01*
X7Y655D02*
X7Y655D01*
X2699Y655D02*
X2699Y655D01*
X7Y654D02*
X7Y654D01*
X2699Y654D02*
X2699Y654D01*
X7Y653D02*
X7Y653D01*
X2699Y653D02*
X2699Y653D01*
X7Y652D02*
X7Y652D01*
X2699Y652D02*
X2699Y652D01*
X7Y651D02*
X7Y651D01*
X2699Y651D02*
X2699Y651D01*
X7Y650D02*
X7Y650D01*
X2699Y650D02*
X2699Y650D01*
X7Y649D02*
X7Y649D01*
X2699Y649D02*
X2699Y649D01*
X7Y648D02*
X7Y648D01*
X2699Y648D02*
X2699Y648D01*
X7Y647D02*
X7Y647D01*
X2699Y647D02*
X2699Y647D01*
X7Y646D02*
X7Y646D01*
X2699Y646D02*
X2699Y646D01*
X7Y645D02*
X7Y645D01*
X2699Y645D02*
X2699Y645D01*
X7Y644D02*
X7Y644D01*
X2699Y644D02*
X2699Y644D01*
X7Y643D02*
X7Y643D01*
X2699Y643D02*
X2699Y643D01*
X7Y642D02*
X7Y642D01*
X2699Y642D02*
X2699Y642D01*
X7Y641D02*
X7Y641D01*
X2699Y641D02*
X2699Y641D01*
X7Y640D02*
X7Y640D01*
X2699Y640D02*
X2699Y640D01*
X7Y639D02*
X7Y639D01*
X2699Y639D02*
X2699Y639D01*
X7Y638D02*
X7Y638D01*
X2699Y638D02*
X2699Y638D01*
X7Y637D02*
X7Y637D01*
X2699Y637D02*
X2699Y637D01*
X7Y636D02*
X7Y636D01*
X2699Y636D02*
X2699Y636D01*
X7Y635D02*
X7Y635D01*
X2699Y635D02*
X2699Y635D01*
X7Y634D02*
X7Y634D01*
X2699Y634D02*
X2699Y634D01*
X7Y633D02*
X7Y633D01*
X2699Y633D02*
X2699Y633D01*
X7Y632D02*
X7Y632D01*
X2699Y632D02*
X2699Y632D01*
X7Y631D02*
X7Y631D01*
X2699Y631D02*
X2699Y631D01*
X7Y630D02*
X7Y630D01*
X2699Y630D02*
X2699Y630D01*
X7Y629D02*
X7Y629D01*
X2699Y629D02*
X2699Y629D01*
X7Y628D02*
X7Y628D01*
X2699Y628D02*
X2699Y628D01*
X7Y627D02*
X7Y627D01*
X2699Y627D02*
X2699Y627D01*
X7Y626D02*
X7Y626D01*
X2699Y626D02*
X2699Y626D01*
X7Y625D02*
X7Y625D01*
X2699Y625D02*
X2699Y625D01*
X7Y624D02*
X7Y624D01*
X2699Y624D02*
X2699Y624D01*
X7Y623D02*
X7Y623D01*
X2699Y623D02*
X2699Y623D01*
X7Y622D02*
X7Y622D01*
X2699Y622D02*
X2699Y622D01*
X7Y621D02*
X7Y621D01*
X2699Y621D02*
X2699Y621D01*
X7Y620D02*
X7Y620D01*
X2699Y620D02*
X2699Y620D01*
X7Y619D02*
X8Y619D01*
X2699Y619D02*
X2699Y619D01*
X8Y618D02*
X9Y618D01*
X2699Y618D02*
X2699Y618D01*
X9Y617D02*
X10Y617D01*
X2699Y617D02*
X2699Y617D01*
X10Y616D02*
X11Y616D01*
X2699Y616D02*
X2699Y616D01*
X11Y615D02*
X12Y615D01*
X2699Y615D02*
X2699Y615D01*
X12Y614D02*
X13Y614D01*
X2699Y614D02*
X2699Y614D01*
X13Y613D02*
X14Y613D01*
X2699Y613D02*
X2699Y613D01*
X14Y612D02*
X15Y612D01*
X2699Y612D02*
X2699Y612D01*
X15Y611D02*
X16Y611D01*
X2699Y611D02*
X2699Y611D01*
X16Y610D02*
X17Y610D01*
X2699Y610D02*
X2699Y610D01*
X17Y609D02*
X18Y609D01*
X2699Y609D02*
X2699Y609D01*
X18Y608D02*
X19Y608D01*
X2699Y608D02*
X2699Y608D01*
X19Y607D02*
X20Y607D01*
X2699Y607D02*
X2699Y607D01*
X20Y606D02*
X21Y606D01*
X2699Y606D02*
X2699Y606D01*
X21Y605D02*
X22Y605D01*
X2699Y605D02*
X2699Y605D01*
X22Y604D02*
X23Y604D01*
X2699Y604D02*
X2699Y604D01*
X23Y603D02*
X24Y603D01*
X2699Y603D02*
X2699Y603D01*
X24Y602D02*
X25Y602D01*
X2699Y602D02*
X2699Y602D01*
X25Y601D02*
X26Y601D01*
X2699Y601D02*
X2699Y601D01*
X26Y600D02*
X27Y600D01*
X2699Y600D02*
X2699Y600D01*
X27Y599D02*
X28Y599D01*
X2699Y599D02*
X2699Y599D01*
X28Y598D02*
X29Y598D01*
X2699Y598D02*
X2699Y598D01*
X29Y597D02*
X30Y597D01*
X2699Y597D02*
X2699Y597D01*
X30Y596D02*
X31Y596D01*
X2699Y596D02*
X2699Y596D01*
X31Y595D02*
X32Y595D01*
X2699Y595D02*
X2699Y595D01*
X32Y594D02*
X33Y594D01*
X2699Y594D02*
X2699Y594D01*
X33Y593D02*
X34Y593D01*
X2699Y593D02*
X2699Y593D01*
X34Y592D02*
X35Y592D01*
X2699Y592D02*
X2699Y592D01*
X35Y591D02*
X36Y591D01*
X2699Y591D02*
X2699Y591D01*
X36Y590D02*
X37Y590D01*
X2699Y590D02*
X2699Y590D01*
X37Y589D02*
X38Y589D01*
X2699Y589D02*
X2699Y589D01*
X38Y588D02*
X39Y588D01*
X2699Y588D02*
X2699Y588D01*
X39Y587D02*
X40Y587D01*
X2699Y587D02*
X2699Y587D01*
X40Y586D02*
X41Y586D01*
X2699Y586D02*
X2699Y586D01*
X41Y585D02*
X42Y585D01*
X2699Y585D02*
X2699Y585D01*
X42Y584D02*
X43Y584D01*
X2699Y584D02*
X2699Y584D01*
X43Y583D02*
X44Y583D01*
X2699Y583D02*
X2699Y583D01*
X44Y582D02*
X45Y582D01*
X2699Y582D02*
X2699Y582D01*
X45Y581D02*
X46Y581D01*
X2699Y581D02*
X2699Y581D01*
X46Y580D02*
X47Y580D01*
X2699Y580D02*
X2699Y580D01*
X47Y579D02*
X48Y579D01*
X2699Y579D02*
X2699Y579D01*
X48Y578D02*
X49Y578D01*
X2699Y578D02*
X2699Y578D01*
X49Y577D02*
X50Y577D01*
X2699Y577D02*
X2699Y577D01*
X50Y576D02*
X51Y576D01*
X2699Y576D02*
X2699Y576D01*
X51Y575D02*
X52Y575D01*
X2699Y575D02*
X2699Y575D01*
X52Y574D02*
X53Y574D01*
X2699Y574D02*
X2699Y574D01*
X53Y573D02*
X54Y573D01*
X2699Y573D02*
X2699Y573D01*
X54Y572D02*
X55Y572D01*
X2699Y572D02*
X2699Y572D01*
X55Y571D02*
X56Y571D01*
X2699Y571D02*
X2699Y571D01*
X56Y570D02*
X57Y570D01*
X2699Y570D02*
X2699Y570D01*
X57Y569D02*
X58Y569D01*
X2699Y569D02*
X2699Y569D01*
X58Y568D02*
X59Y568D01*
X2699Y568D02*
X2699Y568D01*
X59Y567D02*
X60Y567D01*
X2699Y567D02*
X2699Y567D01*
X60Y566D02*
X61Y566D01*
X2699Y566D02*
X2699Y566D01*
X61Y565D02*
X62Y565D01*
X2699Y565D02*
X2699Y565D01*
X62Y564D02*
X63Y564D01*
X2699Y564D02*
X2699Y564D01*
X64Y563D02*
X64Y563D01*
X2699Y563D02*
X2699Y563D01*
X65Y562D02*
X65Y562D01*
X2699Y562D02*
X2699Y562D01*
X66Y561D02*
X66Y561D01*
X2699Y561D02*
X2699Y561D01*
X67Y560D02*
X67Y560D01*
X2699Y560D02*
X2699Y560D01*
X68Y559D02*
X68Y559D01*
X2699Y559D02*
X2699Y559D01*
X69Y558D02*
X69Y558D01*
X2699Y558D02*
X2699Y558D01*
X70Y557D02*
X70Y557D01*
X2699Y557D02*
X2699Y557D01*
X71Y556D02*
X71Y556D01*
X2699Y556D02*
X2699Y556D01*
X72Y555D02*
X72Y555D01*
X2699Y555D02*
X2699Y555D01*
X73Y554D02*
X73Y554D01*
X2699Y554D02*
X2699Y554D01*
X74Y553D02*
X74Y553D01*
X2699Y553D02*
X2699Y553D01*
X75Y552D02*
X75Y552D01*
X2699Y552D02*
X2699Y552D01*
X76Y551D02*
X76Y551D01*
X2699Y551D02*
X2699Y551D01*
X77Y550D02*
X77Y550D01*
X2699Y550D02*
X2699Y550D01*
X78Y549D02*
X78Y549D01*
X2699Y549D02*
X2699Y549D01*
X79Y548D02*
X79Y548D01*
X2699Y548D02*
X2699Y548D01*
X80Y547D02*
X80Y547D01*
X2699Y547D02*
X2699Y547D01*
X81Y546D02*
X81Y546D01*
X2699Y546D02*
X2699Y546D01*
X82Y545D02*
X82Y545D01*
X2699Y545D02*
X2699Y545D01*
X83Y544D02*
X83Y544D01*
X2699Y544D02*
X2699Y544D01*
X84Y543D02*
X84Y543D01*
X2699Y543D02*
X2699Y543D01*
X85Y542D02*
X85Y542D01*
X2699Y542D02*
X2699Y542D01*
X86Y541D02*
X86Y541D01*
X2699Y541D02*
X2699Y541D01*
X87Y540D02*
X87Y540D01*
X2699Y540D02*
X2699Y540D01*
X88Y539D02*
X88Y539D01*
X2699Y539D02*
X2699Y539D01*
X89Y538D02*
X89Y538D01*
X2699Y538D02*
X2699Y538D01*
X90Y537D02*
X90Y537D01*
X2699Y537D02*
X2699Y537D01*
X91Y536D02*
X91Y536D01*
X2699Y536D02*
X2699Y536D01*
X92Y535D02*
X92Y535D01*
X2699Y535D02*
X2699Y535D01*
X93Y534D02*
X93Y534D01*
X2699Y534D02*
X2699Y534D01*
X94Y533D02*
X94Y533D01*
X2699Y533D02*
X2699Y533D01*
X95Y532D02*
X95Y532D01*
X2699Y532D02*
X2699Y532D01*
X96Y531D02*
X96Y531D01*
X2699Y531D02*
X2699Y531D01*
X97Y530D02*
X97Y530D01*
X2699Y530D02*
X2699Y530D01*
X98Y529D02*
X98Y529D01*
X2699Y529D02*
X2699Y529D01*
X99Y528D02*
X99Y528D01*
X2699Y528D02*
X2699Y528D01*
X100Y527D02*
X100Y527D01*
X2699Y527D02*
X2699Y527D01*
X101Y526D02*
X101Y526D01*
X2699Y526D02*
X2699Y526D01*
X102Y525D02*
X102Y525D01*
X2699Y525D02*
X2699Y525D01*
X103Y524D02*
X103Y524D01*
X2699Y524D02*
X2699Y524D01*
X104Y523D02*
X104Y523D01*
X2699Y523D02*
X2699Y523D01*
X105Y522D02*
X105Y522D01*
X2699Y522D02*
X2699Y522D01*
X106Y521D02*
X106Y521D01*
X2699Y521D02*
X2699Y521D01*
X107Y520D02*
X107Y520D01*
X2699Y520D02*
X2699Y520D01*
X107Y519D02*
X107Y519D01*
X2699Y519D02*
X2699Y519D01*
X107Y518D02*
X107Y518D01*
X2699Y518D02*
X2699Y518D01*
X107Y517D02*
X107Y517D01*
X2699Y517D02*
X2699Y517D01*
X107Y516D02*
X107Y516D01*
X2699Y516D02*
X2699Y516D01*
X107Y515D02*
X107Y515D01*
X2699Y515D02*
X2699Y515D01*
X107Y514D02*
X107Y514D01*
X2699Y514D02*
X2699Y514D01*
X107Y513D02*
X107Y513D01*
X2699Y513D02*
X2699Y513D01*
X107Y512D02*
X107Y512D01*
X2699Y512D02*
X2699Y512D01*
X107Y511D02*
X107Y511D01*
X2699Y511D02*
X2699Y511D01*
X107Y510D02*
X107Y510D01*
X2699Y510D02*
X2699Y510D01*
X107Y509D02*
X107Y509D01*
X2699Y509D02*
X2699Y509D01*
X107Y508D02*
X107Y508D01*
X2699Y508D02*
X2699Y508D01*
X107Y507D02*
X107Y507D01*
X2699Y507D02*
X2699Y507D01*
X107Y506D02*
X107Y506D01*
X2699Y506D02*
X2699Y506D01*
X107Y505D02*
X107Y505D01*
X2699Y505D02*
X2699Y505D01*
X107Y504D02*
X107Y504D01*
X2699Y504D02*
X2699Y504D01*
X107Y503D02*
X107Y503D01*
X2699Y503D02*
X2699Y503D01*
X107Y502D02*
X107Y502D01*
X2699Y502D02*
X2699Y502D01*
X107Y501D02*
X107Y501D01*
X2699Y501D02*
X2699Y501D01*
X107Y500D02*
X107Y500D01*
X2699Y500D02*
X2699Y500D01*
X107Y499D02*
X107Y499D01*
X2699Y499D02*
X2699Y499D01*
X107Y498D02*
X107Y498D01*
X2699Y498D02*
X2699Y498D01*
X107Y497D02*
X107Y497D01*
X2699Y497D02*
X2699Y497D01*
X107Y496D02*
X107Y496D01*
X2699Y496D02*
X2699Y496D01*
X107Y495D02*
X107Y495D01*
X2699Y495D02*
X2699Y495D01*
X107Y494D02*
X107Y494D01*
X2699Y494D02*
X2699Y494D01*
X107Y493D02*
X107Y493D01*
X2699Y493D02*
X2699Y493D01*
X107Y492D02*
X107Y492D01*
X2699Y492D02*
X2699Y492D01*
X107Y491D02*
X107Y491D01*
X2699Y491D02*
X2699Y491D01*
X107Y490D02*
X107Y490D01*
X2699Y490D02*
X2699Y490D01*
X107Y489D02*
X107Y489D01*
X2699Y489D02*
X2699Y489D01*
X107Y488D02*
X107Y488D01*
X2699Y488D02*
X2699Y488D01*
X107Y487D02*
X107Y487D01*
X2699Y487D02*
X2699Y487D01*
X107Y486D02*
X107Y486D01*
X2699Y486D02*
X2699Y486D01*
X107Y485D02*
X107Y485D01*
X2699Y485D02*
X2699Y485D01*
X107Y484D02*
X107Y484D01*
X2699Y484D02*
X2699Y484D01*
X107Y483D02*
X107Y483D01*
X2699Y483D02*
X2699Y483D01*
X107Y482D02*
X107Y482D01*
X2699Y482D02*
X2699Y482D01*
X107Y481D02*
X107Y481D01*
X2699Y481D02*
X2699Y481D01*
X107Y480D02*
X107Y480D01*
X2699Y480D02*
X2699Y480D01*
X107Y479D02*
X107Y479D01*
X2699Y479D02*
X2699Y479D01*
X107Y478D02*
X107Y478D01*
X2699Y478D02*
X2699Y478D01*
X107Y477D02*
X107Y477D01*
X2699Y477D02*
X2699Y477D01*
X107Y476D02*
X107Y476D01*
X2699Y476D02*
X2699Y476D01*
X107Y475D02*
X107Y475D01*
X2699Y475D02*
X2699Y475D01*
X107Y474D02*
X107Y474D01*
X2699Y474D02*
X2699Y474D01*
X107Y473D02*
X107Y473D01*
X2699Y473D02*
X2699Y473D01*
X107Y472D02*
X107Y472D01*
X2699Y472D02*
X2699Y472D01*
X107Y471D02*
X107Y471D01*
X2699Y471D02*
X2699Y471D01*
X107Y470D02*
X107Y470D01*
X2699Y470D02*
X2699Y470D01*
X107Y469D02*
X107Y469D01*
X2699Y469D02*
X2699Y469D01*
X107Y468D02*
X107Y468D01*
X2699Y468D02*
X2699Y468D01*
X107Y467D02*
X107Y467D01*
X2699Y467D02*
X2699Y467D01*
X107Y466D02*
X107Y466D01*
X2699Y466D02*
X2699Y466D01*
X107Y465D02*
X107Y465D01*
X2699Y465D02*
X2699Y465D01*
X107Y464D02*
X107Y464D01*
X2699Y464D02*
X2699Y464D01*
X107Y463D02*
X107Y463D01*
X2699Y463D02*
X2699Y463D01*
X107Y462D02*
X107Y462D01*
X2699Y462D02*
X2699Y462D01*
X107Y461D02*
X107Y461D01*
X2699Y461D02*
X2699Y461D01*
X107Y460D02*
X107Y460D01*
X2699Y460D02*
X2699Y460D01*
X107Y459D02*
X107Y459D01*
X2699Y459D02*
X2699Y459D01*
X107Y458D02*
X107Y458D01*
X2699Y458D02*
X2699Y458D01*
X107Y457D02*
X107Y457D01*
X2699Y457D02*
X2699Y457D01*
X107Y456D02*
X107Y456D01*
X2699Y456D02*
X2699Y456D01*
X107Y455D02*
X107Y455D01*
X2699Y455D02*
X2699Y455D01*
X107Y454D02*
X107Y454D01*
X2699Y454D02*
X2699Y454D01*
X107Y453D02*
X107Y453D01*
X2699Y453D02*
X2699Y453D01*
X107Y452D02*
X107Y452D01*
X2699Y452D02*
X2699Y452D01*
X107Y451D02*
X107Y451D01*
X2699Y451D02*
X2699Y451D01*
X107Y450D02*
X107Y450D01*
X2699Y450D02*
X2699Y450D01*
X107Y449D02*
X107Y449D01*
X2699Y449D02*
X2699Y449D01*
X107Y448D02*
X107Y448D01*
X2699Y448D02*
X2699Y448D01*
X107Y447D02*
X107Y447D01*
X2699Y447D02*
X2699Y447D01*
X107Y446D02*
X107Y446D01*
X2699Y446D02*
X2699Y446D01*
X107Y445D02*
X107Y445D01*
X2699Y445D02*
X2699Y445D01*
X107Y444D02*
X107Y444D01*
X2699Y444D02*
X2699Y444D01*
X107Y443D02*
X107Y443D01*
X2699Y443D02*
X2699Y443D01*
X107Y442D02*
X107Y442D01*
X2699Y442D02*
X2699Y442D01*
X107Y441D02*
X107Y441D01*
X2699Y441D02*
X2699Y441D01*
X107Y440D02*
X107Y440D01*
X2699Y440D02*
X2699Y440D01*
X107Y439D02*
X107Y439D01*
X2699Y439D02*
X2699Y439D01*
X107Y438D02*
X107Y438D01*
X2699Y438D02*
X2699Y438D01*
X107Y437D02*
X107Y437D01*
X2699Y437D02*
X2699Y437D01*
X107Y436D02*
X107Y436D01*
X2699Y436D02*
X2699Y436D01*
X107Y435D02*
X107Y435D01*
X2699Y435D02*
X2699Y435D01*
X107Y434D02*
X107Y434D01*
X2699Y434D02*
X2699Y434D01*
X107Y433D02*
X107Y433D01*
X2699Y433D02*
X2699Y433D01*
X107Y432D02*
X107Y432D01*
X2699Y432D02*
X2699Y432D01*
X107Y431D02*
X107Y431D01*
X2699Y431D02*
X2699Y431D01*
X107Y430D02*
X107Y430D01*
X2699Y430D02*
X2699Y430D01*
X107Y429D02*
X107Y429D01*
X2699Y429D02*
X2699Y429D01*
X107Y428D02*
X107Y428D01*
X2699Y428D02*
X2699Y428D01*
X107Y427D02*
X107Y427D01*
X2699Y427D02*
X2699Y427D01*
X107Y426D02*
X107Y426D01*
X2699Y426D02*
X2699Y426D01*
X107Y425D02*
X107Y425D01*
X2699Y425D02*
X2699Y425D01*
X107Y424D02*
X107Y424D01*
X2699Y424D02*
X2699Y424D01*
X107Y423D02*
X107Y423D01*
X2699Y423D02*
X2699Y423D01*
X107Y422D02*
X107Y422D01*
X2699Y422D02*
X2699Y422D01*
X107Y421D02*
X107Y421D01*
X2699Y421D02*
X2699Y421D01*
X107Y420D02*
X107Y420D01*
X2699Y420D02*
X2699Y420D01*
X107Y419D02*
X107Y419D01*
X2699Y419D02*
X2699Y419D01*
X107Y418D02*
X107Y418D01*
X2699Y418D02*
X2699Y418D01*
X107Y417D02*
X107Y417D01*
X2699Y417D02*
X2699Y417D01*
X107Y416D02*
X107Y416D01*
X2699Y416D02*
X2699Y416D01*
X107Y415D02*
X107Y415D01*
X2699Y415D02*
X2699Y415D01*
X107Y414D02*
X107Y414D01*
X2699Y414D02*
X2699Y414D01*
X107Y413D02*
X107Y413D01*
X2699Y413D02*
X2699Y413D01*
X107Y412D02*
X107Y412D01*
X2699Y412D02*
X2699Y412D01*
X107Y411D02*
X107Y411D01*
X2699Y411D02*
X2699Y411D01*
X107Y410D02*
X107Y410D01*
X2699Y410D02*
X2699Y410D01*
X107Y409D02*
X107Y409D01*
X2699Y409D02*
X2699Y409D01*
X107Y408D02*
X107Y408D01*
X2699Y408D02*
X2699Y408D01*
X107Y407D02*
X107Y407D01*
X2699Y407D02*
X2699Y407D01*
X107Y406D02*
X107Y406D01*
X2699Y406D02*
X2699Y406D01*
X107Y405D02*
X107Y405D01*
X2699Y405D02*
X2699Y405D01*
X107Y404D02*
X107Y404D01*
X2699Y404D02*
X2699Y404D01*
X107Y403D02*
X107Y403D01*
X2699Y403D02*
X2699Y403D01*
X107Y402D02*
X107Y402D01*
X2699Y402D02*
X2699Y402D01*
X107Y401D02*
X107Y401D01*
X2699Y401D02*
X2699Y401D01*
X107Y400D02*
X107Y400D01*
X2699Y400D02*
X2699Y400D01*
X107Y399D02*
X107Y399D01*
X2699Y399D02*
X2699Y399D01*
X107Y398D02*
X107Y398D01*
X2699Y398D02*
X2699Y398D01*
X107Y397D02*
X107Y397D01*
X2699Y397D02*
X2699Y397D01*
X107Y396D02*
X107Y396D01*
X2699Y396D02*
X2699Y396D01*
X107Y395D02*
X107Y395D01*
X2699Y395D02*
X2699Y395D01*
X107Y394D02*
X107Y394D01*
X2699Y394D02*
X2699Y394D01*
X107Y393D02*
X107Y393D01*
X2699Y393D02*
X2699Y393D01*
X107Y392D02*
X107Y392D01*
X2699Y392D02*
X2699Y392D01*
X107Y391D02*
X107Y391D01*
X2699Y391D02*
X2699Y391D01*
X107Y390D02*
X107Y390D01*
X2699Y390D02*
X2699Y390D01*
X107Y389D02*
X107Y389D01*
X2699Y389D02*
X2699Y389D01*
X107Y388D02*
X107Y388D01*
X2699Y388D02*
X2699Y388D01*
X107Y387D02*
X107Y387D01*
X2699Y387D02*
X2699Y387D01*
X107Y386D02*
X107Y386D01*
X2699Y386D02*
X2699Y386D01*
X107Y385D02*
X107Y385D01*
X2699Y385D02*
X2699Y385D01*
X107Y384D02*
X107Y384D01*
X2699Y384D02*
X2699Y384D01*
X107Y383D02*
X107Y383D01*
X2699Y383D02*
X2699Y383D01*
X107Y382D02*
X107Y382D01*
X2699Y382D02*
X2699Y382D01*
X107Y381D02*
X107Y381D01*
X2699Y381D02*
X2699Y381D01*
X107Y380D02*
X107Y380D01*
X2699Y380D02*
X2699Y380D01*
X107Y379D02*
X107Y379D01*
X2699Y379D02*
X2699Y379D01*
X107Y378D02*
X107Y378D01*
X2699Y378D02*
X2699Y378D01*
X107Y377D02*
X107Y377D01*
X2699Y377D02*
X2699Y377D01*
X107Y376D02*
X107Y376D01*
X2699Y376D02*
X2699Y376D01*
X107Y375D02*
X107Y375D01*
X2699Y375D02*
X2699Y375D01*
X107Y374D02*
X107Y374D01*
X2699Y374D02*
X2699Y374D01*
X107Y373D02*
X107Y373D01*
X2699Y373D02*
X2699Y373D01*
X107Y372D02*
X107Y372D01*
X2699Y372D02*
X2699Y372D01*
X107Y371D02*
X107Y371D01*
X2699Y371D02*
X2699Y371D01*
X107Y370D02*
X107Y370D01*
X2699Y370D02*
X2699Y370D01*
X107Y369D02*
X107Y369D01*
X2699Y369D02*
X2699Y369D01*
X107Y368D02*
X107Y368D01*
X2699Y368D02*
X2699Y368D01*
X107Y367D02*
X107Y367D01*
X2699Y367D02*
X2699Y367D01*
X107Y366D02*
X107Y366D01*
X2699Y366D02*
X2699Y366D01*
X107Y365D02*
X107Y365D01*
X2699Y365D02*
X2699Y365D01*
X107Y364D02*
X107Y364D01*
X2699Y364D02*
X2699Y364D01*
X107Y363D02*
X107Y363D01*
X2699Y363D02*
X2699Y363D01*
X107Y362D02*
X107Y362D01*
X2699Y362D02*
X2699Y362D01*
X107Y361D02*
X107Y361D01*
X2699Y361D02*
X2699Y361D01*
X107Y360D02*
X107Y360D01*
X2699Y360D02*
X2699Y360D01*
X107Y359D02*
X107Y359D01*
X2699Y359D02*
X2699Y359D01*
X107Y358D02*
X107Y358D01*
X2699Y358D02*
X2699Y358D01*
X107Y357D02*
X107Y357D01*
X2699Y357D02*
X2699Y357D01*
X107Y356D02*
X107Y356D01*
X2699Y356D02*
X2699Y356D01*
X107Y355D02*
X107Y355D01*
X2699Y355D02*
X2699Y355D01*
X107Y354D02*
X107Y354D01*
X2699Y354D02*
X2699Y354D01*
X107Y353D02*
X107Y353D01*
X2699Y353D02*
X2699Y353D01*
X107Y352D02*
X107Y352D01*
X2699Y352D02*
X2699Y352D01*
X107Y351D02*
X107Y351D01*
X2699Y351D02*
X2699Y351D01*
X107Y350D02*
X107Y350D01*
X2699Y350D02*
X2699Y350D01*
X107Y349D02*
X107Y349D01*
X2699Y349D02*
X2699Y349D01*
X107Y348D02*
X107Y348D01*
X2699Y348D02*
X2699Y348D01*
X107Y347D02*
X107Y347D01*
X2699Y347D02*
X2699Y347D01*
X107Y346D02*
X107Y346D01*
X2699Y346D02*
X2699Y346D01*
X107Y345D02*
X107Y345D01*
X2699Y345D02*
X2699Y345D01*
X107Y344D02*
X107Y344D01*
X2699Y344D02*
X2699Y344D01*
X107Y343D02*
X107Y343D01*
X2699Y343D02*
X2699Y343D01*
X107Y342D02*
X107Y342D01*
X2699Y342D02*
X2699Y342D01*
X107Y341D02*
X107Y341D01*
X2699Y341D02*
X2699Y341D01*
X107Y340D02*
X107Y340D01*
X2699Y340D02*
X2699Y340D01*
X107Y339D02*
X107Y339D01*
X2699Y339D02*
X2699Y339D01*
X107Y338D02*
X107Y338D01*
X2699Y338D02*
X2699Y338D01*
X107Y337D02*
X107Y337D01*
X2699Y337D02*
X2699Y337D01*
X107Y336D02*
X107Y336D01*
X2699Y336D02*
X2699Y336D01*
X107Y335D02*
X107Y335D01*
X2699Y335D02*
X2699Y335D01*
X107Y334D02*
X107Y334D01*
X2699Y334D02*
X2699Y334D01*
X107Y333D02*
X107Y333D01*
X2699Y333D02*
X2699Y333D01*
X107Y332D02*
X107Y332D01*
X2699Y332D02*
X2699Y332D01*
X107Y331D02*
X107Y331D01*
X2699Y331D02*
X2699Y331D01*
X107Y330D02*
X107Y330D01*
X2699Y330D02*
X2699Y330D01*
X107Y329D02*
X107Y329D01*
X2699Y329D02*
X2699Y329D01*
X107Y328D02*
X107Y328D01*
X2699Y328D02*
X2699Y328D01*
X107Y327D02*
X107Y327D01*
X2699Y327D02*
X2699Y327D01*
X107Y326D02*
X107Y326D01*
X2699Y326D02*
X2699Y326D01*
X107Y325D02*
X107Y325D01*
X2699Y325D02*
X2699Y325D01*
X107Y324D02*
X107Y324D01*
X2699Y324D02*
X2699Y324D01*
X107Y323D02*
X107Y323D01*
X2699Y323D02*
X2699Y323D01*
X107Y322D02*
X107Y322D01*
X2699Y322D02*
X2699Y322D01*
X107Y321D02*
X107Y321D01*
X2699Y321D02*
X2699Y321D01*
X107Y320D02*
X107Y320D01*
X2699Y320D02*
X2699Y320D01*
X107Y319D02*
X107Y319D01*
X2699Y319D02*
X2699Y319D01*
X107Y318D02*
X107Y318D01*
X2699Y318D02*
X2699Y318D01*
X107Y317D02*
X107Y317D01*
X2699Y317D02*
X2699Y317D01*
X107Y316D02*
X107Y316D01*
X2699Y316D02*
X2699Y316D01*
X107Y315D02*
X107Y315D01*
X2699Y315D02*
X2699Y315D01*
X107Y314D02*
X107Y314D01*
X2699Y314D02*
X2699Y314D01*
X107Y313D02*
X107Y313D01*
X2699Y313D02*
X2699Y313D01*
X107Y312D02*
X107Y312D01*
X2699Y312D02*
X2699Y312D01*
X107Y311D02*
X107Y311D01*
X2699Y311D02*
X2699Y311D01*
X107Y310D02*
X107Y310D01*
X2699Y310D02*
X2699Y310D01*
X107Y309D02*
X107Y309D01*
X2699Y309D02*
X2699Y309D01*
X107Y308D02*
X107Y308D01*
X2699Y308D02*
X2699Y308D01*
X107Y307D02*
X107Y307D01*
X2699Y307D02*
X2699Y307D01*
X107Y306D02*
X107Y306D01*
X2699Y306D02*
X2699Y306D01*
X107Y305D02*
X107Y305D01*
X2699Y305D02*
X2699Y305D01*
X107Y304D02*
X107Y304D01*
X2699Y304D02*
X2699Y304D01*
X107Y303D02*
X107Y303D01*
X2699Y303D02*
X2699Y303D01*
X107Y302D02*
X107Y302D01*
X2699Y302D02*
X2699Y302D01*
X107Y301D02*
X107Y301D01*
X2699Y301D02*
X2699Y301D01*
X107Y300D02*
X107Y300D01*
X2699Y300D02*
X2699Y300D01*
X107Y299D02*
X107Y299D01*
X2699Y299D02*
X2699Y299D01*
X107Y298D02*
X107Y298D01*
X2699Y298D02*
X2699Y298D01*
X107Y297D02*
X107Y297D01*
X2699Y297D02*
X2699Y297D01*
X107Y296D02*
X107Y296D01*
X2699Y296D02*
X2699Y296D01*
X107Y295D02*
X107Y295D01*
X2699Y295D02*
X2699Y295D01*
X107Y294D02*
X107Y294D01*
X2699Y294D02*
X2699Y294D01*
X107Y293D02*
X107Y293D01*
X2699Y293D02*
X2699Y293D01*
X107Y292D02*
X107Y292D01*
X2699Y292D02*
X2699Y292D01*
X107Y291D02*
X107Y291D01*
X2699Y291D02*
X2699Y291D01*
X107Y290D02*
X107Y290D01*
X2699Y290D02*
X2699Y290D01*
X107Y289D02*
X107Y289D01*
X2699Y289D02*
X2699Y289D01*
X107Y288D02*
X107Y288D01*
X2699Y288D02*
X2699Y288D01*
X107Y287D02*
X107Y287D01*
X2699Y287D02*
X2699Y287D01*
X107Y286D02*
X107Y286D01*
X2699Y286D02*
X2699Y286D01*
X107Y285D02*
X107Y285D01*
X2699Y285D02*
X2699Y285D01*
X107Y284D02*
X107Y284D01*
X2699Y284D02*
X2699Y284D01*
X107Y283D02*
X107Y283D01*
X2699Y283D02*
X2699Y283D01*
X107Y282D02*
X107Y282D01*
X2699Y282D02*
X2699Y282D01*
X107Y281D02*
X107Y281D01*
X2699Y281D02*
X2699Y281D01*
X107Y280D02*
X107Y280D01*
X2699Y280D02*
X2699Y280D01*
X107Y279D02*
X107Y279D01*
X2699Y279D02*
X2699Y279D01*
X107Y278D02*
X107Y278D01*
X2699Y278D02*
X2699Y278D01*
X107Y277D02*
X107Y277D01*
X2699Y277D02*
X2699Y277D01*
X107Y276D02*
X107Y276D01*
X2699Y276D02*
X2699Y276D01*
X107Y275D02*
X107Y275D01*
X2699Y275D02*
X2699Y275D01*
X107Y274D02*
X107Y274D01*
X2699Y274D02*
X2699Y274D01*
X107Y273D02*
X107Y273D01*
X2699Y273D02*
X2699Y273D01*
X107Y272D02*
X107Y272D01*
X2699Y272D02*
X2699Y272D01*
X107Y271D02*
X107Y271D01*
X2699Y271D02*
X2699Y271D01*
X107Y270D02*
X107Y270D01*
X2699Y270D02*
X2699Y270D01*
X107Y269D02*
X107Y269D01*
X2699Y269D02*
X2699Y269D01*
X107Y268D02*
X107Y268D01*
X2699Y268D02*
X2699Y268D01*
X107Y267D02*
X107Y267D01*
X2699Y267D02*
X2699Y267D01*
X107Y266D02*
X107Y266D01*
X2699Y266D02*
X2699Y266D01*
X107Y265D02*
X107Y265D01*
X2699Y265D02*
X2699Y265D01*
X107Y264D02*
X107Y264D01*
X2699Y264D02*
X2699Y264D01*
X107Y263D02*
X107Y263D01*
X2699Y263D02*
X2699Y263D01*
X107Y262D02*
X107Y262D01*
X2699Y262D02*
X2699Y262D01*
X107Y261D02*
X107Y261D01*
X2699Y261D02*
X2699Y261D01*
X107Y260D02*
X107Y260D01*
X2699Y260D02*
X2699Y260D01*
X107Y259D02*
X107Y259D01*
X2699Y259D02*
X2699Y259D01*
X107Y258D02*
X107Y258D01*
X2699Y258D02*
X2699Y258D01*
X107Y257D02*
X107Y257D01*
X2699Y257D02*
X2699Y257D01*
X107Y256D02*
X107Y256D01*
X2699Y256D02*
X2699Y256D01*
X107Y255D02*
X107Y255D01*
X2699Y255D02*
X2699Y255D01*
X107Y254D02*
X107Y254D01*
X2699Y254D02*
X2699Y254D01*
X107Y253D02*
X107Y253D01*
X2699Y253D02*
X2699Y253D01*
X107Y252D02*
X107Y252D01*
X2699Y252D02*
X2699Y252D01*
X107Y251D02*
X107Y251D01*
X2699Y251D02*
X2699Y251D01*
X107Y250D02*
X107Y250D01*
X2699Y250D02*
X2699Y250D01*
X107Y249D02*
X107Y249D01*
X2699Y249D02*
X2699Y249D01*
X107Y248D02*
X107Y248D01*
X2699Y248D02*
X2699Y248D01*
X107Y247D02*
X107Y247D01*
X2699Y247D02*
X2699Y247D01*
X107Y246D02*
X107Y246D01*
X2699Y246D02*
X2699Y246D01*
X107Y245D02*
X107Y245D01*
X2699Y245D02*
X2699Y245D01*
X107Y244D02*
X107Y244D01*
X2699Y244D02*
X2699Y244D01*
X107Y243D02*
X107Y243D01*
X2699Y243D02*
X2699Y243D01*
X107Y242D02*
X107Y242D01*
X2699Y242D02*
X2699Y242D01*
X107Y241D02*
X107Y241D01*
X2699Y241D02*
X2699Y241D01*
X107Y240D02*
X107Y240D01*
X2699Y240D02*
X2699Y240D01*
X107Y239D02*
X107Y239D01*
X2699Y239D02*
X2699Y239D01*
X107Y238D02*
X107Y238D01*
X2699Y238D02*
X2699Y238D01*
X107Y237D02*
X107Y237D01*
X2699Y237D02*
X2699Y237D01*
X107Y236D02*
X107Y236D01*
X2699Y236D02*
X2699Y236D01*
X107Y235D02*
X107Y235D01*
X2699Y235D02*
X2699Y235D01*
X107Y234D02*
X107Y234D01*
X2699Y234D02*
X2699Y234D01*
X107Y233D02*
X107Y233D01*
X2699Y233D02*
X2699Y233D01*
X107Y232D02*
X107Y232D01*
X2699Y232D02*
X2699Y232D01*
X107Y231D02*
X107Y231D01*
X2699Y231D02*
X2699Y231D01*
X107Y230D02*
X107Y230D01*
X2699Y230D02*
X2699Y230D01*
X107Y229D02*
X107Y229D01*
X2699Y229D02*
X2699Y229D01*
X107Y228D02*
X107Y228D01*
X2699Y228D02*
X2699Y228D01*
X107Y227D02*
X107Y227D01*
X2699Y227D02*
X2699Y227D01*
X107Y226D02*
X107Y226D01*
X2699Y226D02*
X2699Y226D01*
X107Y225D02*
X107Y225D01*
X2699Y225D02*
X2699Y225D01*
X107Y224D02*
X107Y224D01*
X2699Y224D02*
X2699Y224D01*
X107Y223D02*
X107Y223D01*
X2699Y223D02*
X2699Y223D01*
X107Y222D02*
X107Y222D01*
X2699Y222D02*
X2699Y222D01*
X107Y221D02*
X107Y221D01*
X2699Y221D02*
X2699Y221D01*
X107Y220D02*
X107Y220D01*
X2699Y220D02*
X2699Y220D01*
X107Y219D02*
X107Y219D01*
X2699Y219D02*
X2699Y219D01*
X107Y218D02*
X107Y218D01*
X2699Y218D02*
X2699Y218D01*
X107Y217D02*
X107Y217D01*
X2699Y217D02*
X2699Y217D01*
X107Y216D02*
X107Y216D01*
X2699Y216D02*
X2699Y216D01*
X107Y215D02*
X107Y215D01*
X2699Y215D02*
X2699Y215D01*
X107Y214D02*
X107Y214D01*
X2699Y214D02*
X2699Y214D01*
X107Y213D02*
X107Y213D01*
X2699Y213D02*
X2699Y213D01*
X107Y212D02*
X107Y212D01*
X2699Y212D02*
X2699Y212D01*
X107Y211D02*
X107Y211D01*
X2699Y211D02*
X2699Y211D01*
X107Y210D02*
X107Y210D01*
X2699Y210D02*
X2699Y210D01*
X107Y209D02*
X107Y209D01*
X2699Y209D02*
X2699Y209D01*
X107Y208D02*
X107Y208D01*
X2699Y208D02*
X2699Y208D01*
X107Y207D02*
X107Y207D01*
X2699Y207D02*
X2699Y207D01*
X107Y206D02*
X107Y206D01*
X2699Y206D02*
X2699Y206D01*
X107Y205D02*
X107Y205D01*
X2699Y205D02*
X2699Y205D01*
X107Y204D02*
X107Y204D01*
X2699Y204D02*
X2699Y204D01*
X107Y203D02*
X107Y203D01*
X2699Y203D02*
X2699Y203D01*
X107Y202D02*
X107Y202D01*
X2699Y202D02*
X2699Y202D01*
X107Y201D02*
X107Y201D01*
X2699Y201D02*
X2699Y201D01*
X107Y200D02*
X107Y200D01*
X2699Y200D02*
X2699Y200D01*
X107Y199D02*
X107Y199D01*
X2699Y199D02*
X2699Y199D01*
X107Y198D02*
X107Y198D01*
X2699Y198D02*
X2699Y198D01*
X107Y197D02*
X107Y197D01*
X2699Y197D02*
X2699Y197D01*
X107Y196D02*
X107Y196D01*
X2699Y196D02*
X2699Y196D01*
X107Y195D02*
X107Y195D01*
X2699Y195D02*
X2699Y195D01*
X107Y194D02*
X107Y194D01*
X2699Y194D02*
X2699Y194D01*
X107Y193D02*
X107Y193D01*
X2699Y193D02*
X2699Y193D01*
X107Y192D02*
X107Y192D01*
X2699Y192D02*
X2699Y192D01*
X107Y191D02*
X107Y191D01*
X2699Y191D02*
X2699Y191D01*
X107Y190D02*
X107Y190D01*
X2699Y190D02*
X2699Y190D01*
X107Y189D02*
X107Y189D01*
X2699Y189D02*
X2699Y189D01*
X107Y188D02*
X107Y188D01*
X2699Y188D02*
X2699Y188D01*
X107Y187D02*
X107Y187D01*
X2699Y187D02*
X2699Y187D01*
X107Y186D02*
X107Y186D01*
X2699Y186D02*
X2699Y186D01*
X107Y185D02*
X107Y185D01*
X2699Y185D02*
X2699Y185D01*
X107Y184D02*
X107Y184D01*
X2699Y184D02*
X2699Y184D01*
X107Y183D02*
X107Y183D01*
X2699Y183D02*
X2699Y183D01*
X107Y182D02*
X107Y182D01*
X2699Y182D02*
X2699Y182D01*
X107Y181D02*
X107Y181D01*
X2699Y181D02*
X2699Y181D01*
X107Y180D02*
X107Y180D01*
X2699Y180D02*
X2699Y180D01*
X107Y179D02*
X107Y179D01*
X2699Y179D02*
X2699Y179D01*
X107Y178D02*
X107Y178D01*
X2699Y178D02*
X2699Y178D01*
X107Y177D02*
X107Y177D01*
X2699Y177D02*
X2699Y177D01*
X107Y176D02*
X107Y176D01*
X2699Y176D02*
X2699Y176D01*
X107Y175D02*
X107Y175D01*
X2699Y175D02*
X2699Y175D01*
X107Y174D02*
X107Y174D01*
X2699Y174D02*
X2699Y174D01*
X107Y173D02*
X107Y173D01*
X2699Y173D02*
X2699Y173D01*
X107Y172D02*
X107Y172D01*
X2699Y172D02*
X2699Y172D01*
X107Y171D02*
X107Y171D01*
X2699Y171D02*
X2699Y171D01*
X107Y170D02*
X107Y170D01*
X2699Y170D02*
X2699Y170D01*
X107Y169D02*
X107Y169D01*
X2699Y169D02*
X2699Y169D01*
X107Y168D02*
X107Y168D01*
X2699Y168D02*
X2699Y168D01*
X107Y167D02*
X107Y167D01*
X2699Y167D02*
X2699Y167D01*
X107Y166D02*
X107Y166D01*
X2699Y166D02*
X2699Y166D01*
X107Y165D02*
X107Y165D01*
X2699Y165D02*
X2699Y165D01*
X107Y164D02*
X107Y164D01*
X2699Y164D02*
X2699Y164D01*
X107Y163D02*
X107Y163D01*
X2699Y163D02*
X2699Y163D01*
X107Y162D02*
X107Y162D01*
X2699Y162D02*
X2699Y162D01*
X107Y161D02*
X107Y161D01*
X2699Y161D02*
X2699Y161D01*
X107Y160D02*
X107Y160D01*
X2699Y160D02*
X2699Y160D01*
X107Y159D02*
X107Y159D01*
X2699Y159D02*
X2699Y159D01*
X107Y158D02*
X107Y158D01*
X2699Y158D02*
X2699Y158D01*
X107Y157D02*
X107Y157D01*
X2699Y157D02*
X2699Y157D01*
X107Y156D02*
X107Y156D01*
X2699Y156D02*
X2699Y156D01*
X107Y155D02*
X107Y155D01*
X2699Y155D02*
X2699Y155D01*
X107Y154D02*
X107Y154D01*
X2699Y154D02*
X2699Y154D01*
X107Y153D02*
X107Y153D01*
X2699Y153D02*
X2699Y153D01*
X107Y152D02*
X107Y152D01*
X2699Y152D02*
X2699Y152D01*
X107Y151D02*
X107Y151D01*
X2699Y151D02*
X2699Y151D01*
X107Y150D02*
X107Y150D01*
X2699Y150D02*
X2699Y150D01*
X107Y149D02*
X107Y149D01*
X2699Y149D02*
X2699Y149D01*
X107Y148D02*
X107Y148D01*
X2699Y148D02*
X2699Y148D01*
X107Y147D02*
X107Y147D01*
X2699Y147D02*
X2699Y147D01*
X107Y146D02*
X107Y146D01*
X2699Y146D02*
X2699Y146D01*
X107Y145D02*
X107Y145D01*
X2699Y145D02*
X2699Y145D01*
X107Y144D02*
X107Y144D01*
X2699Y144D02*
X2699Y144D01*
X107Y143D02*
X107Y143D01*
X2699Y143D02*
X2699Y143D01*
X107Y142D02*
X107Y142D01*
X2699Y142D02*
X2699Y142D01*
X107Y141D02*
X107Y141D01*
X2699Y141D02*
X2699Y141D01*
X107Y140D02*
X107Y140D01*
X2699Y140D02*
X2699Y140D01*
X107Y139D02*
X107Y139D01*
X2699Y139D02*
X2699Y139D01*
X107Y138D02*
X107Y138D01*
X2699Y138D02*
X2699Y138D01*
X107Y137D02*
X107Y137D01*
X2699Y137D02*
X2699Y137D01*
X107Y136D02*
X107Y136D01*
X2699Y136D02*
X2699Y136D01*
X107Y135D02*
X107Y135D01*
X2699Y135D02*
X2699Y135D01*
X107Y134D02*
X107Y134D01*
X2699Y134D02*
X2699Y134D01*
X107Y133D02*
X107Y133D01*
X2699Y133D02*
X2699Y133D01*
X107Y132D02*
X107Y132D01*
X2699Y132D02*
X2699Y132D01*
X107Y131D02*
X107Y131D01*
X2699Y131D02*
X2699Y131D01*
X107Y130D02*
X107Y130D01*
X2699Y130D02*
X2699Y130D01*
X107Y129D02*
X107Y129D01*
X2699Y129D02*
X2699Y129D01*
X107Y128D02*
X107Y128D01*
X2699Y128D02*
X2699Y128D01*
X107Y127D02*
X107Y127D01*
X2699Y127D02*
X2699Y127D01*
X107Y126D02*
X107Y126D01*
X2699Y126D02*
X2699Y126D01*
X107Y125D02*
X107Y125D01*
X2699Y125D02*
X2699Y125D01*
X107Y124D02*
X107Y124D01*
X2699Y124D02*
X2699Y124D01*
X107Y123D02*
X107Y123D01*
X2699Y123D02*
X2699Y123D01*
X107Y122D02*
X107Y122D01*
X2699Y122D02*
X2699Y122D01*
X107Y121D02*
X107Y121D01*
X2699Y121D02*
X2699Y121D01*
X107Y120D02*
X107Y120D01*
X2699Y120D02*
X2699Y120D01*
X107Y119D02*
X107Y119D01*
X2699Y119D02*
X2699Y119D01*
X107Y118D02*
X107Y118D01*
X2699Y118D02*
X2699Y118D01*
X107Y117D02*
X107Y117D01*
X2699Y117D02*
X2699Y117D01*
X107Y116D02*
X107Y116D01*
X2699Y116D02*
X2699Y116D01*
X107Y115D02*
X107Y115D01*
X2699Y115D02*
X2699Y115D01*
X107Y114D02*
X107Y114D01*
X2699Y114D02*
X2699Y114D01*
X107Y113D02*
X107Y113D01*
X2699Y113D02*
X2699Y113D01*
X107Y112D02*
X107Y112D01*
X2699Y112D02*
X2699Y112D01*
X107Y111D02*
X107Y111D01*
X2699Y111D02*
X2699Y111D01*
X107Y110D02*
X107Y110D01*
X2699Y110D02*
X2699Y110D01*
X107Y109D02*
X107Y109D01*
X2699Y109D02*
X2699Y109D01*
X107Y108D02*
X107Y108D01*
X2699Y108D02*
X2699Y108D01*
X107Y107D02*
X107Y107D01*
X2699Y107D02*
X2699Y107D01*
X107Y106D02*
X107Y106D01*
X2699Y106D02*
X2699Y106D01*
X107Y105D02*
X107Y105D01*
X2699Y105D02*
X2699Y105D01*
X107Y104D02*
X107Y104D01*
X2699Y104D02*
X2699Y104D01*
X107Y103D02*
X107Y103D01*
X2699Y103D02*
X2699Y103D01*
X107Y102D02*
X107Y102D01*
X2699Y102D02*
X2699Y102D01*
X107Y101D02*
X107Y101D01*
X2699Y101D02*
X2699Y101D01*
X107Y100D02*
X107Y100D01*
X2699Y100D02*
X2699Y100D01*
X107Y99D02*
X107Y99D01*
X2699Y99D02*
X2699Y99D01*
X107Y98D02*
X107Y98D01*
X2699Y98D02*
X2699Y98D01*
X107Y97D02*
X107Y97D01*
X2699Y97D02*
X2699Y97D01*
X107Y96D02*
X107Y96D01*
X2699Y96D02*
X2699Y96D01*
X107Y95D02*
X107Y95D01*
X2699Y95D02*
X2699Y95D01*
X107Y94D02*
X107Y94D01*
X2699Y94D02*
X2699Y94D01*
X107Y93D02*
X107Y93D01*
X2699Y93D02*
X2699Y93D01*
X107Y92D02*
X107Y92D01*
X2699Y92D02*
X2699Y92D01*
X107Y91D02*
X107Y91D01*
X2699Y91D02*
X2699Y91D01*
X107Y90D02*
X107Y90D01*
X2699Y90D02*
X2699Y90D01*
X107Y89D02*
X107Y89D01*
X2699Y89D02*
X2699Y89D01*
X107Y88D02*
X107Y88D01*
X2699Y88D02*
X2699Y88D01*
X107Y87D02*
X107Y87D01*
X2699Y87D02*
X2699Y87D01*
X107Y86D02*
X107Y86D01*
X2699Y86D02*
X2699Y86D01*
X107Y85D02*
X107Y85D01*
X2699Y85D02*
X2699Y85D01*
X107Y84D02*
X107Y84D01*
X2699Y84D02*
X2699Y84D01*
X107Y83D02*
X107Y83D01*
X2699Y83D02*
X2699Y83D01*
X107Y82D02*
X107Y82D01*
X2699Y82D02*
X2699Y82D01*
X107Y81D02*
X107Y81D01*
X2699Y81D02*
X2699Y81D01*
X107Y80D02*
X107Y80D01*
X2699Y80D02*
X2699Y80D01*
X107Y79D02*
X107Y79D01*
X2699Y79D02*
X2699Y79D01*
X107Y78D02*
X107Y78D01*
X2699Y78D02*
X2699Y78D01*
X107Y77D02*
X107Y77D01*
X2699Y77D02*
X2699Y77D01*
X107Y76D02*
X107Y76D01*
X2699Y76D02*
X2699Y76D01*
X107Y75D02*
X107Y75D01*
X2699Y75D02*
X2699Y75D01*
X107Y74D02*
X107Y74D01*
X2699Y74D02*
X2699Y74D01*
X107Y73D02*
X107Y73D01*
X2699Y73D02*
X2699Y73D01*
X107Y72D02*
X107Y72D01*
X2699Y72D02*
X2699Y72D01*
X107Y71D02*
X108Y71D01*
X2699Y71D02*
X2699Y71D01*
X108Y70D02*
X109Y70D01*
X2699Y70D02*
X2699Y70D01*
X109Y69D02*
X110Y69D01*
X2699Y69D02*
X2699Y69D01*
X110Y68D02*
X111Y68D01*
X2699Y68D02*
X2699Y68D01*
X111Y67D02*
X112Y67D01*
X2699Y67D02*
X2699Y67D01*
X112Y66D02*
X113Y66D01*
X2699Y66D02*
X2699Y66D01*
X113Y65D02*
X114Y65D01*
X2699Y65D02*
X2699Y65D01*
X114Y64D02*
X115Y64D01*
X2699Y64D02*
X2699Y64D01*
X115Y63D02*
X116Y63D01*
X2699Y63D02*
X2699Y63D01*
X116Y62D02*
X117Y62D01*
X2699Y62D02*
X2699Y62D01*
X117Y61D02*
X118Y61D01*
X2699Y61D02*
X2699Y61D01*
X118Y60D02*
X119Y60D01*
X2699Y60D02*
X2699Y60D01*
X119Y59D02*
X120Y59D01*
X2699Y59D02*
X2699Y59D01*
X120Y58D02*
X121Y58D01*
X2699Y58D02*
X2699Y58D01*
X121Y57D02*
X122Y57D01*
X2699Y57D02*
X2699Y57D01*
X122Y56D02*
X123Y56D01*
X2699Y56D02*
X2699Y56D01*
X123Y55D02*
X124Y55D01*
X2699Y55D02*
X2699Y55D01*
X124Y54D02*
X125Y54D01*
X2699Y54D02*
X2699Y54D01*
X125Y53D02*
X126Y53D01*
X2699Y53D02*
X2699Y53D01*
X126Y52D02*
X127Y52D01*
X2699Y52D02*
X2699Y52D01*
X127Y51D02*
X128Y51D01*
X2699Y51D02*
X2699Y51D01*
X128Y50D02*
X129Y50D01*
X2699Y50D02*
X2699Y50D01*
X129Y49D02*
X130Y49D01*
X2699Y49D02*
X2699Y49D01*
X130Y48D02*
X131Y48D01*
X2699Y48D02*
X2699Y48D01*
X131Y47D02*
X132Y47D01*
X2699Y47D02*
X2699Y47D01*
X132Y46D02*
X133Y46D01*
X2699Y46D02*
X2699Y46D01*
X133Y45D02*
X134Y45D01*
X2699Y45D02*
X2699Y45D01*
X134Y44D02*
X135Y44D01*
X2699Y44D02*
X2699Y44D01*
X135Y43D02*
X136Y43D01*
X2699Y43D02*
X2699Y43D01*
X136Y42D02*
X137Y42D01*
X2699Y42D02*
X2699Y42D01*
X137Y41D02*
X138Y41D01*
X2699Y41D02*
X2699Y41D01*
X138Y40D02*
X139Y40D01*
X2699Y40D02*
X2699Y40D01*
X139Y39D02*
X140Y39D01*
X2698Y39D02*
X2698Y39D01*
X140Y38D02*
X141Y38D01*
X2698Y38D02*
X2698Y38D01*
X141Y37D02*
X142Y37D01*
X2698Y37D02*
X2698Y37D01*
X142Y36D02*
X143Y36D01*
X2698Y36D02*
X2698Y36D01*
X143Y35D02*
X144Y35D01*
X2697Y35D02*
X2697Y35D01*
X144Y34D02*
X145Y34D01*
X2697Y34D02*
X2697Y34D01*
X145Y33D02*
X146Y33D01*
X2696Y33D02*
X2696Y33D01*
X146Y32D02*
X147Y32D01*
X2696Y32D02*
X2696Y32D01*
X147Y31D02*
X148Y31D01*
X2695Y31D02*
X2696Y31D01*
X148Y30D02*
X149Y30D01*
X2695Y30D02*
X2695Y30D01*
X149Y29D02*
X150Y29D01*
X2694Y29D02*
X2694Y29D01*
X150Y28D02*
X151Y28D01*
X2694Y28D02*
X2694Y28D01*
X151Y27D02*
X152Y27D01*
X2693Y27D02*
X2693Y27D01*
X152Y26D02*
X153Y26D01*
X2692Y26D02*
X2692Y26D01*
X153Y25D02*
X154Y25D01*
X2692Y25D02*
X2692Y25D01*
X154Y24D02*
X155Y24D01*
X2691Y24D02*
X2691Y24D01*
X155Y23D02*
X156Y23D01*
X2690Y23D02*
X2690Y23D01*
X156Y22D02*
X157Y22D01*
X2689Y22D02*
X2689Y22D01*
X157Y21D02*
X158Y21D01*
X2688Y21D02*
X2688Y21D01*
X158Y20D02*
X159Y20D01*
X2687Y20D02*
X2687Y20D01*
X159Y19D02*
X160Y19D01*
X2685Y19D02*
X2686Y19D01*
X160Y18D02*
X161Y18D01*
X2684Y18D02*
X2685Y18D01*
X161Y17D02*
X162Y17D01*
X2682Y17D02*
X2683Y17D01*
X162Y16D02*
X163Y16D01*
X2680Y16D02*
X2681Y16D01*
X163Y15D02*
X164Y15D01*
X2678Y15D02*
X2680Y15D01*
X164Y14D02*
X165Y14D01*
X2676Y14D02*
X2677Y14D01*
X165Y13D02*
X166Y13D01*
X2672Y13D02*
X2675Y13D01*
X166Y12D02*
X2671Y12D01*
D02*
G04 End of Silk1*
M02*