G04 MADE WITH FRITZING*
G04 WWW.FRITZING.ORG*
G04 DOUBLE SIDED*
G04 HOLES PLATED*
G04 CONTOUR ON CENTER OF CONTOUR VECTOR*
%ASAXBY*%
%FSLAX23Y23*%
%MOIN*%
%OFA0B0*%
%SFA1.0B1.0*%
%ADD10C,0.084000*%
%ADD11C,0.075278*%
%ADD12C,0.049370*%
%LNMASK1*%
G90*
G70*
G54D10*
X507Y1618D03*
X607Y1626D03*
X707Y1618D03*
X807Y1626D03*
X907Y1618D03*
X1007Y1626D03*
X1107Y1618D03*
X1207Y1626D03*
X1307Y1618D03*
X1407Y1626D03*
X1507Y1618D03*
X1607Y1626D03*
X507Y1618D03*
X607Y1626D03*
X707Y1618D03*
X807Y1626D03*
X907Y1618D03*
X1007Y1626D03*
X1107Y1618D03*
X1207Y1626D03*
X1307Y1618D03*
X1407Y1626D03*
X1507Y1618D03*
X1607Y1626D03*
X507Y1618D03*
X607Y1626D03*
X707Y1618D03*
X807Y1626D03*
X907Y1618D03*
X1007Y1626D03*
X1107Y1618D03*
X1207Y1626D03*
X1307Y1618D03*
X1407Y1626D03*
X1507Y1618D03*
X1607Y1626D03*
X507Y1210D03*
X607Y1218D03*
X707Y1210D03*
X807Y1218D03*
X907Y1210D03*
X1007Y1218D03*
X1107Y1210D03*
X1207Y1218D03*
X1307Y1210D03*
X1407Y1218D03*
X1507Y1210D03*
X1607Y1218D03*
X507Y1210D03*
X607Y1218D03*
X707Y1210D03*
X807Y1218D03*
X907Y1210D03*
X1007Y1218D03*
X1107Y1210D03*
X1207Y1218D03*
X1307Y1210D03*
X1407Y1218D03*
X1507Y1210D03*
X1607Y1218D03*
X507Y1210D03*
X607Y1218D03*
X707Y1210D03*
X807Y1218D03*
X907Y1210D03*
X1007Y1218D03*
X1107Y1210D03*
X1207Y1218D03*
X1307Y1210D03*
X1407Y1218D03*
X1507Y1210D03*
X1607Y1218D03*
X507Y810D03*
X607Y818D03*
X707Y810D03*
X807Y818D03*
X907Y810D03*
X1007Y818D03*
X1107Y810D03*
X1207Y818D03*
X1307Y810D03*
X1407Y818D03*
X1507Y810D03*
X1607Y818D03*
X507Y810D03*
X607Y818D03*
X707Y810D03*
X807Y818D03*
X907Y810D03*
X1007Y818D03*
X1107Y810D03*
X1207Y818D03*
X1307Y810D03*
X1407Y818D03*
X1507Y810D03*
X1607Y818D03*
X507Y810D03*
X607Y818D03*
X707Y810D03*
X807Y818D03*
X907Y810D03*
X1007Y818D03*
X1107Y810D03*
X1207Y818D03*
X1307Y810D03*
X1407Y818D03*
X1507Y810D03*
X1607Y818D03*
G54D11*
X607Y118D03*
X507Y118D03*
X407Y118D03*
X307Y118D03*
X207Y118D03*
X1067Y2018D03*
X1167Y2018D03*
X1267Y2018D03*
X1367Y2018D03*
X1467Y2018D03*
X1567Y2018D03*
X1667Y2018D03*
X1767Y2018D03*
X1867Y2018D03*
X1967Y2018D03*
X207Y2018D03*
X307Y2018D03*
X407Y2018D03*
X507Y2018D03*
X607Y2018D03*
X707Y2018D03*
X807Y2018D03*
X907Y2018D03*
X1507Y118D03*
X1607Y118D03*
X1407Y118D03*
X1307Y118D03*
X1207Y118D03*
X1107Y118D03*
X1007Y118D03*
X907Y118D03*
X707Y118D03*
X607Y118D03*
X507Y118D03*
X407Y118D03*
X307Y118D03*
X207Y118D03*
X1067Y2018D03*
X1167Y2018D03*
X1267Y2018D03*
X1367Y2018D03*
X1467Y2018D03*
X1567Y2018D03*
X1667Y2018D03*
X1767Y2018D03*
X1867Y2018D03*
X1967Y2018D03*
X207Y2018D03*
X307Y2018D03*
X407Y2018D03*
X507Y2018D03*
X607Y2018D03*
X707Y2018D03*
X807Y2018D03*
X907Y2018D03*
X1507Y118D03*
X1607Y118D03*
X1407Y118D03*
X1307Y118D03*
X1207Y118D03*
X1107Y118D03*
X1007Y118D03*
X907Y118D03*
X707Y118D03*
G54D12*
X308Y617D03*
X407Y1018D03*
G04 End of Mask1*
M02*