G04 MADE WITH FRITZING*
G04 WWW.FRITZING.ORG*
G04 DOUBLE SIDED*
G04 HOLES PLATED*
G04 CONTOUR ON CENTER OF CONTOUR VECTOR*
%ASAXBY*%
%FSLAX23Y23*%
%MOIN*%
%OFA0B0*%
%SFA1.0B1.0*%
%ADD10C,0.008*%
%LNCONTOUR*%
G90*
G70*
G54D10*
X135Y2103D02*
X136Y2103D01*
X137Y2103D01*
X138Y2103D01*
X139Y2103D01*
X140Y2103D01*
X141Y2103D01*
X142Y2103D01*
X143Y2103D01*
X144Y2103D01*
X145Y2103D01*
X146Y2103D01*
X147Y2103D01*
X148Y2103D01*
X149Y2103D01*
X150Y2103D01*
X151Y2103D01*
X152Y2103D01*
X153Y2103D01*
X154Y2103D01*
X155Y2103D01*
X156Y2103D01*
X157Y2103D01*
X158Y2103D01*
X159Y2103D01*
X160Y2103D01*
X161Y2103D01*
X162Y2103D01*
X163Y2103D01*
X164Y2103D01*
X165Y2103D01*
X166Y2103D01*
X167Y2103D01*
X168Y2103D01*
X169Y2103D01*
X170Y2103D01*
X171Y2103D01*
X172Y2103D01*
X173Y2103D01*
X174Y2103D01*
X175Y2103D01*
X176Y2103D01*
X177Y2103D01*
X178Y2103D01*
X179Y2103D01*
X180Y2103D01*
X181Y2103D01*
X182Y2103D01*
X183Y2103D01*
X184Y2103D01*
X185Y2103D01*
X186Y2103D01*
X187Y2103D01*
X188Y2103D01*
X189Y2103D01*
X190Y2103D01*
X191Y2103D01*
X192Y2103D01*
X193Y2103D01*
X194Y2103D01*
X195Y2103D01*
X196Y2103D01*
X197Y2103D01*
X198Y2103D01*
X199Y2103D01*
X200Y2103D01*
X201Y2103D01*
X202Y2103D01*
X203Y2103D01*
X204Y2103D01*
X205Y2103D01*
X206Y2103D01*
X207Y2103D01*
X208Y2103D01*
X209Y2103D01*
X210Y2103D01*
X211Y2103D01*
X212Y2103D01*
X213Y2103D01*
X214Y2103D01*
X215Y2103D01*
X216Y2103D01*
X217Y2103D01*
X218Y2103D01*
X219Y2103D01*
X220Y2103D01*
X221Y2103D01*
X222Y2103D01*
X223Y2103D01*
X224Y2103D01*
X225Y2103D01*
X226Y2103D01*
X227Y2103D01*
X228Y2103D01*
X229Y2103D01*
X230Y2103D01*
X231Y2103D01*
X232Y2103D01*
X233Y2103D01*
X234Y2103D01*
X235Y2103D01*
X236Y2103D01*
X237Y2103D01*
X238Y2103D01*
X239Y2103D01*
X240Y2103D01*
X241Y2103D01*
X242Y2103D01*
X243Y2103D01*
X244Y2103D01*
X245Y2103D01*
X246Y2103D01*
X247Y2103D01*
X248Y2103D01*
X249Y2103D01*
X250Y2103D01*
X251Y2103D01*
X252Y2103D01*
X253Y2103D01*
X254Y2103D01*
X255Y2103D01*
X256Y2103D01*
X257Y2103D01*
X258Y2103D01*
X259Y2103D01*
X260Y2103D01*
X261Y2103D01*
X262Y2103D01*
X263Y2103D01*
X264Y2103D01*
X265Y2103D01*
X266Y2103D01*
X267Y2103D01*
X268Y2103D01*
X269Y2103D01*
X270Y2103D01*
X271Y2103D01*
X272Y2103D01*
X273Y2103D01*
X274Y2103D01*
X275Y2103D01*
X276Y2103D01*
X277Y2103D01*
X278Y2103D01*
X279Y2103D01*
X280Y2103D01*
X281Y2103D01*
X282Y2103D01*
X283Y2103D01*
X284Y2103D01*
X285Y2103D01*
X286Y2103D01*
X287Y2103D01*
X288Y2103D01*
X289Y2103D01*
X290Y2103D01*
X291Y2103D01*
X292Y2103D01*
X293Y2103D01*
X294Y2103D01*
X295Y2103D01*
X296Y2103D01*
X297Y2103D01*
X298Y2103D01*
X299Y2103D01*
X300Y2103D01*
X301Y2103D01*
X302Y2103D01*
X303Y2103D01*
X304Y2103D01*
X305Y2103D01*
X306Y2103D01*
X307Y2103D01*
X308Y2103D01*
X309Y2103D01*
X310Y2103D01*
X311Y2103D01*
X312Y2103D01*
X313Y2103D01*
X314Y2103D01*
X315Y2103D01*
X316Y2103D01*
X317Y2103D01*
X318Y2103D01*
X319Y2103D01*
X320Y2103D01*
X321Y2103D01*
X322Y2103D01*
X323Y2103D01*
X324Y2103D01*
X325Y2103D01*
X326Y2103D01*
X327Y2103D01*
X328Y2103D01*
X329Y2103D01*
X330Y2103D01*
X331Y2103D01*
X332Y2103D01*
X333Y2103D01*
X334Y2103D01*
X335Y2103D01*
X336Y2103D01*
X337Y2103D01*
X338Y2103D01*
X339Y2103D01*
X340Y2103D01*
X341Y2103D01*
X342Y2103D01*
X343Y2103D01*
X344Y2103D01*
X345Y2103D01*
X346Y2103D01*
X347Y2103D01*
X348Y2103D01*
X349Y2103D01*
X350Y2103D01*
X351Y2103D01*
X352Y2103D01*
X353Y2103D01*
X354Y2103D01*
X355Y2103D01*
X356Y2103D01*
X357Y2103D01*
X358Y2103D01*
X359Y2103D01*
X360Y2103D01*
X361Y2103D01*
X362Y2103D01*
X363Y2103D01*
X364Y2103D01*
X365Y2103D01*
X366Y2103D01*
X367Y2103D01*
X368Y2103D01*
X369Y2103D01*
X370Y2103D01*
X371Y2103D01*
X372Y2103D01*
X373Y2103D01*
X374Y2103D01*
X375Y2103D01*
X376Y2103D01*
X377Y2103D01*
X378Y2103D01*
X379Y2103D01*
X380Y2103D01*
X381Y2103D01*
X382Y2103D01*
X383Y2103D01*
X384Y2103D01*
X385Y2103D01*
X386Y2103D01*
X387Y2103D01*
X388Y2103D01*
X389Y2103D01*
X390Y2103D01*
X391Y2103D01*
X392Y2103D01*
X393Y2103D01*
X394Y2103D01*
X395Y2103D01*
X396Y2103D01*
X397Y2103D01*
X398Y2103D01*
X399Y2103D01*
X400Y2103D01*
X401Y2103D01*
X402Y2103D01*
X403Y2103D01*
X404Y2103D01*
X405Y2103D01*
X406Y2103D01*
X407Y2103D01*
X408Y2103D01*
X409Y2103D01*
X410Y2103D01*
X411Y2103D01*
X412Y2103D01*
X413Y2103D01*
X414Y2103D01*
X415Y2103D01*
X416Y2103D01*
X417Y2103D01*
X418Y2103D01*
X419Y2103D01*
X420Y2103D01*
X421Y2103D01*
X422Y2103D01*
X423Y2103D01*
X424Y2103D01*
X425Y2103D01*
X426Y2103D01*
X427Y2103D01*
X428Y2103D01*
X429Y2103D01*
X430Y2103D01*
X431Y2103D01*
X432Y2103D01*
X433Y2103D01*
X434Y2103D01*
X435Y2103D01*
X436Y2103D01*
X437Y2103D01*
X438Y2103D01*
X439Y2103D01*
X440Y2103D01*
X441Y2103D01*
X442Y2103D01*
X443Y2103D01*
X444Y2103D01*
X445Y2103D01*
X446Y2103D01*
X447Y2103D01*
X448Y2103D01*
X449Y2103D01*
X450Y2103D01*
X451Y2103D01*
X452Y2103D01*
X453Y2103D01*
X454Y2103D01*
X455Y2103D01*
X456Y2103D01*
X457Y2103D01*
X458Y2103D01*
X459Y2103D01*
X460Y2103D01*
X461Y2103D01*
X462Y2103D01*
X463Y2103D01*
X464Y2103D01*
X465Y2103D01*
X466Y2103D01*
X467Y2103D01*
X468Y2103D01*
X469Y2103D01*
X470Y2103D01*
X471Y2103D01*
X472Y2103D01*
X473Y2103D01*
X474Y2103D01*
X475Y2103D01*
X476Y2103D01*
X477Y2103D01*
X478Y2103D01*
X479Y2103D01*
X480Y2103D01*
X481Y2103D01*
X482Y2103D01*
X483Y2103D01*
X484Y2103D01*
X485Y2103D01*
X486Y2103D01*
X487Y2103D01*
X488Y2103D01*
X489Y2103D01*
X490Y2103D01*
X491Y2103D01*
X492Y2103D01*
X493Y2103D01*
X494Y2103D01*
X495Y2103D01*
X496Y2103D01*
X497Y2103D01*
X498Y2103D01*
X499Y2103D01*
X500Y2103D01*
X501Y2103D01*
X502Y2103D01*
X503Y2103D01*
X504Y2103D01*
X505Y2103D01*
X506Y2103D01*
X507Y2103D01*
X508Y2103D01*
X509Y2103D01*
X510Y2103D01*
X511Y2103D01*
X512Y2103D01*
X513Y2103D01*
X514Y2103D01*
X515Y2103D01*
X516Y2103D01*
X517Y2103D01*
X518Y2103D01*
X519Y2103D01*
X520Y2103D01*
X521Y2103D01*
X522Y2103D01*
X523Y2103D01*
X524Y2103D01*
X525Y2103D01*
X526Y2103D01*
X527Y2103D01*
X528Y2103D01*
X529Y2103D01*
X530Y2103D01*
X531Y2103D01*
X532Y2103D01*
X533Y2103D01*
X534Y2103D01*
X535Y2103D01*
X536Y2103D01*
X537Y2103D01*
X538Y2103D01*
X539Y2103D01*
X540Y2103D01*
X541Y2103D01*
X542Y2103D01*
X543Y2103D01*
X544Y2103D01*
X545Y2103D01*
X546Y2103D01*
X547Y2103D01*
X548Y2103D01*
X549Y2103D01*
X550Y2103D01*
X551Y2103D01*
X552Y2103D01*
X553Y2103D01*
X554Y2103D01*
X555Y2103D01*
X556Y2103D01*
X557Y2103D01*
X558Y2103D01*
X559Y2103D01*
X560Y2103D01*
X561Y2103D01*
X562Y2103D01*
X563Y2103D01*
X564Y2103D01*
X565Y2103D01*
X566Y2103D01*
X567Y2103D01*
X568Y2103D01*
X569Y2103D01*
X570Y2103D01*
X571Y2103D01*
X572Y2103D01*
X573Y2103D01*
X574Y2103D01*
X575Y2103D01*
X576Y2103D01*
X577Y2103D01*
X578Y2103D01*
X579Y2103D01*
X580Y2103D01*
X581Y2103D01*
X582Y2103D01*
X583Y2103D01*
X584Y2103D01*
X585Y2103D01*
X586Y2103D01*
X587Y2103D01*
X588Y2103D01*
X589Y2103D01*
X590Y2103D01*
X591Y2103D01*
X592Y2103D01*
X593Y2103D01*
X594Y2103D01*
X595Y2103D01*
X596Y2103D01*
X597Y2103D01*
X598Y2103D01*
X599Y2103D01*
X600Y2103D01*
X601Y2103D01*
X602Y2103D01*
X603Y2103D01*
X604Y2103D01*
X605Y2103D01*
X606Y2103D01*
X607Y2103D01*
X608Y2103D01*
X609Y2103D01*
X610Y2103D01*
X611Y2103D01*
X612Y2103D01*
X613Y2103D01*
X614Y2103D01*
X615Y2103D01*
X616Y2103D01*
X617Y2103D01*
X618Y2103D01*
X619Y2103D01*
X620Y2103D01*
X621Y2103D01*
X622Y2103D01*
X623Y2103D01*
X624Y2103D01*
X625Y2103D01*
X626Y2103D01*
X627Y2103D01*
X628Y2103D01*
X629Y2103D01*
X630Y2103D01*
X631Y2103D01*
X632Y2103D01*
X633Y2103D01*
X634Y2103D01*
X635Y2103D01*
X636Y2103D01*
X637Y2103D01*
X638Y2103D01*
X639Y2103D01*
X640Y2103D01*
X641Y2103D01*
X642Y2103D01*
X643Y2103D01*
X644Y2103D01*
X645Y2103D01*
X646Y2103D01*
X647Y2103D01*
X648Y2103D01*
X649Y2103D01*
X650Y2103D01*
X651Y2103D01*
X652Y2103D01*
X653Y2103D01*
X654Y2103D01*
X655Y2103D01*
X656Y2103D01*
X657Y2103D01*
X658Y2103D01*
X659Y2103D01*
X660Y2103D01*
X661Y2103D01*
X662Y2103D01*
X663Y2103D01*
X664Y2103D01*
X665Y2103D01*
X666Y2103D01*
X667Y2103D01*
X668Y2103D01*
X669Y2103D01*
X670Y2103D01*
X671Y2103D01*
X672Y2103D01*
X673Y2103D01*
X674Y2103D01*
X675Y2103D01*
X676Y2103D01*
X677Y2103D01*
X678Y2103D01*
X679Y2103D01*
X680Y2103D01*
X681Y2103D01*
X682Y2103D01*
X683Y2103D01*
X684Y2103D01*
X685Y2103D01*
X686Y2103D01*
X687Y2103D01*
X688Y2103D01*
X689Y2103D01*
X690Y2103D01*
X691Y2103D01*
X692Y2103D01*
X693Y2103D01*
X694Y2103D01*
X695Y2103D01*
X696Y2103D01*
X697Y2103D01*
X698Y2103D01*
X699Y2103D01*
X700Y2103D01*
X701Y2103D01*
X702Y2103D01*
X703Y2103D01*
X704Y2103D01*
X705Y2103D01*
X706Y2103D01*
X707Y2103D01*
X708Y2103D01*
X709Y2103D01*
X710Y2103D01*
X711Y2103D01*
X712Y2103D01*
X713Y2103D01*
X714Y2103D01*
X715Y2103D01*
X716Y2103D01*
X717Y2103D01*
X718Y2103D01*
X719Y2103D01*
X720Y2103D01*
X721Y2103D01*
X722Y2103D01*
X723Y2103D01*
X724Y2103D01*
X725Y2103D01*
X726Y2103D01*
X727Y2103D01*
X728Y2103D01*
X729Y2103D01*
X730Y2103D01*
X731Y2103D01*
X732Y2103D01*
X733Y2103D01*
X734Y2103D01*
X735Y2103D01*
X736Y2103D01*
X737Y2103D01*
X738Y2103D01*
X739Y2103D01*
X740Y2103D01*
X741Y2103D01*
X742Y2103D01*
X743Y2103D01*
X744Y2103D01*
X745Y2103D01*
X746Y2103D01*
X747Y2103D01*
X748Y2103D01*
X749Y2103D01*
X750Y2103D01*
X751Y2103D01*
X752Y2103D01*
X753Y2103D01*
X754Y2103D01*
X755Y2103D01*
X756Y2103D01*
X757Y2103D01*
X758Y2103D01*
X759Y2103D01*
X760Y2103D01*
X761Y2103D01*
X762Y2103D01*
X763Y2103D01*
X764Y2103D01*
X765Y2103D01*
X766Y2103D01*
X767Y2103D01*
X768Y2103D01*
X769Y2103D01*
X770Y2103D01*
X771Y2103D01*
X772Y2103D01*
X773Y2103D01*
X774Y2103D01*
X775Y2103D01*
X776Y2103D01*
X777Y2103D01*
X778Y2103D01*
X779Y2103D01*
X780Y2103D01*
X781Y2103D01*
X782Y2103D01*
X783Y2103D01*
X784Y2103D01*
X785Y2103D01*
X786Y2103D01*
X787Y2103D01*
X788Y2103D01*
X789Y2103D01*
X790Y2103D01*
X791Y2103D01*
X792Y2103D01*
X793Y2103D01*
X794Y2103D01*
X795Y2103D01*
X796Y2103D01*
X797Y2103D01*
X798Y2103D01*
X799Y2103D01*
X800Y2103D01*
X801Y2103D01*
X802Y2103D01*
X803Y2103D01*
X804Y2103D01*
X805Y2103D01*
X806Y2103D01*
X807Y2103D01*
X808Y2103D01*
X809Y2103D01*
X810Y2103D01*
X811Y2103D01*
X812Y2103D01*
X813Y2103D01*
X814Y2103D01*
X815Y2103D01*
X816Y2103D01*
X817Y2103D01*
X818Y2103D01*
X819Y2103D01*
X820Y2103D01*
X821Y2103D01*
X822Y2103D01*
X823Y2103D01*
X824Y2103D01*
X825Y2103D01*
X826Y2103D01*
X827Y2103D01*
X828Y2103D01*
X829Y2103D01*
X830Y2103D01*
X831Y2103D01*
X832Y2103D01*
X833Y2103D01*
X834Y2103D01*
X835Y2103D01*
X836Y2103D01*
X837Y2103D01*
X838Y2103D01*
X839Y2103D01*
X840Y2103D01*
X841Y2103D01*
X842Y2103D01*
X843Y2103D01*
X844Y2103D01*
X845Y2103D01*
X846Y2103D01*
X847Y2103D01*
X848Y2103D01*
X849Y2103D01*
X850Y2103D01*
X851Y2103D01*
X852Y2103D01*
X853Y2103D01*
X854Y2103D01*
X855Y2103D01*
X856Y2103D01*
X857Y2103D01*
X858Y2103D01*
X859Y2103D01*
X860Y2103D01*
X861Y2103D01*
X862Y2103D01*
X863Y2103D01*
X864Y2103D01*
X865Y2103D01*
X866Y2103D01*
X867Y2103D01*
X868Y2103D01*
X869Y2103D01*
X870Y2103D01*
X871Y2103D01*
X872Y2103D01*
X873Y2103D01*
X874Y2103D01*
X875Y2103D01*
X876Y2103D01*
X877Y2103D01*
X878Y2103D01*
X879Y2103D01*
X880Y2103D01*
X881Y2103D01*
X882Y2103D01*
X883Y2103D01*
X884Y2103D01*
X885Y2103D01*
X886Y2103D01*
X887Y2103D01*
X888Y2103D01*
X889Y2103D01*
X890Y2103D01*
X891Y2103D01*
X892Y2103D01*
X893Y2103D01*
X894Y2103D01*
X895Y2103D01*
X896Y2103D01*
X897Y2103D01*
X898Y2103D01*
X899Y2103D01*
X900Y2103D01*
X901Y2103D01*
X902Y2103D01*
X903Y2103D01*
X904Y2103D01*
X905Y2103D01*
X906Y2103D01*
X907Y2103D01*
X908Y2103D01*
X909Y2103D01*
X910Y2103D01*
X911Y2103D01*
X912Y2103D01*
X913Y2103D01*
X914Y2103D01*
X915Y2103D01*
X916Y2103D01*
X917Y2103D01*
X918Y2103D01*
X919Y2103D01*
X920Y2103D01*
X921Y2103D01*
X922Y2103D01*
X923Y2103D01*
X924Y2103D01*
X925Y2103D01*
X926Y2103D01*
X927Y2103D01*
X928Y2103D01*
X929Y2103D01*
X930Y2103D01*
X931Y2103D01*
X932Y2103D01*
X933Y2103D01*
X934Y2103D01*
X935Y2103D01*
X936Y2103D01*
X937Y2103D01*
X938Y2103D01*
X939Y2103D01*
X940Y2103D01*
X941Y2103D01*
X942Y2103D01*
X943Y2103D01*
X944Y2103D01*
X945Y2103D01*
X946Y2103D01*
X947Y2103D01*
X948Y2103D01*
X949Y2103D01*
X950Y2103D01*
X951Y2103D01*
X952Y2103D01*
X953Y2103D01*
X954Y2103D01*
X955Y2103D01*
X956Y2103D01*
X957Y2103D01*
X958Y2103D01*
X959Y2103D01*
X960Y2103D01*
X961Y2103D01*
X962Y2103D01*
X963Y2103D01*
X964Y2103D01*
X965Y2103D01*
X966Y2103D01*
X967Y2103D01*
X968Y2103D01*
X969Y2103D01*
X970Y2103D01*
X971Y2103D01*
X972Y2103D01*
X973Y2103D01*
X974Y2103D01*
X975Y2103D01*
X976Y2103D01*
X977Y2103D01*
X978Y2103D01*
X979Y2103D01*
X980Y2103D01*
X981Y2103D01*
X982Y2103D01*
X983Y2103D01*
X984Y2103D01*
X985Y2103D01*
X986Y2103D01*
X987Y2103D01*
X988Y2103D01*
X989Y2103D01*
X990Y2103D01*
X991Y2103D01*
X992Y2103D01*
X993Y2103D01*
X994Y2103D01*
X995Y2103D01*
X996Y2103D01*
X997Y2103D01*
X998Y2103D01*
X999Y2103D01*
X1000Y2103D01*
X1001Y2103D01*
X1002Y2103D01*
X1003Y2103D01*
X1004Y2103D01*
X1005Y2103D01*
X1006Y2103D01*
X1007Y2103D01*
X1008Y2103D01*
X1009Y2103D01*
X1010Y2103D01*
X1011Y2103D01*
X1012Y2103D01*
X1013Y2103D01*
X1014Y2103D01*
X1015Y2103D01*
X1016Y2103D01*
X1017Y2103D01*
X1018Y2103D01*
X1019Y2103D01*
X1020Y2103D01*
X1021Y2103D01*
X1022Y2103D01*
X1023Y2103D01*
X1024Y2103D01*
X1025Y2103D01*
X1026Y2103D01*
X1027Y2103D01*
X1028Y2103D01*
X1029Y2103D01*
X1030Y2103D01*
X1031Y2103D01*
X1032Y2103D01*
X1033Y2103D01*
X1034Y2103D01*
X1035Y2103D01*
X1036Y2103D01*
X1037Y2103D01*
X1038Y2103D01*
X1039Y2103D01*
X1040Y2103D01*
X1041Y2103D01*
X1042Y2103D01*
X1043Y2103D01*
X1044Y2103D01*
X1045Y2103D01*
X1046Y2103D01*
X1047Y2103D01*
X1048Y2103D01*
X1049Y2103D01*
X1050Y2103D01*
X1051Y2103D01*
X1052Y2103D01*
X1053Y2103D01*
X1054Y2103D01*
X1055Y2103D01*
X1056Y2103D01*
X1057Y2103D01*
X1058Y2103D01*
X1059Y2103D01*
X1060Y2103D01*
X1061Y2103D01*
X1062Y2103D01*
X1063Y2103D01*
X1064Y2103D01*
X1065Y2103D01*
X1066Y2103D01*
X1067Y2103D01*
X1068Y2103D01*
X1069Y2103D01*
X1070Y2103D01*
X1071Y2103D01*
X1072Y2103D01*
X1073Y2103D01*
X1074Y2103D01*
X1075Y2103D01*
X1076Y2103D01*
X1077Y2103D01*
X1078Y2103D01*
X1079Y2103D01*
X1080Y2103D01*
X1081Y2103D01*
X1082Y2103D01*
X1083Y2103D01*
X1084Y2103D01*
X1085Y2103D01*
X1086Y2103D01*
X1087Y2103D01*
X1088Y2103D01*
X1089Y2103D01*
X1090Y2103D01*
X1091Y2103D01*
X1092Y2103D01*
X1093Y2103D01*
X1094Y2103D01*
X1095Y2103D01*
X1096Y2103D01*
X1097Y2103D01*
X1098Y2103D01*
X1099Y2103D01*
X1100Y2103D01*
X1101Y2103D01*
X1102Y2103D01*
X1103Y2103D01*
X1104Y2103D01*
X1105Y2103D01*
X1106Y2103D01*
X1107Y2103D01*
X1108Y2103D01*
X1109Y2103D01*
X1110Y2103D01*
X1111Y2103D01*
X1112Y2103D01*
X1113Y2103D01*
X1114Y2103D01*
X1115Y2103D01*
X1116Y2103D01*
X1117Y2103D01*
X1118Y2103D01*
X1119Y2103D01*
X1120Y2103D01*
X1121Y2103D01*
X1122Y2103D01*
X1123Y2103D01*
X1124Y2103D01*
X1125Y2103D01*
X1126Y2103D01*
X1127Y2103D01*
X1128Y2103D01*
X1129Y2103D01*
X1130Y2103D01*
X1131Y2103D01*
X1132Y2103D01*
X1133Y2103D01*
X1134Y2103D01*
X1135Y2103D01*
X1136Y2103D01*
X1137Y2103D01*
X1138Y2103D01*
X1139Y2103D01*
X1140Y2103D01*
X1141Y2103D01*
X1142Y2103D01*
X1143Y2103D01*
X1144Y2103D01*
X1145Y2103D01*
X1146Y2103D01*
X1147Y2103D01*
X1148Y2103D01*
X1149Y2103D01*
X1150Y2103D01*
X1151Y2103D01*
X1152Y2103D01*
X1153Y2103D01*
X1154Y2103D01*
X1155Y2103D01*
X1156Y2103D01*
X1157Y2103D01*
X1158Y2103D01*
X1159Y2103D01*
X1160Y2103D01*
X1161Y2103D01*
X1162Y2103D01*
X1163Y2103D01*
X1164Y2103D01*
X1165Y2103D01*
X1166Y2103D01*
X1167Y2103D01*
X1168Y2103D01*
X1169Y2103D01*
X1170Y2103D01*
X1171Y2103D01*
X1172Y2103D01*
X1173Y2103D01*
X1174Y2103D01*
X1175Y2103D01*
X1176Y2103D01*
X1177Y2103D01*
X1178Y2103D01*
X1179Y2103D01*
X1180Y2103D01*
X1181Y2103D01*
X1182Y2103D01*
X1183Y2103D01*
X1184Y2103D01*
X1185Y2103D01*
X1186Y2103D01*
X1187Y2103D01*
X1188Y2103D01*
X1189Y2103D01*
X1190Y2103D01*
X1191Y2103D01*
X1192Y2103D01*
X1193Y2103D01*
X1194Y2103D01*
X1195Y2103D01*
X1196Y2103D01*
X1197Y2103D01*
X1198Y2103D01*
X1199Y2103D01*
X1200Y2103D01*
X1201Y2103D01*
X1202Y2103D01*
X1203Y2103D01*
X1204Y2103D01*
X1205Y2103D01*
X1206Y2103D01*
X1207Y2103D01*
X1208Y2103D01*
X1209Y2103D01*
X1210Y2103D01*
X1211Y2103D01*
X1212Y2103D01*
X1213Y2103D01*
X1214Y2103D01*
X1215Y2103D01*
X1216Y2103D01*
X1217Y2103D01*
X1218Y2103D01*
X1219Y2103D01*
X1220Y2103D01*
X1221Y2103D01*
X1222Y2103D01*
X1223Y2103D01*
X1224Y2103D01*
X1225Y2103D01*
X1226Y2103D01*
X1227Y2103D01*
X1228Y2103D01*
X1229Y2103D01*
X1230Y2103D01*
X1231Y2103D01*
X1232Y2103D01*
X1233Y2103D01*
X1234Y2103D01*
X1235Y2103D01*
X1236Y2103D01*
X1237Y2103D01*
X1238Y2103D01*
X1239Y2103D01*
X1240Y2103D01*
X1241Y2103D01*
X1242Y2103D01*
X1243Y2103D01*
X1244Y2103D01*
X1245Y2103D01*
X1246Y2103D01*
X1247Y2103D01*
X1248Y2103D01*
X1249Y2103D01*
X1250Y2103D01*
X1251Y2103D01*
X1252Y2103D01*
X1253Y2103D01*
X1254Y2103D01*
X1255Y2103D01*
X1256Y2103D01*
X1257Y2103D01*
X1258Y2103D01*
X1259Y2103D01*
X1260Y2103D01*
X1261Y2103D01*
X1262Y2103D01*
X1263Y2103D01*
X1264Y2103D01*
X1265Y2103D01*
X1266Y2103D01*
X1267Y2103D01*
X1268Y2103D01*
X1269Y2103D01*
X1270Y2103D01*
X1271Y2103D01*
X1272Y2103D01*
X1273Y2103D01*
X1274Y2103D01*
X1275Y2103D01*
X1276Y2103D01*
X1277Y2103D01*
X1278Y2103D01*
X1279Y2103D01*
X1280Y2103D01*
X1281Y2103D01*
X1282Y2103D01*
X1283Y2103D01*
X1284Y2103D01*
X1285Y2103D01*
X1286Y2103D01*
X1287Y2103D01*
X1288Y2103D01*
X1289Y2103D01*
X1290Y2103D01*
X1291Y2103D01*
X1292Y2103D01*
X1293Y2103D01*
X1294Y2103D01*
X1295Y2103D01*
X1296Y2103D01*
X1297Y2103D01*
X1298Y2103D01*
X1299Y2103D01*
X1300Y2103D01*
X1301Y2103D01*
X1302Y2103D01*
X1303Y2103D01*
X1304Y2103D01*
X1305Y2103D01*
X1306Y2103D01*
X1307Y2103D01*
X1308Y2103D01*
X1309Y2103D01*
X1310Y2103D01*
X1311Y2103D01*
X1312Y2103D01*
X1313Y2103D01*
X1314Y2103D01*
X1315Y2103D01*
X1316Y2103D01*
X1317Y2103D01*
X1318Y2103D01*
X1319Y2103D01*
X1320Y2103D01*
X1321Y2103D01*
X1322Y2103D01*
X1323Y2103D01*
X1324Y2103D01*
X1325Y2103D01*
X1326Y2103D01*
X1327Y2103D01*
X1328Y2103D01*
X1329Y2103D01*
X1330Y2103D01*
X1331Y2103D01*
X1332Y2103D01*
X1333Y2103D01*
X1334Y2103D01*
X1335Y2103D01*
X1336Y2103D01*
X1337Y2103D01*
X1338Y2103D01*
X1339Y2103D01*
X1340Y2103D01*
X1341Y2103D01*
X1342Y2103D01*
X1343Y2103D01*
X1344Y2103D01*
X1345Y2103D01*
X1346Y2103D01*
X1347Y2103D01*
X1348Y2103D01*
X1349Y2103D01*
X1350Y2103D01*
X1351Y2103D01*
X1352Y2103D01*
X1353Y2103D01*
X1354Y2103D01*
X1355Y2103D01*
X1356Y2103D01*
X1357Y2103D01*
X1358Y2103D01*
X1359Y2103D01*
X1360Y2103D01*
X1361Y2103D01*
X1362Y2103D01*
X1363Y2103D01*
X1364Y2103D01*
X1365Y2103D01*
X1366Y2103D01*
X1367Y2103D01*
X1368Y2103D01*
X1369Y2103D01*
X1370Y2103D01*
X1371Y2103D01*
X1372Y2103D01*
X1373Y2103D01*
X1374Y2103D01*
X1375Y2103D01*
X1376Y2103D01*
X1377Y2103D01*
X1378Y2103D01*
X1379Y2103D01*
X1380Y2103D01*
X1381Y2103D01*
X1382Y2103D01*
X1383Y2103D01*
X1384Y2103D01*
X1385Y2103D01*
X1386Y2103D01*
X1387Y2103D01*
X1388Y2103D01*
X1389Y2103D01*
X1390Y2103D01*
X1391Y2103D01*
X1392Y2103D01*
X1393Y2103D01*
X1394Y2103D01*
X1395Y2103D01*
X1396Y2103D01*
X1397Y2103D01*
X1398Y2103D01*
X1399Y2103D01*
X1400Y2103D01*
X1401Y2103D01*
X1402Y2103D01*
X1403Y2103D01*
X1404Y2103D01*
X1405Y2103D01*
X1406Y2103D01*
X1407Y2103D01*
X1408Y2103D01*
X1409Y2103D01*
X1410Y2103D01*
X1411Y2103D01*
X1412Y2103D01*
X1413Y2103D01*
X1414Y2103D01*
X1415Y2103D01*
X1416Y2103D01*
X1417Y2103D01*
X1418Y2103D01*
X1419Y2103D01*
X1420Y2103D01*
X1421Y2103D01*
X1422Y2103D01*
X1423Y2103D01*
X1424Y2103D01*
X1425Y2103D01*
X1426Y2103D01*
X1427Y2103D01*
X1428Y2103D01*
X1429Y2103D01*
X1430Y2103D01*
X1431Y2103D01*
X1432Y2103D01*
X1433Y2103D01*
X1434Y2103D01*
X1435Y2103D01*
X1436Y2103D01*
X1437Y2103D01*
X1438Y2103D01*
X1439Y2103D01*
X1440Y2103D01*
X1441Y2103D01*
X1442Y2103D01*
X1443Y2103D01*
X1444Y2103D01*
X1445Y2103D01*
X1446Y2103D01*
X1447Y2103D01*
X1448Y2103D01*
X1449Y2103D01*
X1450Y2103D01*
X1451Y2103D01*
X1452Y2103D01*
X1453Y2103D01*
X1454Y2103D01*
X1455Y2103D01*
X1456Y2103D01*
X1457Y2103D01*
X1458Y2103D01*
X1459Y2103D01*
X1460Y2103D01*
X1461Y2103D01*
X1462Y2103D01*
X1463Y2103D01*
X1464Y2103D01*
X1465Y2103D01*
X1466Y2103D01*
X1467Y2103D01*
X1468Y2103D01*
X1469Y2103D01*
X1470Y2103D01*
X1471Y2103D01*
X1472Y2103D01*
X1473Y2103D01*
X1474Y2103D01*
X1475Y2103D01*
X1476Y2103D01*
X1477Y2103D01*
X1478Y2103D01*
X1479Y2103D01*
X1480Y2103D01*
X1481Y2103D01*
X1482Y2103D01*
X1483Y2103D01*
X1484Y2103D01*
X1485Y2103D01*
X1486Y2103D01*
X1487Y2103D01*
X1488Y2103D01*
X1489Y2103D01*
X1490Y2103D01*
X1491Y2103D01*
X1492Y2103D01*
X1493Y2103D01*
X1494Y2103D01*
X1495Y2103D01*
X1496Y2103D01*
X1497Y2103D01*
X1498Y2103D01*
X1499Y2103D01*
X1500Y2103D01*
X1501Y2103D01*
X1502Y2103D01*
X1503Y2103D01*
X1504Y2103D01*
X1505Y2103D01*
X1506Y2103D01*
X1507Y2103D01*
X1508Y2103D01*
X1509Y2103D01*
X1510Y2103D01*
X1511Y2103D01*
X1512Y2103D01*
X1513Y2103D01*
X1514Y2103D01*
X1515Y2103D01*
X1516Y2103D01*
X1517Y2103D01*
X1518Y2103D01*
X1519Y2103D01*
X1520Y2103D01*
X1521Y2103D01*
X1522Y2103D01*
X1523Y2103D01*
X1524Y2103D01*
X1525Y2103D01*
X1526Y2103D01*
X1527Y2103D01*
X1528Y2103D01*
X1529Y2103D01*
X1530Y2103D01*
X1531Y2103D01*
X1532Y2103D01*
X1533Y2103D01*
X1534Y2103D01*
X1535Y2103D01*
X1536Y2103D01*
X1537Y2103D01*
X1538Y2103D01*
X1539Y2103D01*
X1540Y2103D01*
X1541Y2103D01*
X1542Y2103D01*
X1543Y2103D01*
X1544Y2103D01*
X1545Y2103D01*
X1546Y2103D01*
X1547Y2103D01*
X1548Y2103D01*
X1549Y2103D01*
X1550Y2103D01*
X1551Y2103D01*
X1552Y2103D01*
X1553Y2103D01*
X1554Y2103D01*
X1555Y2103D01*
X1556Y2103D01*
X1557Y2103D01*
X1558Y2103D01*
X1559Y2103D01*
X1560Y2103D01*
X1561Y2103D01*
X1562Y2103D01*
X1563Y2103D01*
X1564Y2103D01*
X1565Y2103D01*
X1566Y2103D01*
X1567Y2103D01*
X1568Y2103D01*
X1569Y2103D01*
X1570Y2103D01*
X1571Y2103D01*
X1572Y2103D01*
X1573Y2103D01*
X1574Y2103D01*
X1575Y2103D01*
X1576Y2103D01*
X1577Y2103D01*
X1578Y2103D01*
X1579Y2103D01*
X1580Y2103D01*
X1581Y2103D01*
X1582Y2103D01*
X1583Y2103D01*
X1584Y2103D01*
X1585Y2103D01*
X1586Y2103D01*
X1587Y2103D01*
X1588Y2103D01*
X1589Y2103D01*
X1590Y2103D01*
X1591Y2103D01*
X1592Y2103D01*
X1593Y2103D01*
X1594Y2103D01*
X1595Y2103D01*
X1596Y2103D01*
X1597Y2103D01*
X1598Y2103D01*
X1599Y2103D01*
X1600Y2103D01*
X1601Y2103D01*
X1602Y2103D01*
X1603Y2103D01*
X1604Y2103D01*
X1605Y2103D01*
X1606Y2103D01*
X1607Y2103D01*
X1608Y2103D01*
X1609Y2103D01*
X1610Y2103D01*
X1611Y2103D01*
X1612Y2103D01*
X1613Y2103D01*
X1614Y2103D01*
X1615Y2103D01*
X1616Y2103D01*
X1617Y2103D01*
X1618Y2103D01*
X1619Y2103D01*
X1620Y2103D01*
X1621Y2103D01*
X1622Y2103D01*
X1623Y2103D01*
X1624Y2103D01*
X1625Y2103D01*
X1626Y2103D01*
X1627Y2103D01*
X1628Y2103D01*
X1629Y2103D01*
X1630Y2103D01*
X1631Y2103D01*
X1632Y2103D01*
X1633Y2103D01*
X1634Y2103D01*
X1635Y2103D01*
X1636Y2103D01*
X1637Y2103D01*
X1638Y2103D01*
X1639Y2103D01*
X1640Y2103D01*
X1641Y2103D01*
X1642Y2103D01*
X1643Y2103D01*
X1644Y2103D01*
X1645Y2103D01*
X1646Y2103D01*
X1647Y2103D01*
X1648Y2103D01*
X1649Y2103D01*
X1650Y2103D01*
X1651Y2103D01*
X1652Y2103D01*
X1653Y2103D01*
X1654Y2103D01*
X1655Y2103D01*
X1656Y2103D01*
X1657Y2103D01*
X1658Y2103D01*
X1659Y2103D01*
X1660Y2103D01*
X1661Y2103D01*
X1662Y2103D01*
X1663Y2103D01*
X1664Y2103D01*
X1665Y2103D01*
X1666Y2103D01*
X1667Y2103D01*
X1668Y2103D01*
X1669Y2103D01*
X1670Y2103D01*
X1671Y2103D01*
X1672Y2103D01*
X1673Y2103D01*
X1674Y2103D01*
X1675Y2103D01*
X1676Y2103D01*
X1677Y2103D01*
X1678Y2103D01*
X1679Y2103D01*
X1680Y2103D01*
X1681Y2103D01*
X1682Y2103D01*
X1683Y2103D01*
X1684Y2103D01*
X1685Y2103D01*
X1686Y2103D01*
X1687Y2103D01*
X1688Y2103D01*
X1689Y2103D01*
X1690Y2103D01*
X1691Y2103D01*
X1692Y2103D01*
X1693Y2103D01*
X1694Y2103D01*
X1695Y2103D01*
X1696Y2103D01*
X1697Y2103D01*
X1698Y2103D01*
X1699Y2103D01*
X1700Y2103D01*
X1701Y2103D01*
X1702Y2103D01*
X1703Y2103D01*
X1704Y2103D01*
X1705Y2103D01*
X1706Y2103D01*
X1707Y2103D01*
X1708Y2103D01*
X1709Y2103D01*
X1710Y2103D01*
X1711Y2103D01*
X1712Y2103D01*
X1713Y2103D01*
X1714Y2103D01*
X1715Y2103D01*
X1716Y2103D01*
X1717Y2103D01*
X1718Y2103D01*
X1719Y2103D01*
X1720Y2103D01*
X1721Y2103D01*
X1722Y2103D01*
X1723Y2103D01*
X1724Y2103D01*
X1725Y2103D01*
X1726Y2103D01*
X1727Y2103D01*
X1728Y2103D01*
X1729Y2103D01*
X1730Y2103D01*
X1731Y2103D01*
X1732Y2103D01*
X1733Y2103D01*
X1734Y2103D01*
X1735Y2103D01*
X1736Y2103D01*
X1737Y2103D01*
X1738Y2103D01*
X1739Y2103D01*
X1740Y2103D01*
X1741Y2103D01*
X1742Y2103D01*
X1743Y2103D01*
X1744Y2103D01*
X1745Y2103D01*
X1746Y2103D01*
X1747Y2103D01*
X1748Y2103D01*
X1749Y2103D01*
X1750Y2103D01*
X1751Y2103D01*
X1752Y2103D01*
X1753Y2103D01*
X1754Y2103D01*
X1755Y2103D01*
X1756Y2103D01*
X1757Y2103D01*
X1758Y2103D01*
X1759Y2103D01*
X1760Y2103D01*
X1761Y2103D01*
X1762Y2103D01*
X1763Y2103D01*
X1764Y2103D01*
X1765Y2103D01*
X1766Y2103D01*
X1767Y2103D01*
X1768Y2103D01*
X1769Y2103D01*
X1770Y2103D01*
X1771Y2103D01*
X1772Y2103D01*
X1773Y2103D01*
X1774Y2103D01*
X1775Y2103D01*
X1776Y2103D01*
X1777Y2103D01*
X1778Y2103D01*
X1779Y2103D01*
X1780Y2103D01*
X1781Y2103D01*
X1782Y2103D01*
X1783Y2103D01*
X1784Y2103D01*
X1785Y2103D01*
X1786Y2103D01*
X1787Y2103D01*
X1788Y2103D01*
X1789Y2103D01*
X1790Y2103D01*
X1791Y2103D01*
X1792Y2103D01*
X1793Y2103D01*
X1794Y2103D01*
X1795Y2103D01*
X1796Y2103D01*
X1797Y2103D01*
X1798Y2103D01*
X1799Y2103D01*
X1800Y2103D01*
X1801Y2103D01*
X1802Y2103D01*
X1803Y2103D01*
X1804Y2103D01*
X1805Y2103D01*
X1806Y2103D01*
X1807Y2103D01*
X1808Y2103D01*
X1809Y2103D01*
X1810Y2103D01*
X1811Y2103D01*
X1812Y2103D01*
X1813Y2103D01*
X1814Y2103D01*
X1815Y2103D01*
X1816Y2103D01*
X1817Y2103D01*
X1818Y2103D01*
X1819Y2103D01*
X1820Y2103D01*
X1821Y2103D01*
X1822Y2103D01*
X1823Y2103D01*
X1824Y2103D01*
X1825Y2103D01*
X1826Y2103D01*
X1827Y2103D01*
X1828Y2103D01*
X1829Y2103D01*
X1830Y2103D01*
X1831Y2103D01*
X1832Y2103D01*
X1833Y2103D01*
X1834Y2103D01*
X1835Y2103D01*
X1836Y2103D01*
X1837Y2103D01*
X1838Y2103D01*
X1839Y2103D01*
X1840Y2103D01*
X1841Y2103D01*
X1842Y2103D01*
X1843Y2103D01*
X1844Y2103D01*
X1845Y2103D01*
X1846Y2103D01*
X1847Y2103D01*
X1848Y2103D01*
X1849Y2103D01*
X1850Y2103D01*
X1851Y2103D01*
X1852Y2103D01*
X1853Y2103D01*
X1854Y2103D01*
X1855Y2103D01*
X1856Y2103D01*
X1857Y2103D01*
X1858Y2103D01*
X1859Y2103D01*
X1860Y2103D01*
X1861Y2103D01*
X1862Y2103D01*
X1863Y2103D01*
X1864Y2103D01*
X1865Y2103D01*
X1866Y2103D01*
X1867Y2103D01*
X1868Y2103D01*
X1869Y2103D01*
X1870Y2103D01*
X1871Y2103D01*
X1872Y2103D01*
X1873Y2103D01*
X1874Y2103D01*
X1875Y2103D01*
X1876Y2103D01*
X1877Y2103D01*
X1878Y2103D01*
X1879Y2103D01*
X1880Y2103D01*
X1881Y2103D01*
X1882Y2103D01*
X1883Y2103D01*
X1884Y2103D01*
X1885Y2103D01*
X1886Y2103D01*
X1887Y2103D01*
X1888Y2103D01*
X1889Y2103D01*
X1890Y2103D01*
X1891Y2103D01*
X1892Y2103D01*
X1893Y2103D01*
X1894Y2103D01*
X1895Y2103D01*
X1896Y2103D01*
X1897Y2103D01*
X1898Y2103D01*
X1899Y2103D01*
X1900Y2103D01*
X1901Y2103D01*
X1902Y2103D01*
X1903Y2103D01*
X1904Y2103D01*
X1905Y2103D01*
X1906Y2103D01*
X1907Y2103D01*
X1908Y2103D01*
X1909Y2103D01*
X1910Y2103D01*
X1911Y2103D01*
X1912Y2103D01*
X1913Y2103D01*
X1914Y2103D01*
X1915Y2103D01*
X1916Y2103D01*
X1917Y2103D01*
X1918Y2103D01*
X1919Y2103D01*
X1920Y2103D01*
X1921Y2103D01*
X1922Y2103D01*
X1923Y2103D01*
X1924Y2103D01*
X1925Y2103D01*
X1926Y2103D01*
X1927Y2103D01*
X1928Y2103D01*
X1929Y2103D01*
X1930Y2103D01*
X1931Y2103D01*
X1932Y2103D01*
X1933Y2103D01*
X1934Y2103D01*
X1935Y2103D01*
X1936Y2103D01*
X1937Y2103D01*
X1938Y2103D01*
X1939Y2103D01*
X1940Y2103D01*
X1941Y2103D01*
X1942Y2103D01*
X1943Y2103D01*
X1944Y2103D01*
X1945Y2103D01*
X1946Y2103D01*
X1947Y2103D01*
X1948Y2103D01*
X1949Y2103D01*
X1950Y2103D01*
X1951Y2103D01*
X1952Y2103D01*
X1953Y2103D01*
X1954Y2103D01*
X1955Y2103D01*
X1956Y2103D01*
X1957Y2103D01*
X1958Y2103D01*
X1959Y2103D01*
X1960Y2103D01*
X1961Y2103D01*
X1962Y2103D01*
X1963Y2103D01*
X1964Y2103D01*
X1965Y2103D01*
X1966Y2103D01*
X1967Y2103D01*
X1968Y2103D01*
X1969Y2103D01*
X1970Y2103D01*
X1971Y2103D01*
X1972Y2103D01*
X1973Y2103D01*
X1974Y2103D01*
X1975Y2103D01*
X1976Y2103D01*
X1977Y2103D01*
X1978Y2103D01*
X1979Y2103D01*
X1980Y2103D01*
X1981Y2103D01*
X1982Y2103D01*
X1983Y2103D01*
X1984Y2103D01*
X1985Y2103D01*
X1986Y2103D01*
X1987Y2103D01*
X1988Y2103D01*
X1989Y2103D01*
X1990Y2103D01*
X1991Y2103D01*
X1992Y2103D01*
X1993Y2103D01*
X1994Y2103D01*
X1995Y2103D01*
X1996Y2103D01*
X1997Y2103D01*
X1998Y2103D01*
X1999Y2103D01*
X2000Y2103D01*
X2001Y2103D01*
X2002Y2103D01*
X2003Y2103D01*
X2004Y2103D01*
X2005Y2103D01*
X2006Y2103D01*
X2007Y2103D01*
X2008Y2103D01*
X2009Y2103D01*
X2010Y2103D01*
X2011Y2103D01*
X2012Y2103D01*
X2013Y2103D01*
X2014Y2103D01*
X2015Y2103D01*
X2016Y2103D01*
X2017Y2103D01*
X2018Y2103D01*
X2019Y2103D01*
X2020Y2103D01*
X2021Y2103D01*
X2022Y2103D01*
X2023Y2103D01*
X2024Y2103D01*
X2025Y2103D01*
X2026Y2103D01*
X2027Y2103D01*
X2028Y2103D01*
X2029Y2103D01*
X2030Y2103D01*
X2031Y2103D01*
X2032Y2103D01*
X2033Y2103D01*
X2034Y2103D01*
X2035Y2103D01*
X2036Y2103D01*
X2037Y2103D01*
X2038Y2103D01*
X2039Y2103D01*
X2040Y2103D01*
X2041Y2103D01*
X2042Y2103D01*
X2043Y2103D01*
X2044Y2103D01*
X2045Y2103D01*
X2046Y2103D01*
X2047Y2103D01*
X2048Y2103D01*
X2049Y2103D01*
X2050Y2103D01*
X2051Y2103D01*
X2052Y2103D01*
X2053Y2103D01*
X2054Y2103D01*
X2055Y2103D01*
X2056Y2103D01*
X2057Y2103D01*
X2058Y2103D01*
X2059Y2103D01*
X2060Y2103D01*
X2061Y2103D01*
X2062Y2103D01*
X2063Y2103D01*
X2064Y2103D01*
X2065Y2103D01*
X2066Y2103D01*
X2067Y2103D01*
X2068Y2103D01*
X2069Y2103D01*
X2070Y2103D01*
X2071Y2103D01*
X2072Y2103D01*
X2073Y2103D01*
X2074Y2103D01*
X2075Y2103D01*
X2076Y2103D01*
X2077Y2103D01*
X2078Y2103D01*
X2079Y2103D01*
X2080Y2103D01*
X2081Y2103D01*
X2082Y2103D01*
X2083Y2103D01*
X2084Y2103D01*
X2085Y2103D01*
X2086Y2103D01*
X2087Y2103D01*
X2088Y2103D01*
X2089Y2103D01*
X2090Y2103D01*
X2091Y2103D01*
X2092Y2103D01*
X2093Y2103D01*
X2094Y2103D01*
X2095Y2103D01*
X2096Y2103D01*
X2097Y2103D01*
X2098Y2103D01*
X2099Y2103D01*
X2100Y2103D01*
X2101Y2103D01*
X2102Y2103D01*
X2103Y2103D01*
X2104Y2103D01*
X2105Y2103D01*
X2106Y2103D01*
X2107Y2103D01*
X2108Y2103D01*
X2109Y2103D01*
X2110Y2103D01*
X2111Y2103D01*
X2112Y2103D01*
X2113Y2103D01*
X2114Y2103D01*
X2115Y2103D01*
X2116Y2103D01*
X2117Y2103D01*
X2118Y2103D01*
X2119Y2103D01*
X2120Y2103D01*
X2121Y2103D01*
X2122Y2103D01*
X2123Y2103D01*
X2124Y2103D01*
X2125Y2103D01*
X2126Y2103D01*
X2127Y2103D01*
X2128Y2103D01*
X2129Y2103D01*
X2130Y2103D01*
X2131Y2103D01*
X2132Y2103D01*
X2133Y2103D01*
X2134Y2103D01*
X2135Y2103D01*
X2136Y2103D01*
X2137Y2103D01*
X2138Y2103D01*
X2139Y2103D01*
X2140Y2103D01*
X2141Y2103D01*
X2142Y2103D01*
X2143Y2103D01*
X2144Y2103D01*
X2145Y2103D01*
X2146Y2103D01*
X2147Y2103D01*
X2148Y2103D01*
X2149Y2103D01*
X2150Y2103D01*
X2151Y2103D01*
X2152Y2103D01*
X2153Y2103D01*
X2154Y2103D01*
X2155Y2103D01*
X2156Y2103D01*
X2157Y2103D01*
X2158Y2103D01*
X2159Y2103D01*
X2160Y2103D01*
X2161Y2103D01*
X2162Y2103D01*
X2163Y2103D01*
X2164Y2103D01*
X2165Y2103D01*
X2166Y2103D01*
X2167Y2103D01*
X2168Y2103D01*
X2169Y2103D01*
X2170Y2103D01*
X2171Y2103D01*
X2172Y2103D01*
X2173Y2103D01*
X2174Y2103D01*
X2175Y2103D01*
X2176Y2103D01*
X2177Y2103D01*
X2178Y2103D01*
X2179Y2103D01*
X2180Y2103D01*
X2181Y2103D01*
X2182Y2103D01*
X2183Y2103D01*
X2184Y2103D01*
X2185Y2103D01*
X2186Y2103D01*
X2187Y2103D01*
X2188Y2103D01*
X2189Y2103D01*
X2190Y2103D01*
X2191Y2103D01*
X2192Y2103D01*
X2193Y2103D01*
X2194Y2103D01*
X2195Y2103D01*
X2196Y2103D01*
X2197Y2103D01*
X2198Y2103D01*
X2199Y2103D01*
X2200Y2103D01*
X2201Y2103D01*
X2202Y2103D01*
X2203Y2103D01*
X2204Y2103D01*
X2205Y2103D01*
X2206Y2103D01*
X2207Y2103D01*
X2208Y2103D01*
X2209Y2103D01*
X2210Y2103D01*
X2211Y2103D01*
X2212Y2103D01*
X2213Y2103D01*
X2214Y2103D01*
X2215Y2103D01*
X2216Y2103D01*
X2217Y2103D01*
X2218Y2103D01*
X2219Y2103D01*
X2220Y2103D01*
X2221Y2103D01*
X2222Y2103D01*
X2223Y2103D01*
X2224Y2103D01*
X2225Y2103D01*
X2226Y2103D01*
X2227Y2103D01*
X2228Y2103D01*
X2229Y2103D01*
X2230Y2103D01*
X2231Y2103D01*
X2232Y2103D01*
X2233Y2103D01*
X2234Y2103D01*
X2235Y2103D01*
X2236Y2103D01*
X2237Y2103D01*
X2238Y2103D01*
X2239Y2103D01*
X2240Y2103D01*
X2241Y2103D01*
X2242Y2103D01*
X2243Y2103D01*
X2244Y2103D01*
X2245Y2103D01*
X2246Y2103D01*
X2247Y2103D01*
X2248Y2103D01*
X2249Y2103D01*
X2250Y2103D01*
X2251Y2103D01*
X2252Y2103D01*
X2253Y2103D01*
X2254Y2103D01*
X2255Y2103D01*
X2256Y2103D01*
X2257Y2103D01*
X2258Y2103D01*
X2259Y2103D01*
X2260Y2103D01*
X2261Y2103D01*
X2262Y2103D01*
X2263Y2103D01*
X2264Y2103D01*
X2265Y2103D01*
X2266Y2103D01*
X2267Y2103D01*
X2268Y2103D01*
X2269Y2103D01*
X2270Y2103D01*
X2271Y2103D01*
X2272Y2103D01*
X2273Y2103D01*
X2274Y2103D01*
X2275Y2103D01*
X2276Y2103D01*
X2277Y2103D01*
X2278Y2103D01*
X2279Y2103D01*
X2280Y2103D01*
X2281Y2103D01*
X2282Y2103D01*
X2283Y2103D01*
X2284Y2103D01*
X2285Y2103D01*
X2286Y2103D01*
X2287Y2103D01*
X2288Y2103D01*
X2289Y2103D01*
X2290Y2103D01*
X2291Y2103D01*
X2292Y2103D01*
X2293Y2103D01*
X2294Y2103D01*
X2295Y2103D01*
X2296Y2103D01*
X2297Y2103D01*
X2298Y2103D01*
X2299Y2103D01*
X2300Y2103D01*
X2301Y2103D01*
X2302Y2103D01*
X2303Y2103D01*
X2304Y2103D01*
X2305Y2103D01*
X2306Y2103D01*
X2307Y2103D01*
X2308Y2103D01*
X2309Y2103D01*
X2310Y2103D01*
X2311Y2103D01*
X2312Y2103D01*
X2313Y2103D01*
X2314Y2103D01*
X2315Y2103D01*
X2316Y2103D01*
X2317Y2103D01*
X2318Y2103D01*
X2319Y2103D01*
X2320Y2103D01*
X2321Y2103D01*
X2322Y2103D01*
X2323Y2103D01*
X2324Y2103D01*
X2325Y2103D01*
X2326Y2103D01*
X2327Y2103D01*
X2328Y2103D01*
X2329Y2103D01*
X2330Y2103D01*
X2331Y2103D01*
X2332Y2103D01*
X2333Y2103D01*
X2334Y2103D01*
X2335Y2103D01*
X2336Y2103D01*
X2337Y2103D01*
X2338Y2103D01*
X2339Y2103D01*
X2340Y2103D01*
X2341Y2103D01*
X2342Y2103D01*
X2343Y2103D01*
X2344Y2103D01*
X2345Y2103D01*
X2346Y2103D01*
X2347Y2103D01*
X2348Y2103D01*
X2349Y2103D01*
X2350Y2103D01*
X2351Y2103D01*
X2352Y2103D01*
X2353Y2103D01*
X2354Y2103D01*
X2355Y2103D01*
X2356Y2103D01*
X2357Y2103D01*
X2358Y2103D01*
X2359Y2103D01*
X2360Y2103D01*
X2361Y2103D01*
X2362Y2103D01*
X2363Y2103D01*
X2364Y2103D01*
X2365Y2103D01*
X2366Y2103D01*
X2367Y2103D01*
X2368Y2103D01*
X2369Y2103D01*
X2370Y2103D01*
X2371Y2103D01*
X2372Y2103D01*
X2373Y2103D01*
X2374Y2103D01*
X2375Y2103D01*
X2376Y2103D01*
X2377Y2103D01*
X2378Y2103D01*
X2379Y2103D01*
X2380Y2103D01*
X2381Y2103D01*
X2382Y2103D01*
X2383Y2103D01*
X2384Y2103D01*
X2385Y2103D01*
X2386Y2103D01*
X2387Y2103D01*
X2388Y2103D01*
X2389Y2103D01*
X2390Y2103D01*
X2391Y2103D01*
X2392Y2103D01*
X2393Y2103D01*
X2394Y2103D01*
X2395Y2103D01*
X2396Y2103D01*
X2397Y2103D01*
X2398Y2103D01*
X2399Y2103D01*
X2400Y2103D01*
X2401Y2103D01*
X2402Y2103D01*
X2403Y2103D01*
X2404Y2103D01*
X2405Y2103D01*
X2406Y2103D01*
X2407Y2103D01*
X2408Y2103D01*
X2409Y2103D01*
X2410Y2103D01*
X2411Y2103D01*
X2412Y2103D01*
X2413Y2103D01*
X2414Y2103D01*
X2415Y2103D01*
X2416Y2103D01*
X2417Y2103D01*
X2418Y2103D01*
X2419Y2103D01*
X2420Y2103D01*
X2421Y2103D01*
X2422Y2103D01*
X2423Y2103D01*
X2424Y2103D01*
X2425Y2103D01*
X2426Y2103D01*
X2427Y2103D01*
X2428Y2103D01*
X2429Y2103D01*
X2430Y2103D01*
X2431Y2103D01*
X2432Y2103D01*
X2433Y2103D01*
X2434Y2103D01*
X2435Y2103D01*
X2436Y2103D01*
X2437Y2103D01*
X2438Y2103D01*
X2439Y2103D01*
X2440Y2103D01*
X2441Y2103D01*
X2442Y2103D01*
X2443Y2103D01*
X2444Y2103D01*
X2445Y2103D01*
X2446Y2103D01*
X2447Y2103D01*
X2448Y2103D01*
X2449Y2103D01*
X2450Y2103D01*
X2451Y2103D01*
X2452Y2103D01*
X2453Y2103D01*
X2454Y2103D01*
X2455Y2103D01*
X2456Y2103D01*
X2457Y2103D01*
X2458Y2103D01*
X2459Y2103D01*
X2460Y2103D01*
X2461Y2103D01*
X2462Y2103D01*
X2463Y2103D01*
X2464Y2103D01*
X2465Y2103D01*
X2466Y2103D01*
X2467Y2103D01*
X2468Y2103D01*
X2469Y2103D01*
X2470Y2103D01*
X2471Y2103D01*
X2472Y2103D01*
X2473Y2103D01*
X2474Y2103D01*
X2475Y2103D01*
X2476Y2103D01*
X2477Y2103D01*
X2478Y2103D01*
X2479Y2103D01*
X2480Y2103D01*
X2481Y2103D01*
X2482Y2103D01*
X2483Y2103D01*
X2484Y2103D01*
X2485Y2103D01*
X2486Y2103D01*
X2487Y2103D01*
X2488Y2103D01*
X2489Y2103D01*
X2490Y2103D01*
X2491Y2103D01*
X2492Y2103D01*
X2493Y2103D01*
X2494Y2103D01*
X2495Y2103D01*
X2496Y2103D01*
X2497Y2103D01*
X2498Y2103D01*
X2499Y2103D01*
X2500Y2103D01*
X2501Y2103D01*
X2502Y2103D01*
X2503Y2103D01*
X2504Y2103D01*
X2505Y2103D01*
X2506Y2103D01*
X2507Y2103D01*
X2508Y2103D01*
X2509Y2103D01*
X2510Y2103D01*
X2511Y2103D01*
X2512Y2103D01*
X2513Y2103D01*
X2514Y2103D01*
X2515Y2103D01*
X2516Y2103D01*
X2517Y2103D01*
X2518Y2103D01*
X2519Y2103D01*
X2520Y2103D01*
X2521Y2103D01*
X2522Y2103D01*
X2523Y2103D01*
X2524Y2103D01*
X2525Y2103D01*
X2526Y2103D01*
X2527Y2103D01*
X2528Y2103D01*
X2529Y2103D01*
X2530Y2103D01*
X2531Y2103D01*
X2532Y2103D01*
X2533Y2103D01*
X2534Y2103D01*
X2535Y2103D01*
X2536Y2103D01*
X2537Y2103D01*
X2538Y2103D01*
X2539Y2103D01*
X2540Y2103D01*
X2541Y2103D01*
X2542Y2103D01*
X2543Y2103D01*
X2544Y2103D01*
X2545Y2103D01*
X2546Y2103D01*
X2547Y2103D01*
X2548Y2103D01*
X2549Y2103D01*
X2550Y2103D01*
X2551Y2103D01*
X2552Y2103D01*
X2553Y2103D01*
X2554Y2103D01*
X2555Y2103D01*
X2556Y2103D01*
X2557Y2103D01*
X2558Y2103D01*
X2559Y2103D01*
X2560Y2103D01*
X2561Y2103D01*
X2562Y2103D01*
X2563Y2103D01*
X2564Y2103D01*
X2565Y2103D01*
X2566Y2103D01*
X2567Y2103D01*
X2568Y2103D01*
X2569Y2103D01*
X2570Y2103D01*
X2571Y2103D01*
X2572Y2103D01*
X2573Y2103D01*
X2574Y2103D01*
X2575Y2103D01*
X2576Y2103D01*
X2577Y2103D01*
X2578Y2103D01*
X2579Y2103D01*
X2580Y2103D01*
X2581Y2103D01*
X2582Y2103D01*
X2583Y2103D01*
X2584Y2103D01*
X2585Y2103D01*
X2586Y2103D01*
X2587Y2103D01*
X2588Y2103D01*
X2589Y2103D01*
X2590Y2103D01*
X2591Y2103D01*
X2592Y2103D01*
X2593Y2103D01*
X2594Y2103D01*
X2595Y2103D01*
X2596Y2103D01*
X2597Y2103D01*
X2598Y2103D01*
X2599Y2103D01*
X2600Y2103D01*
X2601Y2103D01*
X2602Y2103D01*
X2603Y2103D01*
X2604Y2103D01*
X2605Y2103D01*
X2606Y2103D01*
X2607Y2103D01*
X2608Y2103D01*
X2609Y2103D01*
X2610Y2103D01*
X2611Y2103D01*
X2612Y2103D01*
X2613Y2103D01*
X2614Y2103D01*
X2615Y2103D01*
X2616Y2103D01*
X2617Y2103D01*
X2618Y2103D01*
X2619Y2103D01*
X2620Y2103D01*
X2621Y2103D01*
X2622Y2103D01*
X2623Y2103D01*
X2624Y2103D01*
X2625Y2103D01*
X2626Y2103D01*
X2627Y2103D01*
X2628Y2103D01*
X2629Y2103D01*
X2630Y2103D01*
X2631Y2103D01*
X2632Y2103D01*
X2633Y2103D01*
X2634Y2103D01*
X2635Y2103D01*
X2636Y2103D01*
X2637Y2103D01*
X2638Y2103D01*
X2639Y2103D01*
X2640Y2103D01*
X2641Y2103D01*
X2642Y2103D01*
X2643Y2103D01*
X2644Y2103D01*
X2645Y2103D01*
X2646Y2103D01*
X2647Y2103D01*
X2648Y2103D01*
X2649Y2103D01*
X2650Y2103D01*
X2651Y2103D01*
X2652Y2103D01*
X2653Y2103D01*
X2654Y2103D01*
X2655Y2103D01*
X2656Y2103D01*
X2657Y2103D01*
X2658Y2103D01*
X2659Y2103D01*
X2660Y2103D01*
X2661Y2103D01*
X2662Y2103D01*
X2663Y2103D01*
X2664Y2103D01*
X2665Y2103D01*
X2666Y2103D01*
X2667Y2103D01*
X2668Y2103D01*
X2669Y2103D01*
X2670Y2102D01*
X2671Y2102D01*
X2672Y2102D01*
X2673Y2102D01*
X2674Y2101D01*
X2675Y2101D01*
X2676Y2101D01*
X2677Y2100D01*
X2678Y2100D01*
X2679Y2099D01*
X2680Y2099D01*
X2681Y2098D01*
X2682Y2098D01*
X2683Y2097D01*
X2684Y2096D01*
X2685Y2095D01*
X2686Y2095D01*
X2687Y2094D01*
X2688Y2093D01*
X2689Y2092D01*
X2690Y2091D01*
X2690Y2090D01*
X2691Y2089D01*
X2692Y2088D01*
X2692Y2087D01*
X2693Y2086D01*
X2694Y2085D01*
X2694Y2084D01*
X2695Y2083D01*
X2695Y2081D01*
X2696Y2080D01*
X2696Y2078D01*
X2697Y2077D01*
X2697Y2073D01*
X2698Y2072D01*
X2698Y43D01*
X2697Y42D01*
X2697Y38D01*
X2696Y37D01*
X2696Y35D01*
X2695Y34D01*
X2695Y33D01*
X2694Y32D01*
X2694Y31D01*
X2693Y30D01*
X2693Y29D01*
X2692Y28D01*
X2692Y27D01*
X2691Y26D01*
X2690Y25D01*
X2689Y24D01*
X2688Y23D01*
X2687Y22D01*
X2686Y21D01*
X2685Y20D01*
X2684Y19D01*
X2683Y18D01*
X2682Y18D01*
X2681Y17D01*
X2680Y17D01*
X2679Y16D01*
X2678Y16D01*
X2677Y15D01*
X2676Y15D01*
X2675Y14D01*
X2674Y14D01*
X2673Y14D01*
X2672Y13D01*
X2671Y13D01*
X2670Y13D01*
X2669Y13D01*
X2668Y13D01*
X2667Y12D01*
X2666Y12D01*
X2665Y12D01*
X2664Y12D01*
X2663Y12D01*
X2662Y12D01*
X2661Y12D01*
X2660Y12D01*
X2659Y12D01*
X2658Y12D01*
X2657Y12D01*
X2656Y12D01*
X2655Y12D01*
X2654Y12D01*
X2653Y12D01*
X2652Y12D01*
X2651Y12D01*
X2650Y12D01*
X2649Y12D01*
X2648Y12D01*
X2647Y12D01*
X2646Y12D01*
X2645Y12D01*
X2644Y12D01*
X2643Y12D01*
X2642Y12D01*
X2641Y12D01*
X2640Y12D01*
X2639Y12D01*
X2638Y12D01*
X2637Y12D01*
X2636Y12D01*
X2635Y12D01*
X2634Y12D01*
X2633Y12D01*
X2632Y12D01*
X2631Y12D01*
X2630Y12D01*
X2629Y12D01*
X2628Y12D01*
X2627Y12D01*
X2626Y12D01*
X2625Y12D01*
X2624Y12D01*
X2623Y12D01*
X2622Y12D01*
X2621Y12D01*
X2620Y12D01*
X2619Y12D01*
X2618Y12D01*
X2617Y12D01*
X2616Y12D01*
X2615Y12D01*
X2614Y12D01*
X2613Y12D01*
X2612Y12D01*
X2611Y12D01*
X2610Y12D01*
X2609Y12D01*
X2608Y12D01*
X2607Y12D01*
X2606Y12D01*
X2605Y12D01*
X2604Y12D01*
X2603Y12D01*
X2602Y12D01*
X2601Y12D01*
X2600Y12D01*
X2599Y12D01*
X2598Y12D01*
X2597Y12D01*
X2596Y12D01*
X2595Y12D01*
X2594Y12D01*
X2593Y12D01*
X2592Y12D01*
X2591Y12D01*
X2590Y12D01*
X2589Y12D01*
X2588Y12D01*
X2587Y12D01*
X2586Y12D01*
X2585Y12D01*
X2584Y12D01*
X2583Y12D01*
X2582Y12D01*
X2581Y12D01*
X2580Y12D01*
X2579Y12D01*
X2578Y12D01*
X2577Y12D01*
X2576Y12D01*
X2575Y12D01*
X2574Y12D01*
X2573Y12D01*
X2572Y12D01*
X2571Y12D01*
X2570Y12D01*
X2569Y12D01*
X2568Y12D01*
X2567Y12D01*
X2566Y12D01*
X2565Y12D01*
X2564Y12D01*
X2563Y12D01*
X2562Y12D01*
X2561Y12D01*
X2560Y12D01*
X2559Y12D01*
X2558Y12D01*
X2557Y12D01*
X2556Y12D01*
X2555Y12D01*
X2554Y12D01*
X2553Y12D01*
X2552Y12D01*
X2551Y12D01*
X2550Y12D01*
X2549Y12D01*
X2548Y12D01*
X2547Y12D01*
X2546Y12D01*
X2545Y12D01*
X2544Y12D01*
X2543Y12D01*
X2542Y12D01*
X2541Y12D01*
X2540Y12D01*
X2539Y12D01*
X2538Y12D01*
X2537Y12D01*
X2536Y12D01*
X2535Y12D01*
X2534Y12D01*
X2533Y12D01*
X2532Y12D01*
X2531Y12D01*
X2530Y12D01*
X2529Y12D01*
X2528Y12D01*
X2527Y12D01*
X2526Y12D01*
X2525Y12D01*
X2524Y12D01*
X2523Y12D01*
X2522Y12D01*
X2521Y12D01*
X2520Y12D01*
X2519Y12D01*
X2518Y12D01*
X2517Y12D01*
X2516Y12D01*
X2515Y12D01*
X2514Y12D01*
X2513Y12D01*
X2512Y12D01*
X2511Y12D01*
X2510Y12D01*
X2509Y12D01*
X2508Y12D01*
X2507Y12D01*
X2506Y12D01*
X2505Y12D01*
X2504Y12D01*
X2503Y12D01*
X2502Y12D01*
X2501Y12D01*
X2500Y12D01*
X2499Y12D01*
X2498Y12D01*
X2497Y12D01*
X2496Y12D01*
X2495Y12D01*
X2494Y12D01*
X2493Y12D01*
X2492Y12D01*
X2491Y12D01*
X2490Y12D01*
X2489Y12D01*
X2488Y12D01*
X2487Y12D01*
X2486Y12D01*
X2485Y12D01*
X2484Y12D01*
X2483Y12D01*
X2482Y12D01*
X2481Y12D01*
X2480Y12D01*
X2479Y12D01*
X2478Y12D01*
X2477Y12D01*
X2476Y12D01*
X2475Y12D01*
X2474Y12D01*
X2473Y12D01*
X2472Y12D01*
X2471Y12D01*
X2470Y12D01*
X2469Y12D01*
X2468Y12D01*
X2467Y12D01*
X2466Y12D01*
X2465Y12D01*
X2464Y12D01*
X2463Y12D01*
X2462Y12D01*
X2461Y12D01*
X2460Y12D01*
X2459Y12D01*
X2458Y12D01*
X2457Y12D01*
X2456Y12D01*
X2455Y12D01*
X2454Y12D01*
X2453Y12D01*
X2452Y12D01*
X2451Y12D01*
X2450Y12D01*
X2449Y12D01*
X2448Y12D01*
X2447Y12D01*
X2446Y12D01*
X2445Y12D01*
X2444Y12D01*
X2443Y12D01*
X2442Y12D01*
X2441Y12D01*
X2440Y12D01*
X2439Y12D01*
X2438Y12D01*
X2437Y12D01*
X2436Y12D01*
X2435Y12D01*
X2434Y12D01*
X2433Y12D01*
X2432Y12D01*
X2431Y12D01*
X2430Y12D01*
X2429Y12D01*
X2428Y12D01*
X2427Y12D01*
X2426Y12D01*
X2425Y12D01*
X2424Y12D01*
X2423Y12D01*
X2422Y12D01*
X2421Y12D01*
X2420Y12D01*
X2419Y12D01*
X2418Y12D01*
X2417Y12D01*
X2416Y12D01*
X2415Y12D01*
X2414Y12D01*
X2413Y12D01*
X2412Y12D01*
X2411Y12D01*
X2410Y12D01*
X2409Y12D01*
X2408Y12D01*
X2407Y12D01*
X2406Y12D01*
X2405Y12D01*
X2404Y12D01*
X2403Y12D01*
X2402Y12D01*
X2401Y12D01*
X2400Y12D01*
X2399Y12D01*
X2398Y12D01*
X2397Y12D01*
X2396Y12D01*
X2395Y12D01*
X2394Y12D01*
X2393Y12D01*
X2392Y12D01*
X2391Y12D01*
X2390Y12D01*
X2389Y12D01*
X2388Y12D01*
X2387Y12D01*
X2386Y12D01*
X2385Y12D01*
X2384Y12D01*
X2383Y12D01*
X2382Y12D01*
X2381Y12D01*
X2380Y12D01*
X2379Y12D01*
X2378Y12D01*
X2377Y12D01*
X2376Y12D01*
X2375Y12D01*
X2374Y12D01*
X2373Y12D01*
X2372Y12D01*
X2371Y12D01*
X2370Y12D01*
X2369Y12D01*
X2368Y12D01*
X2367Y12D01*
X2366Y12D01*
X2365Y12D01*
X2364Y12D01*
X2363Y12D01*
X2362Y12D01*
X2361Y12D01*
X2360Y12D01*
X2359Y12D01*
X2358Y12D01*
X2357Y12D01*
X2356Y12D01*
X2355Y12D01*
X2354Y12D01*
X2353Y12D01*
X2352Y12D01*
X2351Y12D01*
X2350Y12D01*
X2349Y12D01*
X2348Y12D01*
X2347Y12D01*
X2346Y12D01*
X2345Y12D01*
X2344Y12D01*
X2343Y12D01*
X2342Y12D01*
X2341Y12D01*
X2340Y12D01*
X2339Y12D01*
X2338Y12D01*
X2337Y12D01*
X2336Y12D01*
X2335Y12D01*
X2334Y12D01*
X2333Y12D01*
X2332Y12D01*
X2331Y12D01*
X2330Y12D01*
X2329Y12D01*
X2328Y12D01*
X2327Y12D01*
X2326Y12D01*
X2325Y12D01*
X2324Y12D01*
X2323Y12D01*
X2322Y12D01*
X2321Y12D01*
X2320Y12D01*
X2319Y12D01*
X2318Y12D01*
X2317Y12D01*
X2316Y12D01*
X2315Y12D01*
X2314Y12D01*
X2313Y12D01*
X2312Y12D01*
X2311Y12D01*
X2310Y12D01*
X2309Y12D01*
X2308Y12D01*
X2307Y12D01*
X2306Y12D01*
X2305Y12D01*
X2304Y12D01*
X2303Y12D01*
X2302Y12D01*
X2301Y12D01*
X2300Y12D01*
X2299Y12D01*
X2298Y12D01*
X2297Y12D01*
X2296Y12D01*
X2295Y12D01*
X2294Y12D01*
X2293Y12D01*
X2292Y12D01*
X2291Y12D01*
X2290Y12D01*
X2289Y12D01*
X2288Y12D01*
X2287Y12D01*
X2286Y12D01*
X2285Y12D01*
X2284Y12D01*
X2283Y12D01*
X2282Y12D01*
X2281Y12D01*
X2280Y12D01*
X2279Y12D01*
X2278Y12D01*
X2277Y12D01*
X2276Y12D01*
X2275Y12D01*
X2274Y12D01*
X2273Y12D01*
X2272Y12D01*
X2271Y12D01*
X2270Y12D01*
X2269Y12D01*
X2268Y12D01*
X2267Y12D01*
X2266Y12D01*
X2265Y12D01*
X2264Y12D01*
X2263Y12D01*
X2262Y12D01*
X2261Y12D01*
X2260Y12D01*
X2259Y12D01*
X2258Y12D01*
X2257Y12D01*
X2256Y12D01*
X2255Y12D01*
X2254Y12D01*
X2253Y12D01*
X2252Y12D01*
X2251Y12D01*
X2250Y12D01*
X2249Y12D01*
X2248Y12D01*
X2247Y12D01*
X2246Y12D01*
X2245Y12D01*
X2244Y12D01*
X2243Y12D01*
X2242Y12D01*
X2241Y12D01*
X2240Y12D01*
X2239Y12D01*
X2238Y12D01*
X2237Y12D01*
X2236Y12D01*
X2235Y12D01*
X2234Y12D01*
X2233Y12D01*
X2232Y12D01*
X2231Y12D01*
X2230Y12D01*
X2229Y12D01*
X2228Y12D01*
X2227Y12D01*
X2226Y12D01*
X2225Y12D01*
X2224Y12D01*
X2223Y12D01*
X2222Y12D01*
X2221Y12D01*
X2220Y12D01*
X2219Y12D01*
X2218Y12D01*
X2217Y12D01*
X2216Y12D01*
X2215Y12D01*
X2214Y12D01*
X2213Y12D01*
X2212Y12D01*
X2211Y12D01*
X2210Y12D01*
X2209Y12D01*
X2208Y12D01*
X2207Y12D01*
X2206Y12D01*
X2205Y12D01*
X2204Y12D01*
X2203Y12D01*
X2202Y12D01*
X2201Y12D01*
X2200Y12D01*
X2199Y12D01*
X2198Y12D01*
X2197Y12D01*
X2196Y12D01*
X2195Y12D01*
X2194Y12D01*
X2193Y12D01*
X2192Y12D01*
X2191Y12D01*
X2190Y12D01*
X2189Y12D01*
X2188Y12D01*
X2187Y12D01*
X2186Y12D01*
X2185Y12D01*
X2184Y12D01*
X2183Y12D01*
X2182Y12D01*
X2181Y12D01*
X2180Y12D01*
X2179Y12D01*
X2178Y12D01*
X2177Y12D01*
X2176Y12D01*
X2175Y12D01*
X2174Y12D01*
X2173Y12D01*
X2172Y12D01*
X2171Y12D01*
X2170Y12D01*
X2169Y12D01*
X2168Y12D01*
X2167Y12D01*
X2166Y12D01*
X2165Y12D01*
X2164Y12D01*
X2163Y12D01*
X2162Y12D01*
X2161Y12D01*
X2160Y12D01*
X2159Y12D01*
X2158Y12D01*
X2157Y12D01*
X2156Y12D01*
X2155Y12D01*
X2154Y12D01*
X2153Y12D01*
X2152Y12D01*
X2151Y12D01*
X2150Y12D01*
X2149Y12D01*
X2148Y12D01*
X2147Y12D01*
X2146Y12D01*
X2145Y12D01*
X2144Y12D01*
X2143Y12D01*
X2142Y12D01*
X2141Y12D01*
X2140Y12D01*
X2139Y12D01*
X2138Y12D01*
X2137Y12D01*
X2136Y12D01*
X2135Y12D01*
X2134Y12D01*
X2133Y12D01*
X2132Y12D01*
X2131Y12D01*
X2130Y12D01*
X2129Y12D01*
X2128Y12D01*
X2127Y12D01*
X2126Y12D01*
X2125Y12D01*
X2124Y12D01*
X2123Y12D01*
X2122Y12D01*
X2121Y12D01*
X2120Y12D01*
X2119Y12D01*
X2118Y12D01*
X2117Y12D01*
X2116Y12D01*
X2115Y12D01*
X2114Y12D01*
X2113Y12D01*
X2112Y12D01*
X2111Y12D01*
X2110Y12D01*
X2109Y12D01*
X2108Y12D01*
X2107Y12D01*
X2106Y12D01*
X2105Y12D01*
X2104Y12D01*
X2103Y12D01*
X2102Y12D01*
X2101Y12D01*
X2100Y12D01*
X2099Y12D01*
X2098Y12D01*
X2097Y12D01*
X2096Y12D01*
X2095Y12D01*
X2094Y12D01*
X2093Y12D01*
X2092Y12D01*
X2091Y12D01*
X2090Y12D01*
X2089Y12D01*
X2088Y12D01*
X2087Y12D01*
X2086Y12D01*
X2085Y12D01*
X2084Y12D01*
X2083Y12D01*
X2082Y12D01*
X2081Y12D01*
X2080Y12D01*
X2079Y12D01*
X2078Y12D01*
X2077Y12D01*
X2076Y12D01*
X2075Y12D01*
X2074Y12D01*
X2073Y12D01*
X2072Y12D01*
X2071Y12D01*
X2070Y12D01*
X2069Y12D01*
X2068Y12D01*
X2067Y12D01*
X2066Y12D01*
X2065Y12D01*
X2064Y12D01*
X2063Y12D01*
X2062Y12D01*
X2061Y12D01*
X2060Y12D01*
X2059Y12D01*
X2058Y12D01*
X2057Y12D01*
X2056Y12D01*
X2055Y12D01*
X2054Y12D01*
X2053Y12D01*
X2052Y12D01*
X2051Y12D01*
X2050Y12D01*
X2049Y12D01*
X2048Y12D01*
X2047Y12D01*
X2046Y12D01*
X2045Y12D01*
X2044Y12D01*
X2043Y12D01*
X2042Y12D01*
X2041Y12D01*
X2040Y12D01*
X2039Y12D01*
X2038Y12D01*
X2037Y12D01*
X2036Y12D01*
X2035Y12D01*
X2034Y12D01*
X2033Y12D01*
X2032Y12D01*
X2031Y12D01*
X2030Y12D01*
X2029Y12D01*
X2028Y12D01*
X2027Y12D01*
X2026Y12D01*
X2025Y12D01*
X2024Y12D01*
X2023Y12D01*
X2022Y12D01*
X2021Y12D01*
X2020Y12D01*
X2019Y12D01*
X2018Y12D01*
X2017Y12D01*
X2016Y12D01*
X2015Y12D01*
X2014Y12D01*
X2013Y12D01*
X2012Y12D01*
X2011Y12D01*
X2010Y12D01*
X2009Y12D01*
X2008Y12D01*
X2007Y12D01*
X2006Y12D01*
X2005Y12D01*
X2004Y12D01*
X2003Y12D01*
X2002Y12D01*
X2001Y12D01*
X2000Y12D01*
X1999Y12D01*
X1998Y12D01*
X1997Y12D01*
X1996Y12D01*
X1995Y12D01*
X1994Y12D01*
X1993Y12D01*
X1992Y12D01*
X1991Y12D01*
X1990Y12D01*
X1989Y12D01*
X1988Y12D01*
X1987Y12D01*
X1986Y12D01*
X1985Y12D01*
X1984Y12D01*
X1983Y12D01*
X1982Y12D01*
X1981Y12D01*
X1980Y12D01*
X1979Y12D01*
X1978Y12D01*
X1977Y12D01*
X1976Y12D01*
X1975Y12D01*
X1974Y12D01*
X1973Y12D01*
X1972Y12D01*
X1971Y12D01*
X1970Y12D01*
X1969Y12D01*
X1968Y12D01*
X1967Y12D01*
X1966Y12D01*
X1965Y12D01*
X1964Y12D01*
X1963Y12D01*
X1962Y12D01*
X1961Y12D01*
X1960Y12D01*
X1959Y12D01*
X1958Y12D01*
X1957Y12D01*
X1956Y12D01*
X1955Y12D01*
X1954Y12D01*
X1953Y12D01*
X1952Y12D01*
X1951Y12D01*
X1950Y12D01*
X1949Y12D01*
X1948Y12D01*
X1947Y12D01*
X1946Y12D01*
X1945Y12D01*
X1944Y12D01*
X1943Y12D01*
X1942Y12D01*
X1941Y12D01*
X1940Y12D01*
X1939Y12D01*
X1938Y12D01*
X1937Y12D01*
X1936Y12D01*
X1935Y12D01*
X1934Y12D01*
X1933Y12D01*
X1932Y12D01*
X1931Y12D01*
X1930Y12D01*
X1929Y12D01*
X1928Y12D01*
X1927Y12D01*
X1926Y12D01*
X1925Y12D01*
X1924Y12D01*
X1923Y12D01*
X1922Y12D01*
X1921Y12D01*
X1920Y12D01*
X1919Y12D01*
X1918Y12D01*
X1917Y12D01*
X1916Y12D01*
X1915Y12D01*
X1914Y12D01*
X1913Y12D01*
X1912Y12D01*
X1911Y12D01*
X1910Y12D01*
X1909Y12D01*
X1908Y12D01*
X1907Y12D01*
X1906Y12D01*
X1905Y12D01*
X1904Y12D01*
X1903Y12D01*
X1902Y12D01*
X1901Y12D01*
X1900Y12D01*
X1899Y12D01*
X1898Y12D01*
X1897Y12D01*
X1896Y12D01*
X1895Y12D01*
X1894Y12D01*
X1893Y12D01*
X1892Y12D01*
X1891Y12D01*
X1890Y12D01*
X1889Y12D01*
X1888Y12D01*
X1887Y12D01*
X1886Y12D01*
X1885Y12D01*
X1884Y12D01*
X1883Y12D01*
X1882Y12D01*
X1881Y12D01*
X1880Y12D01*
X1879Y12D01*
X1878Y12D01*
X1877Y12D01*
X1876Y12D01*
X1875Y12D01*
X1874Y12D01*
X1873Y12D01*
X1872Y12D01*
X1871Y12D01*
X1870Y12D01*
X1869Y12D01*
X1868Y12D01*
X1867Y12D01*
X1866Y12D01*
X1865Y12D01*
X1864Y12D01*
X1863Y12D01*
X1862Y12D01*
X1861Y12D01*
X1860Y12D01*
X1859Y12D01*
X1858Y12D01*
X1857Y12D01*
X1856Y12D01*
X1855Y12D01*
X1854Y12D01*
X1853Y12D01*
X1852Y12D01*
X1851Y12D01*
X1850Y12D01*
X1849Y12D01*
X1848Y12D01*
X1847Y12D01*
X1846Y12D01*
X1845Y12D01*
X1844Y12D01*
X1843Y12D01*
X1842Y12D01*
X1841Y12D01*
X1840Y12D01*
X1839Y12D01*
X1838Y12D01*
X1837Y12D01*
X1836Y12D01*
X1835Y12D01*
X1834Y12D01*
X1833Y12D01*
X1832Y12D01*
X1831Y12D01*
X1830Y12D01*
X1829Y12D01*
X1828Y12D01*
X1827Y12D01*
X1826Y12D01*
X1825Y12D01*
X1824Y12D01*
X1823Y12D01*
X1822Y12D01*
X1821Y12D01*
X1820Y12D01*
X1819Y12D01*
X1818Y12D01*
X1817Y12D01*
X1816Y12D01*
X1815Y12D01*
X1814Y12D01*
X1813Y12D01*
X1812Y12D01*
X1811Y12D01*
X1810Y12D01*
X1809Y12D01*
X1808Y12D01*
X1807Y12D01*
X1806Y12D01*
X1805Y12D01*
X1804Y12D01*
X1803Y12D01*
X1802Y12D01*
X1801Y12D01*
X1800Y12D01*
X1799Y12D01*
X1798Y12D01*
X1797Y12D01*
X1796Y12D01*
X1795Y12D01*
X1794Y12D01*
X1793Y12D01*
X1792Y12D01*
X1791Y12D01*
X1790Y12D01*
X1789Y12D01*
X1788Y12D01*
X1787Y12D01*
X1786Y12D01*
X1785Y12D01*
X1784Y12D01*
X1783Y12D01*
X1782Y12D01*
X1781Y12D01*
X1780Y12D01*
X1779Y12D01*
X1778Y12D01*
X1777Y12D01*
X1776Y12D01*
X1775Y12D01*
X1774Y12D01*
X1773Y12D01*
X1772Y12D01*
X1771Y12D01*
X1770Y12D01*
X1769Y12D01*
X1768Y12D01*
X1767Y12D01*
X1766Y12D01*
X1765Y12D01*
X1764Y12D01*
X1763Y12D01*
X1762Y12D01*
X1761Y12D01*
X1760Y12D01*
X1759Y12D01*
X1758Y12D01*
X1757Y12D01*
X1756Y12D01*
X1755Y12D01*
X1754Y12D01*
X1753Y12D01*
X1752Y12D01*
X1751Y12D01*
X1750Y12D01*
X1749Y12D01*
X1748Y12D01*
X1747Y12D01*
X1746Y12D01*
X1745Y12D01*
X1744Y12D01*
X1743Y12D01*
X1742Y12D01*
X1741Y12D01*
X1740Y12D01*
X1739Y12D01*
X1738Y12D01*
X1737Y12D01*
X1736Y12D01*
X1735Y12D01*
X1734Y12D01*
X1733Y12D01*
X1732Y12D01*
X1731Y12D01*
X1730Y12D01*
X1729Y12D01*
X1728Y12D01*
X1727Y12D01*
X1726Y12D01*
X1725Y12D01*
X1724Y12D01*
X1723Y12D01*
X1722Y12D01*
X1721Y12D01*
X1720Y12D01*
X1719Y12D01*
X1718Y12D01*
X1717Y12D01*
X1716Y12D01*
X1715Y12D01*
X1714Y12D01*
X1713Y12D01*
X1712Y12D01*
X1711Y12D01*
X1710Y12D01*
X1709Y12D01*
X1708Y12D01*
X1707Y12D01*
X1706Y12D01*
X1705Y12D01*
X1704Y12D01*
X1703Y12D01*
X1702Y12D01*
X1701Y12D01*
X1700Y12D01*
X1699Y12D01*
X1698Y12D01*
X1697Y12D01*
X1696Y12D01*
X1695Y12D01*
X1694Y12D01*
X1693Y12D01*
X1692Y12D01*
X1691Y12D01*
X1690Y12D01*
X1689Y12D01*
X1688Y12D01*
X1687Y12D01*
X1686Y12D01*
X1685Y12D01*
X1684Y12D01*
X1683Y12D01*
X1682Y12D01*
X1681Y12D01*
X1680Y12D01*
X1679Y12D01*
X1678Y12D01*
X1677Y12D01*
X1676Y12D01*
X1675Y12D01*
X1674Y12D01*
X1673Y12D01*
X1672Y12D01*
X1671Y12D01*
X1670Y12D01*
X1669Y12D01*
X1668Y12D01*
X1667Y12D01*
X1666Y12D01*
X1665Y12D01*
X1664Y12D01*
X1663Y12D01*
X1662Y12D01*
X1661Y12D01*
X1660Y12D01*
X1659Y12D01*
X1658Y12D01*
X1657Y12D01*
X1656Y12D01*
X1655Y12D01*
X1654Y12D01*
X1653Y12D01*
X1652Y12D01*
X1651Y12D01*
X1650Y12D01*
X1649Y12D01*
X1648Y12D01*
X1647Y12D01*
X1646Y12D01*
X1645Y12D01*
X1644Y12D01*
X1643Y12D01*
X1642Y12D01*
X1641Y12D01*
X1640Y12D01*
X1639Y12D01*
X1638Y12D01*
X1637Y12D01*
X1636Y12D01*
X1635Y12D01*
X1634Y12D01*
X1633Y12D01*
X1632Y12D01*
X1631Y12D01*
X1630Y12D01*
X1629Y12D01*
X1628Y12D01*
X1627Y12D01*
X1626Y12D01*
X1625Y12D01*
X1624Y12D01*
X1623Y12D01*
X1622Y12D01*
X1621Y12D01*
X1620Y12D01*
X1619Y12D01*
X1618Y12D01*
X1617Y12D01*
X1616Y12D01*
X1615Y12D01*
X1614Y12D01*
X1613Y12D01*
X1612Y12D01*
X1611Y12D01*
X1610Y12D01*
X1609Y12D01*
X1608Y12D01*
X1607Y12D01*
X1606Y12D01*
X1605Y12D01*
X1604Y12D01*
X1603Y12D01*
X1602Y12D01*
X1601Y12D01*
X1600Y12D01*
X1599Y12D01*
X1598Y12D01*
X1597Y12D01*
X1596Y12D01*
X1595Y12D01*
X1594Y12D01*
X1593Y12D01*
X1592Y12D01*
X1591Y12D01*
X1590Y12D01*
X1589Y12D01*
X1588Y12D01*
X1587Y12D01*
X1586Y12D01*
X1585Y12D01*
X1584Y12D01*
X1583Y12D01*
X1582Y12D01*
X1581Y12D01*
X1580Y12D01*
X1579Y12D01*
X1578Y12D01*
X1577Y12D01*
X1576Y12D01*
X1575Y12D01*
X1574Y12D01*
X1573Y12D01*
X1572Y12D01*
X1571Y12D01*
X1570Y12D01*
X1569Y12D01*
X1568Y12D01*
X1567Y12D01*
X1566Y12D01*
X1565Y12D01*
X1564Y12D01*
X1563Y12D01*
X1562Y12D01*
X1561Y12D01*
X1560Y12D01*
X1559Y12D01*
X1558Y12D01*
X1557Y12D01*
X1556Y12D01*
X1555Y12D01*
X1554Y12D01*
X1553Y12D01*
X1552Y12D01*
X1551Y12D01*
X1550Y12D01*
X1549Y12D01*
X1548Y12D01*
X1547Y12D01*
X1546Y12D01*
X1545Y12D01*
X1544Y12D01*
X1543Y12D01*
X1542Y12D01*
X1541Y12D01*
X1540Y12D01*
X1539Y12D01*
X1538Y12D01*
X1537Y12D01*
X1536Y12D01*
X1535Y12D01*
X1534Y12D01*
X1533Y12D01*
X1532Y12D01*
X1531Y12D01*
X1530Y12D01*
X1529Y12D01*
X1528Y12D01*
X1527Y12D01*
X1526Y12D01*
X1525Y12D01*
X1524Y12D01*
X1523Y12D01*
X1522Y12D01*
X1521Y12D01*
X1520Y12D01*
X1519Y12D01*
X1518Y12D01*
X1517Y12D01*
X1516Y12D01*
X1515Y12D01*
X1514Y12D01*
X1513Y12D01*
X1512Y12D01*
X1511Y12D01*
X1510Y12D01*
X1509Y12D01*
X1508Y12D01*
X1507Y12D01*
X1506Y12D01*
X1505Y12D01*
X1504Y12D01*
X1503Y12D01*
X1502Y12D01*
X1501Y12D01*
X1500Y12D01*
X1499Y12D01*
X1498Y12D01*
X1497Y12D01*
X1496Y12D01*
X1495Y12D01*
X1494Y12D01*
X1493Y12D01*
X1492Y12D01*
X1491Y12D01*
X1490Y12D01*
X1489Y12D01*
X1488Y12D01*
X1487Y12D01*
X1486Y12D01*
X1485Y12D01*
X1484Y12D01*
X1483Y12D01*
X1482Y12D01*
X1481Y12D01*
X1480Y12D01*
X1479Y12D01*
X1478Y12D01*
X1477Y12D01*
X1476Y12D01*
X1475Y12D01*
X1474Y12D01*
X1473Y12D01*
X1472Y12D01*
X1471Y12D01*
X1470Y12D01*
X1469Y12D01*
X1468Y12D01*
X1467Y12D01*
X1466Y12D01*
X1465Y12D01*
X1464Y12D01*
X1463Y12D01*
X1462Y12D01*
X1461Y12D01*
X1460Y12D01*
X1459Y12D01*
X1458Y12D01*
X1457Y12D01*
X1456Y12D01*
X1455Y12D01*
X1454Y12D01*
X1453Y12D01*
X1452Y12D01*
X1451Y12D01*
X1450Y12D01*
X1449Y12D01*
X1448Y12D01*
X1447Y12D01*
X1446Y12D01*
X1445Y12D01*
X1444Y12D01*
X1443Y12D01*
X1442Y12D01*
X1441Y12D01*
X1440Y12D01*
X1439Y12D01*
X1438Y12D01*
X1437Y12D01*
X1436Y12D01*
X1435Y12D01*
X1434Y12D01*
X1433Y12D01*
X1432Y12D01*
X1431Y12D01*
X1430Y12D01*
X1429Y12D01*
X1428Y12D01*
X1427Y12D01*
X1426Y12D01*
X1425Y12D01*
X1424Y12D01*
X1423Y12D01*
X1422Y12D01*
X1421Y12D01*
X1420Y12D01*
X1419Y12D01*
X1418Y12D01*
X1417Y12D01*
X1416Y12D01*
X1415Y12D01*
X1414Y12D01*
X1413Y12D01*
X1412Y12D01*
X1411Y12D01*
X1410Y12D01*
X1409Y12D01*
X1408Y12D01*
X1407Y12D01*
X1406Y12D01*
X1405Y12D01*
X1404Y12D01*
X1403Y12D01*
X1402Y12D01*
X1401Y12D01*
X1400Y12D01*
X1399Y12D01*
X1398Y12D01*
X1397Y12D01*
X1396Y12D01*
X1395Y12D01*
X1394Y12D01*
X1393Y12D01*
X1392Y12D01*
X1391Y12D01*
X1390Y12D01*
X1389Y12D01*
X1388Y12D01*
X1387Y12D01*
X1386Y12D01*
X1385Y12D01*
X1384Y12D01*
X1383Y12D01*
X1382Y12D01*
X1381Y12D01*
X1380Y12D01*
X1379Y12D01*
X1378Y12D01*
X1377Y12D01*
X1376Y12D01*
X1375Y12D01*
X1374Y12D01*
X1373Y12D01*
X1372Y12D01*
X1371Y12D01*
X1370Y12D01*
X1369Y12D01*
X1368Y12D01*
X1367Y12D01*
X1366Y12D01*
X1365Y12D01*
X1364Y12D01*
X1363Y12D01*
X1362Y12D01*
X1361Y12D01*
X1360Y12D01*
X1359Y12D01*
X1358Y12D01*
X1357Y12D01*
X1356Y12D01*
X1355Y12D01*
X1354Y12D01*
X1353Y12D01*
X1352Y12D01*
X1351Y12D01*
X1350Y12D01*
X1349Y12D01*
X1348Y12D01*
X1347Y12D01*
X1346Y12D01*
X1345Y12D01*
X1344Y12D01*
X1343Y12D01*
X1342Y12D01*
X1341Y12D01*
X1340Y12D01*
X1339Y12D01*
X1338Y12D01*
X1337Y12D01*
X1336Y12D01*
X1335Y12D01*
X1334Y12D01*
X1333Y12D01*
X1332Y12D01*
X1331Y12D01*
X1330Y12D01*
X1329Y12D01*
X1328Y12D01*
X1327Y12D01*
X1326Y12D01*
X1325Y12D01*
X1324Y12D01*
X1323Y12D01*
X1322Y12D01*
X1321Y12D01*
X1320Y12D01*
X1319Y12D01*
X1318Y12D01*
X1317Y12D01*
X1316Y12D01*
X1315Y12D01*
X1314Y12D01*
X1313Y12D01*
X1312Y12D01*
X1311Y12D01*
X1310Y12D01*
X1309Y12D01*
X1308Y12D01*
X1307Y12D01*
X1306Y12D01*
X1305Y12D01*
X1304Y12D01*
X1303Y12D01*
X1302Y12D01*
X1301Y12D01*
X1300Y12D01*
X1299Y12D01*
X1298Y12D01*
X1297Y12D01*
X1296Y12D01*
X1295Y12D01*
X1294Y12D01*
X1293Y12D01*
X1292Y12D01*
X1291Y12D01*
X1290Y12D01*
X1289Y12D01*
X1288Y12D01*
X1287Y12D01*
X1286Y12D01*
X1285Y12D01*
X1284Y12D01*
X1283Y12D01*
X1282Y12D01*
X1281Y12D01*
X1280Y12D01*
X1279Y12D01*
X1278Y12D01*
X1277Y12D01*
X1276Y12D01*
X1275Y12D01*
X1274Y12D01*
X1273Y12D01*
X1272Y12D01*
X1271Y12D01*
X1270Y12D01*
X1269Y12D01*
X1268Y12D01*
X1267Y12D01*
X1266Y12D01*
X1265Y12D01*
X1264Y12D01*
X1263Y12D01*
X1262Y12D01*
X1261Y12D01*
X1260Y12D01*
X1259Y12D01*
X1258Y12D01*
X1257Y12D01*
X1256Y12D01*
X1255Y12D01*
X1254Y12D01*
X1253Y12D01*
X1252Y12D01*
X1251Y12D01*
X1250Y12D01*
X1249Y12D01*
X1248Y12D01*
X1247Y12D01*
X1246Y12D01*
X1245Y12D01*
X1244Y12D01*
X1243Y12D01*
X1242Y12D01*
X1241Y12D01*
X1240Y12D01*
X1239Y12D01*
X1238Y12D01*
X1237Y12D01*
X1236Y12D01*
X1235Y12D01*
X1234Y12D01*
X1233Y12D01*
X1232Y12D01*
X1231Y12D01*
X1230Y12D01*
X1229Y12D01*
X1228Y12D01*
X1227Y12D01*
X1226Y12D01*
X1225Y12D01*
X1224Y12D01*
X1223Y12D01*
X1222Y12D01*
X1221Y12D01*
X1220Y12D01*
X1219Y12D01*
X1218Y12D01*
X1217Y12D01*
X1216Y12D01*
X1215Y12D01*
X1214Y12D01*
X1213Y12D01*
X1212Y12D01*
X1211Y12D01*
X1210Y12D01*
X1209Y12D01*
X1208Y12D01*
X1207Y12D01*
X1206Y12D01*
X1205Y12D01*
X1204Y12D01*
X1203Y12D01*
X1202Y12D01*
X1201Y12D01*
X1200Y12D01*
X1199Y12D01*
X1198Y12D01*
X1197Y12D01*
X1196Y12D01*
X1195Y12D01*
X1194Y12D01*
X1193Y12D01*
X1192Y12D01*
X1191Y12D01*
X1190Y12D01*
X1189Y12D01*
X1188Y12D01*
X1187Y12D01*
X1186Y12D01*
X1185Y12D01*
X1184Y12D01*
X1183Y12D01*
X1182Y12D01*
X1181Y12D01*
X1180Y12D01*
X1179Y12D01*
X1178Y12D01*
X1177Y12D01*
X1176Y12D01*
X1175Y12D01*
X1174Y12D01*
X1173Y12D01*
X1172Y12D01*
X1171Y12D01*
X1170Y12D01*
X1169Y12D01*
X1168Y12D01*
X1167Y12D01*
X1166Y12D01*
X1165Y12D01*
X1164Y12D01*
X1163Y12D01*
X1162Y12D01*
X1161Y12D01*
X1160Y12D01*
X1159Y12D01*
X1158Y12D01*
X1157Y12D01*
X1156Y12D01*
X1155Y12D01*
X1154Y12D01*
X1153Y12D01*
X1152Y12D01*
X1151Y12D01*
X1150Y12D01*
X1149Y12D01*
X1148Y12D01*
X1147Y12D01*
X1146Y12D01*
X1145Y12D01*
X1144Y12D01*
X1143Y12D01*
X1142Y12D01*
X1141Y12D01*
X1140Y12D01*
X1139Y12D01*
X1138Y12D01*
X1137Y12D01*
X1136Y12D01*
X1135Y12D01*
X1134Y12D01*
X1133Y12D01*
X1132Y12D01*
X1131Y12D01*
X1130Y12D01*
X1129Y12D01*
X1128Y12D01*
X1127Y12D01*
X1126Y12D01*
X1125Y12D01*
X1124Y12D01*
X1123Y12D01*
X1122Y12D01*
X1121Y12D01*
X1120Y12D01*
X1119Y12D01*
X1118Y12D01*
X1117Y12D01*
X1116Y12D01*
X1115Y12D01*
X1114Y12D01*
X1113Y12D01*
X1112Y12D01*
X1111Y12D01*
X1110Y12D01*
X1109Y12D01*
X1108Y12D01*
X1107Y12D01*
X1106Y12D01*
X1105Y12D01*
X1104Y12D01*
X1103Y12D01*
X1102Y12D01*
X1101Y12D01*
X1100Y12D01*
X1099Y12D01*
X1098Y12D01*
X1097Y12D01*
X1096Y12D01*
X1095Y12D01*
X1094Y12D01*
X1093Y12D01*
X1092Y12D01*
X1091Y12D01*
X1090Y12D01*
X1089Y12D01*
X1088Y12D01*
X1087Y12D01*
X1086Y12D01*
X1085Y12D01*
X1084Y12D01*
X1083Y12D01*
X1082Y12D01*
X1081Y12D01*
X1080Y12D01*
X1079Y12D01*
X1078Y12D01*
X1077Y12D01*
X1076Y12D01*
X1075Y12D01*
X1074Y12D01*
X1073Y12D01*
X1072Y12D01*
X1071Y12D01*
X1070Y12D01*
X1069Y12D01*
X1068Y12D01*
X1067Y12D01*
X1066Y12D01*
X1065Y12D01*
X1064Y12D01*
X1063Y12D01*
X1062Y12D01*
X1061Y12D01*
X1060Y12D01*
X1059Y12D01*
X1058Y12D01*
X1057Y12D01*
X1056Y12D01*
X1055Y12D01*
X1054Y12D01*
X1053Y12D01*
X1052Y12D01*
X1051Y12D01*
X1050Y12D01*
X1049Y12D01*
X1048Y12D01*
X1047Y12D01*
X1046Y12D01*
X1045Y12D01*
X1044Y12D01*
X1043Y12D01*
X1042Y12D01*
X1041Y12D01*
X1040Y12D01*
X1039Y12D01*
X1038Y12D01*
X1037Y12D01*
X1036Y12D01*
X1035Y12D01*
X1034Y12D01*
X1033Y12D01*
X1032Y12D01*
X1031Y12D01*
X1030Y12D01*
X1029Y12D01*
X1028Y12D01*
X1027Y12D01*
X1026Y12D01*
X1025Y12D01*
X1024Y12D01*
X1023Y12D01*
X1022Y12D01*
X1021Y12D01*
X1020Y12D01*
X1019Y12D01*
X1018Y12D01*
X1017Y12D01*
X1016Y12D01*
X1015Y12D01*
X1014Y12D01*
X1013Y12D01*
X1012Y12D01*
X1011Y12D01*
X1010Y12D01*
X1009Y12D01*
X1008Y12D01*
X1007Y12D01*
X1006Y12D01*
X1005Y12D01*
X1004Y12D01*
X1003Y12D01*
X1002Y12D01*
X1001Y12D01*
X1000Y12D01*
X999Y12D01*
X998Y12D01*
X997Y12D01*
X996Y12D01*
X995Y12D01*
X994Y12D01*
X993Y12D01*
X992Y12D01*
X991Y12D01*
X990Y12D01*
X989Y12D01*
X988Y12D01*
X987Y12D01*
X986Y12D01*
X985Y12D01*
X984Y12D01*
X983Y12D01*
X982Y12D01*
X981Y12D01*
X980Y12D01*
X979Y12D01*
X978Y12D01*
X977Y12D01*
X976Y12D01*
X975Y12D01*
X974Y12D01*
X973Y12D01*
X972Y12D01*
X971Y12D01*
X970Y12D01*
X969Y12D01*
X968Y12D01*
X967Y12D01*
X966Y12D01*
X965Y12D01*
X964Y12D01*
X963Y12D01*
X962Y12D01*
X961Y12D01*
X960Y12D01*
X959Y12D01*
X958Y12D01*
X957Y12D01*
X956Y12D01*
X955Y12D01*
X954Y12D01*
X953Y12D01*
X952Y12D01*
X951Y12D01*
X950Y12D01*
X949Y12D01*
X948Y12D01*
X947Y12D01*
X946Y12D01*
X945Y12D01*
X944Y12D01*
X943Y12D01*
X942Y12D01*
X941Y12D01*
X940Y12D01*
X939Y12D01*
X938Y12D01*
X937Y12D01*
X936Y12D01*
X935Y12D01*
X934Y12D01*
X933Y12D01*
X932Y12D01*
X931Y12D01*
X930Y12D01*
X929Y12D01*
X928Y12D01*
X927Y12D01*
X926Y12D01*
X925Y12D01*
X924Y12D01*
X923Y12D01*
X922Y12D01*
X921Y12D01*
X920Y12D01*
X919Y12D01*
X918Y12D01*
X917Y12D01*
X916Y12D01*
X915Y12D01*
X914Y12D01*
X913Y12D01*
X912Y12D01*
X911Y12D01*
X910Y12D01*
X909Y12D01*
X908Y12D01*
X907Y12D01*
X906Y12D01*
X905Y12D01*
X904Y12D01*
X903Y12D01*
X902Y12D01*
X901Y12D01*
X900Y12D01*
X899Y12D01*
X898Y12D01*
X897Y12D01*
X896Y12D01*
X895Y12D01*
X894Y12D01*
X893Y12D01*
X892Y12D01*
X891Y12D01*
X890Y12D01*
X889Y12D01*
X888Y12D01*
X887Y12D01*
X886Y12D01*
X885Y12D01*
X884Y12D01*
X883Y12D01*
X882Y12D01*
X881Y12D01*
X880Y12D01*
X879Y12D01*
X878Y12D01*
X877Y12D01*
X876Y12D01*
X875Y12D01*
X874Y12D01*
X873Y12D01*
X872Y12D01*
X871Y12D01*
X870Y12D01*
X869Y12D01*
X868Y12D01*
X867Y12D01*
X866Y12D01*
X865Y12D01*
X864Y12D01*
X863Y12D01*
X862Y12D01*
X861Y12D01*
X860Y12D01*
X859Y12D01*
X858Y12D01*
X857Y12D01*
X856Y12D01*
X855Y12D01*
X854Y12D01*
X853Y12D01*
X852Y12D01*
X851Y12D01*
X850Y12D01*
X849Y12D01*
X848Y12D01*
X847Y12D01*
X846Y12D01*
X845Y12D01*
X844Y12D01*
X843Y12D01*
X842Y12D01*
X841Y12D01*
X840Y12D01*
X839Y12D01*
X838Y12D01*
X837Y12D01*
X836Y12D01*
X835Y12D01*
X834Y12D01*
X833Y12D01*
X832Y12D01*
X831Y12D01*
X830Y12D01*
X829Y12D01*
X828Y12D01*
X827Y12D01*
X826Y12D01*
X825Y12D01*
X824Y12D01*
X823Y12D01*
X822Y12D01*
X821Y12D01*
X820Y12D01*
X819Y12D01*
X818Y12D01*
X817Y12D01*
X816Y12D01*
X815Y12D01*
X814Y12D01*
X813Y12D01*
X812Y12D01*
X811Y12D01*
X810Y12D01*
X809Y12D01*
X808Y12D01*
X807Y12D01*
X806Y12D01*
X805Y12D01*
X804Y12D01*
X803Y12D01*
X802Y12D01*
X801Y12D01*
X800Y12D01*
X799Y12D01*
X798Y12D01*
X797Y12D01*
X796Y12D01*
X795Y12D01*
X794Y12D01*
X793Y12D01*
X792Y12D01*
X791Y12D01*
X790Y12D01*
X789Y12D01*
X788Y12D01*
X787Y12D01*
X786Y12D01*
X785Y12D01*
X784Y12D01*
X783Y12D01*
X782Y12D01*
X781Y12D01*
X780Y12D01*
X779Y12D01*
X778Y12D01*
X777Y12D01*
X776Y12D01*
X775Y12D01*
X774Y12D01*
X773Y12D01*
X772Y12D01*
X771Y12D01*
X770Y12D01*
X769Y12D01*
X768Y12D01*
X767Y12D01*
X766Y12D01*
X765Y12D01*
X764Y12D01*
X763Y12D01*
X762Y12D01*
X761Y12D01*
X760Y12D01*
X759Y12D01*
X758Y12D01*
X757Y12D01*
X756Y12D01*
X755Y12D01*
X754Y12D01*
X753Y12D01*
X752Y12D01*
X751Y12D01*
X750Y12D01*
X749Y12D01*
X748Y12D01*
X747Y12D01*
X746Y12D01*
X745Y12D01*
X744Y12D01*
X743Y12D01*
X742Y12D01*
X741Y12D01*
X740Y12D01*
X739Y12D01*
X738Y12D01*
X737Y12D01*
X736Y12D01*
X735Y12D01*
X734Y12D01*
X733Y12D01*
X732Y12D01*
X731Y12D01*
X730Y12D01*
X729Y12D01*
X728Y12D01*
X727Y12D01*
X726Y12D01*
X725Y12D01*
X724Y12D01*
X723Y12D01*
X722Y12D01*
X721Y12D01*
X720Y12D01*
X719Y12D01*
X718Y12D01*
X717Y12D01*
X716Y12D01*
X715Y12D01*
X714Y12D01*
X713Y12D01*
X712Y12D01*
X711Y12D01*
X710Y12D01*
X709Y12D01*
X708Y12D01*
X707Y12D01*
X706Y12D01*
X705Y12D01*
X704Y12D01*
X703Y12D01*
X702Y12D01*
X701Y12D01*
X700Y12D01*
X699Y12D01*
X698Y12D01*
X697Y12D01*
X696Y12D01*
X695Y12D01*
X694Y12D01*
X693Y12D01*
X692Y12D01*
X691Y12D01*
X690Y12D01*
X689Y12D01*
X688Y12D01*
X687Y12D01*
X686Y12D01*
X685Y12D01*
X684Y12D01*
X683Y12D01*
X682Y12D01*
X681Y12D01*
X680Y12D01*
X679Y12D01*
X678Y12D01*
X677Y12D01*
X676Y12D01*
X675Y12D01*
X674Y12D01*
X673Y12D01*
X672Y12D01*
X671Y12D01*
X670Y12D01*
X669Y12D01*
X668Y12D01*
X667Y12D01*
X666Y12D01*
X665Y12D01*
X664Y12D01*
X663Y12D01*
X662Y12D01*
X661Y12D01*
X660Y12D01*
X659Y12D01*
X658Y12D01*
X657Y12D01*
X656Y12D01*
X655Y12D01*
X654Y12D01*
X653Y12D01*
X652Y12D01*
X651Y12D01*
X650Y12D01*
X649Y12D01*
X648Y12D01*
X647Y12D01*
X646Y12D01*
X645Y12D01*
X644Y12D01*
X643Y12D01*
X642Y12D01*
X641Y12D01*
X640Y12D01*
X639Y12D01*
X638Y12D01*
X637Y12D01*
X636Y12D01*
X635Y12D01*
X634Y12D01*
X633Y12D01*
X632Y12D01*
X631Y12D01*
X630Y12D01*
X629Y12D01*
X628Y12D01*
X627Y12D01*
X626Y12D01*
X625Y12D01*
X624Y12D01*
X623Y12D01*
X622Y12D01*
X621Y12D01*
X620Y12D01*
X619Y12D01*
X618Y12D01*
X617Y12D01*
X616Y12D01*
X615Y12D01*
X614Y12D01*
X613Y12D01*
X612Y12D01*
X611Y12D01*
X610Y12D01*
X609Y12D01*
X608Y12D01*
X607Y12D01*
X606Y12D01*
X605Y12D01*
X604Y12D01*
X603Y12D01*
X602Y12D01*
X601Y12D01*
X600Y12D01*
X599Y12D01*
X598Y12D01*
X597Y12D01*
X596Y12D01*
X595Y12D01*
X594Y12D01*
X593Y12D01*
X592Y12D01*
X591Y12D01*
X590Y12D01*
X589Y12D01*
X588Y12D01*
X587Y12D01*
X586Y12D01*
X585Y12D01*
X584Y12D01*
X583Y12D01*
X582Y12D01*
X581Y12D01*
X580Y12D01*
X579Y12D01*
X578Y12D01*
X577Y12D01*
X576Y12D01*
X575Y12D01*
X574Y12D01*
X573Y12D01*
X572Y12D01*
X571Y12D01*
X570Y12D01*
X569Y12D01*
X568Y12D01*
X567Y12D01*
X566Y12D01*
X565Y12D01*
X564Y12D01*
X563Y12D01*
X562Y12D01*
X561Y12D01*
X560Y12D01*
X559Y12D01*
X558Y12D01*
X557Y12D01*
X556Y12D01*
X555Y12D01*
X554Y12D01*
X553Y12D01*
X552Y12D01*
X551Y12D01*
X550Y12D01*
X549Y12D01*
X548Y12D01*
X547Y12D01*
X546Y12D01*
X545Y12D01*
X544Y12D01*
X543Y12D01*
X542Y12D01*
X541Y12D01*
X540Y12D01*
X539Y12D01*
X538Y12D01*
X537Y12D01*
X536Y12D01*
X535Y12D01*
X534Y12D01*
X533Y12D01*
X532Y12D01*
X531Y12D01*
X530Y12D01*
X529Y12D01*
X528Y12D01*
X527Y12D01*
X526Y12D01*
X525Y12D01*
X524Y12D01*
X523Y12D01*
X522Y12D01*
X521Y12D01*
X520Y12D01*
X519Y12D01*
X518Y12D01*
X517Y12D01*
X516Y12D01*
X515Y12D01*
X514Y12D01*
X513Y12D01*
X512Y12D01*
X511Y12D01*
X510Y12D01*
X509Y12D01*
X508Y12D01*
X507Y12D01*
X506Y12D01*
X505Y12D01*
X504Y12D01*
X503Y12D01*
X502Y12D01*
X501Y12D01*
X500Y12D01*
X499Y12D01*
X498Y12D01*
X497Y12D01*
X496Y12D01*
X495Y12D01*
X494Y12D01*
X493Y12D01*
X492Y12D01*
X491Y12D01*
X490Y12D01*
X489Y12D01*
X488Y12D01*
X487Y12D01*
X486Y12D01*
X485Y12D01*
X484Y12D01*
X483Y12D01*
X482Y12D01*
X481Y12D01*
X480Y12D01*
X479Y12D01*
X478Y12D01*
X477Y12D01*
X476Y12D01*
X475Y12D01*
X474Y12D01*
X473Y12D01*
X472Y12D01*
X471Y12D01*
X470Y12D01*
X469Y12D01*
X468Y12D01*
X467Y12D01*
X466Y12D01*
X465Y12D01*
X464Y12D01*
X463Y12D01*
X462Y12D01*
X461Y12D01*
X460Y12D01*
X459Y12D01*
X458Y12D01*
X457Y12D01*
X456Y12D01*
X455Y12D01*
X454Y12D01*
X453Y12D01*
X452Y12D01*
X451Y12D01*
X450Y12D01*
X449Y12D01*
X448Y12D01*
X447Y12D01*
X446Y12D01*
X445Y12D01*
X444Y12D01*
X443Y12D01*
X442Y12D01*
X441Y12D01*
X440Y12D01*
X439Y12D01*
X438Y12D01*
X437Y12D01*
X436Y12D01*
X435Y12D01*
X434Y12D01*
X433Y12D01*
X432Y12D01*
X431Y12D01*
X430Y12D01*
X429Y12D01*
X428Y12D01*
X427Y12D01*
X426Y12D01*
X425Y12D01*
X424Y12D01*
X423Y12D01*
X422Y12D01*
X421Y12D01*
X420Y12D01*
X419Y12D01*
X418Y12D01*
X417Y12D01*
X416Y12D01*
X415Y12D01*
X414Y12D01*
X413Y12D01*
X412Y12D01*
X411Y12D01*
X410Y12D01*
X409Y12D01*
X408Y12D01*
X407Y12D01*
X406Y12D01*
X405Y12D01*
X404Y12D01*
X403Y12D01*
X402Y12D01*
X401Y12D01*
X400Y12D01*
X399Y12D01*
X398Y12D01*
X397Y12D01*
X396Y12D01*
X395Y12D01*
X394Y12D01*
X393Y12D01*
X392Y12D01*
X391Y12D01*
X390Y12D01*
X389Y12D01*
X388Y12D01*
X387Y12D01*
X386Y12D01*
X385Y12D01*
X384Y12D01*
X383Y12D01*
X382Y12D01*
X381Y12D01*
X380Y12D01*
X379Y12D01*
X378Y12D01*
X377Y12D01*
X376Y12D01*
X375Y12D01*
X374Y12D01*
X373Y12D01*
X372Y12D01*
X371Y12D01*
X370Y12D01*
X369Y12D01*
X368Y12D01*
X367Y12D01*
X366Y12D01*
X365Y12D01*
X364Y12D01*
X363Y12D01*
X362Y12D01*
X361Y12D01*
X360Y12D01*
X359Y12D01*
X358Y12D01*
X357Y12D01*
X356Y12D01*
X355Y12D01*
X354Y12D01*
X353Y12D01*
X352Y12D01*
X351Y12D01*
X350Y12D01*
X349Y12D01*
X348Y12D01*
X347Y12D01*
X346Y12D01*
X345Y12D01*
X344Y12D01*
X343Y12D01*
X342Y12D01*
X341Y12D01*
X340Y12D01*
X339Y12D01*
X338Y12D01*
X337Y12D01*
X336Y12D01*
X335Y12D01*
X334Y12D01*
X333Y12D01*
X332Y12D01*
X331Y12D01*
X330Y12D01*
X329Y12D01*
X328Y12D01*
X327Y12D01*
X326Y12D01*
X325Y12D01*
X324Y12D01*
X323Y12D01*
X322Y12D01*
X321Y12D01*
X320Y12D01*
X319Y12D01*
X318Y12D01*
X317Y12D01*
X316Y12D01*
X315Y12D01*
X314Y12D01*
X313Y12D01*
X312Y12D01*
X311Y12D01*
X310Y12D01*
X309Y12D01*
X308Y12D01*
X307Y12D01*
X306Y12D01*
X305Y12D01*
X304Y12D01*
X303Y12D01*
X302Y12D01*
X301Y12D01*
X300Y12D01*
X299Y12D01*
X298Y12D01*
X297Y12D01*
X296Y12D01*
X295Y12D01*
X294Y12D01*
X293Y12D01*
X292Y12D01*
X291Y12D01*
X290Y12D01*
X289Y12D01*
X288Y12D01*
X287Y12D01*
X286Y12D01*
X285Y12D01*
X284Y12D01*
X283Y12D01*
X282Y12D01*
X281Y12D01*
X280Y12D01*
X279Y12D01*
X278Y12D01*
X277Y12D01*
X276Y12D01*
X275Y12D01*
X274Y12D01*
X273Y12D01*
X272Y12D01*
X271Y12D01*
X270Y12D01*
X269Y12D01*
X268Y12D01*
X267Y12D01*
X266Y12D01*
X265Y12D01*
X264Y12D01*
X263Y12D01*
X262Y12D01*
X261Y12D01*
X260Y12D01*
X259Y12D01*
X258Y12D01*
X257Y12D01*
X256Y12D01*
X255Y12D01*
X254Y12D01*
X253Y12D01*
X252Y12D01*
X251Y12D01*
X250Y12D01*
X249Y12D01*
X248Y12D01*
X247Y12D01*
X246Y12D01*
X245Y12D01*
X244Y12D01*
X243Y12D01*
X242Y12D01*
X241Y12D01*
X240Y12D01*
X239Y12D01*
X238Y12D01*
X237Y12D01*
X236Y12D01*
X235Y12D01*
X234Y12D01*
X233Y12D01*
X232Y12D01*
X231Y12D01*
X230Y12D01*
X229Y12D01*
X228Y12D01*
X227Y12D01*
X226Y12D01*
X225Y12D01*
X224Y12D01*
X223Y12D01*
X222Y12D01*
X221Y12D01*
X220Y12D01*
X219Y12D01*
X218Y12D01*
X217Y12D01*
X216Y12D01*
X215Y12D01*
X214Y12D01*
X213Y12D01*
X212Y12D01*
X211Y12D01*
X210Y12D01*
X209Y12D01*
X208Y12D01*
X207Y12D01*
X206Y12D01*
X205Y12D01*
X204Y12D01*
X203Y12D01*
X202Y12D01*
X201Y12D01*
X200Y12D01*
X199Y12D01*
X198Y12D01*
X197Y12D01*
X196Y12D01*
X195Y12D01*
X194Y12D01*
X193Y12D01*
X192Y12D01*
X191Y12D01*
X190Y12D01*
X189Y12D01*
X188Y12D01*
X187Y12D01*
X186Y12D01*
X185Y12D01*
X184Y12D01*
X183Y12D01*
X182Y12D01*
X181Y12D01*
X180Y12D01*
X179Y12D01*
X178Y12D01*
X177Y12D01*
X176Y12D01*
X175Y12D01*
X174Y12D01*
X173Y12D01*
X172Y12D01*
X171Y12D01*
X170Y12D01*
X169Y12D01*
X168Y12D01*
X167Y12D01*
X166Y12D01*
X165Y13D01*
X164Y14D01*
X163Y15D01*
X162Y16D01*
X161Y17D01*
X160Y18D01*
X159Y19D01*
X158Y20D01*
X157Y21D01*
X156Y22D01*
X155Y23D01*
X154Y24D01*
X153Y25D01*
X152Y26D01*
X151Y27D01*
X150Y28D01*
X149Y29D01*
X148Y30D01*
X147Y31D01*
X146Y32D01*
X145Y33D01*
X144Y34D01*
X143Y35D01*
X142Y36D01*
X141Y37D01*
X140Y38D01*
X139Y39D01*
X138Y40D01*
X137Y41D01*
X136Y42D01*
X135Y43D01*
X134Y44D01*
X133Y45D01*
X132Y46D01*
X131Y47D01*
X130Y48D01*
X129Y49D01*
X128Y50D01*
X127Y51D01*
X126Y52D01*
X125Y53D01*
X124Y54D01*
X123Y55D01*
X122Y56D01*
X121Y57D01*
X120Y58D01*
X119Y59D01*
X118Y60D01*
X117Y61D01*
X116Y62D01*
X115Y63D01*
X114Y64D01*
X113Y65D01*
X112Y66D01*
X111Y67D01*
X110Y68D01*
X109Y69D01*
X108Y70D01*
X107Y71D01*
X106Y72D01*
X106Y520D01*
X105Y521D01*
X104Y522D01*
X103Y523D01*
X102Y524D01*
X101Y525D01*
X100Y526D01*
X99Y527D01*
X98Y528D01*
X97Y529D01*
X96Y530D01*
X95Y531D01*
X94Y532D01*
X93Y533D01*
X92Y534D01*
X91Y535D01*
X90Y536D01*
X89Y537D01*
X88Y538D01*
X87Y539D01*
X86Y540D01*
X85Y541D01*
X84Y542D01*
X83Y543D01*
X82Y544D01*
X81Y545D01*
X80Y546D01*
X79Y547D01*
X78Y548D01*
X77Y549D01*
X76Y550D01*
X75Y551D01*
X74Y552D01*
X73Y553D01*
X72Y554D01*
X71Y555D01*
X70Y556D01*
X69Y557D01*
X68Y558D01*
X67Y559D01*
X66Y560D01*
X65Y561D01*
X64Y562D01*
X63Y563D01*
X62Y564D01*
X61Y565D01*
X60Y566D01*
X59Y567D01*
X58Y568D01*
X57Y569D01*
X56Y570D01*
X55Y571D01*
X54Y572D01*
X53Y573D01*
X52Y574D01*
X51Y575D01*
X50Y576D01*
X49Y577D01*
X48Y578D01*
X47Y579D01*
X46Y580D01*
X45Y581D01*
X44Y582D01*
X43Y583D01*
X42Y584D01*
X41Y585D01*
X40Y586D01*
X39Y587D01*
X38Y588D01*
X37Y589D01*
X36Y590D01*
X35Y591D01*
X34Y592D01*
X33Y593D01*
X32Y594D01*
X31Y595D01*
X30Y596D01*
X29Y597D01*
X28Y598D01*
X27Y599D01*
X26Y600D01*
X25Y601D01*
X24Y602D01*
X23Y603D01*
X22Y604D01*
X21Y605D01*
X20Y606D01*
X19Y607D01*
X18Y608D01*
X17Y609D01*
X16Y610D01*
X15Y611D01*
X14Y612D01*
X13Y613D01*
X12Y614D01*
X11Y615D01*
X10Y616D01*
X9Y617D01*
X8Y618D01*
X7Y619D01*
X7Y1904D01*
X8Y1905D01*
X9Y1906D01*
X10Y1907D01*
X11Y1908D01*
X12Y1909D01*
X13Y1910D01*
X14Y1911D01*
X15Y1912D01*
X16Y1913D01*
X17Y1914D01*
X18Y1915D01*
X19Y1916D01*
X20Y1917D01*
X21Y1918D01*
X22Y1919D01*
X23Y1920D01*
X24Y1921D01*
X25Y1922D01*
X26Y1923D01*
X27Y1924D01*
X28Y1925D01*
X29Y1926D01*
X30Y1927D01*
X31Y1928D01*
X32Y1929D01*
X33Y1930D01*
X34Y1931D01*
X35Y1932D01*
X36Y1933D01*
X37Y1934D01*
X38Y1935D01*
X39Y1936D01*
X40Y1937D01*
X41Y1938D01*
X42Y1939D01*
X43Y1940D01*
X44Y1941D01*
X45Y1942D01*
X46Y1943D01*
X47Y1944D01*
X48Y1945D01*
X49Y1946D01*
X50Y1947D01*
X51Y1948D01*
X52Y1949D01*
X53Y1950D01*
X54Y1951D01*
X55Y1952D01*
X56Y1953D01*
X57Y1954D01*
X58Y1955D01*
X59Y1956D01*
X60Y1957D01*
X61Y1958D01*
X62Y1959D01*
X63Y1960D01*
X64Y1961D01*
X65Y1962D01*
X66Y1963D01*
X67Y1964D01*
X68Y1965D01*
X69Y1966D01*
X70Y1967D01*
X71Y1968D01*
X72Y1969D01*
X73Y1970D01*
X74Y1971D01*
X75Y1972D01*
X76Y1973D01*
X77Y1974D01*
X78Y1975D01*
X79Y1976D01*
X80Y1977D01*
X81Y1978D01*
X82Y1979D01*
X83Y1980D01*
X84Y1981D01*
X85Y1982D01*
X86Y1983D01*
X87Y1984D01*
X88Y1985D01*
X89Y1986D01*
X90Y1987D01*
X91Y1988D01*
X92Y1989D01*
X93Y1990D01*
X94Y1991D01*
X95Y1992D01*
X96Y1993D01*
X97Y1994D01*
X98Y1995D01*
X99Y1996D01*
X100Y1997D01*
X101Y1998D01*
X102Y1999D01*
X103Y2000D01*
X104Y2001D01*
X105Y2002D01*
X106Y2003D01*
X106Y2072D01*
X107Y2073D01*
X107Y2077D01*
X108Y2078D01*
X108Y2080D01*
X109Y2081D01*
X109Y2083D01*
X110Y2084D01*
X110Y2085D01*
X111Y2086D01*
X112Y2087D01*
X112Y2088D01*
X113Y2089D01*
X114Y2090D01*
X115Y2091D01*
X115Y2092D01*
X116Y2093D01*
X117Y2094D01*
X118Y2095D01*
X119Y2095D01*
X120Y2096D01*
X121Y2097D01*
X122Y2097D01*
X123Y2098D01*
X124Y2099D01*
X125Y2099D01*
X126Y2100D01*
X127Y2100D01*
X128Y2101D01*
X129Y2101D01*
X130Y2101D01*
X131Y2102D01*
X132Y2102D01*
X133Y2102D01*
X134Y2102D01*
X135Y2103D01*
D02*
G04 End of contour*
M02*