; NON-PLATED HOLES START AT T1
; THROUGH (PLATED) HOLES START AT T100
M48
INCH
T100C0.015748
T101C0.040278
T102C0.035000
%
T100
X004065Y010175
X003075Y006173
T101
X006065Y001175
X009065Y001175
X011065Y001175
X004065Y020175
X003065Y020175
X015065Y001175
X014065Y001175
X004065Y001175
X015665Y020175
X016065Y001175
X007065Y001175
X002065Y020175
X009065Y020175
X014665Y020175
X017665Y020175
X002065Y001175
X013065Y001175
X013665Y020175
X005065Y020175
X007065Y020175
X011665Y020175
X008065Y020175
X018665Y020175
X012065Y001175
X010665Y020175
X006065Y020175
X005065Y001175
X012665Y020175
X019665Y020175
X016665Y020175
X003065Y001175
X010065Y001175
T102
X014065Y012175
X014065Y016255
X006065Y012175
X016065Y012175
X012065Y016255
X013065Y012095
X011065Y016175
X009065Y012095
X016065Y008175
X005065Y012095
X007065Y016175
X008065Y012175
X011065Y012095
X006065Y016255
X007065Y012095
X008065Y016255
X006065Y008175
X015065Y012095
X010065Y012175
X014065Y008175
X016065Y016255
X008065Y008175
X005065Y008095
X012065Y008175
X010065Y008175
X005065Y016175
X013065Y008095
X015065Y016175
X013065Y016175
X015065Y008095
X009065Y016175
X010065Y016255
X009065Y008095
X011065Y008095
X007065Y008095
X012065Y012175
T00
M30
